<svg width="198" height="48" viewBox="0 0 198 48" fill="none" xmlns="http://www.w3.org/2000/svg">
<rect width="198" height="48" rx="24" fill="#7B937A"/>
<path d="M35.2385 18.4326H36.882L41.0744 28.8652L45.258 18.4326H46.9104L41.7072 31.2295H40.424L35.2385 18.4326ZM34.7023 18.4326H36.1525L36.3898 26.2373V31.2295H34.7023V18.4326ZM45.9875 18.4326H47.4377V31.2295H45.7502V26.2373L45.9875 18.4326ZM58.5471 29.8496V31.2295H51.7707V29.8496H58.5471ZM52.1135 18.4326V31.2295H50.4172V18.4326H52.1135ZM57.6506 23.9346V25.3145H51.7707V23.9346H57.6506ZM58.4592 18.4326V19.8213H51.7707V18.4326H58.4592ZM72.8381 27.1602H74.5256C74.4377 27.9688 74.2063 28.6924 73.8313 29.3311C73.4563 29.9697 72.926 30.4766 72.2404 30.8516C71.5549 31.2207 70.6994 31.4053 69.674 31.4053C68.924 31.4053 68.2414 31.2647 67.6262 30.9834C67.0168 30.7022 66.4924 30.3037 66.0529 29.7881C65.6135 29.2666 65.2736 28.6426 65.0334 27.916C64.799 27.1836 64.6818 26.3692 64.6818 25.4727V24.1983C64.6818 23.3018 64.799 22.4902 65.0334 21.7637C65.2736 21.0313 65.6164 20.4043 66.0617 19.8828C66.5129 19.3613 67.0549 18.96 67.6877 18.6787C68.3205 18.3975 69.0324 18.2569 69.8234 18.2569C70.7902 18.2569 71.6076 18.4385 72.2756 18.8018C72.9436 19.1651 73.4621 19.669 73.8313 20.3135C74.2063 20.9522 74.4377 21.6934 74.5256 22.5371H72.8381C72.7561 21.9395 72.6037 21.4268 72.3811 20.999C72.1584 20.5654 71.842 20.2315 71.4318 19.9971C71.0217 19.7627 70.4855 19.6455 69.8234 19.6455C69.2551 19.6455 68.7541 19.7539 68.3205 19.9707C67.8928 20.1875 67.5324 20.4951 67.2395 20.8936C66.9523 21.292 66.7355 21.7695 66.5891 22.3262C66.4426 22.8828 66.3693 23.501 66.3693 24.1807V25.4727C66.3693 26.0996 66.4338 26.6885 66.5627 27.2393C66.6975 27.7901 66.8996 28.2735 67.1691 28.6895C67.4387 29.1055 67.7814 29.4336 68.1975 29.6738C68.6135 29.9082 69.1057 30.0254 69.674 30.0254C70.3947 30.0254 70.9689 29.9111 71.3967 29.6826C71.8244 29.4541 72.1467 29.126 72.3635 28.6983C72.5861 28.2705 72.7443 27.7578 72.8381 27.1602ZM86.6897 24.4268V25.2354C86.6897 26.1963 86.5695 27.0576 86.3293 27.8194C86.0891 28.5811 85.7434 29.2285 85.2922 29.7617C84.841 30.2949 84.299 30.7022 83.6662 30.9834C83.0393 31.2647 82.3361 31.4053 81.5568 31.4053C80.801 31.4053 80.1066 31.2647 79.4738 30.9834C78.8469 30.7022 78.302 30.2949 77.8391 29.7617C77.382 29.2285 77.0275 28.5811 76.7756 27.8194C76.5236 27.0576 76.3977 26.1963 76.3977 25.2354V24.4268C76.3977 23.4658 76.5207 22.6074 76.7668 21.8516C77.0188 21.0899 77.3732 20.4424 77.8303 19.9092C78.2873 19.3701 78.8293 18.96 79.4563 18.6787C80.0891 18.3975 80.7834 18.2569 81.5393 18.2569C82.3186 18.2569 83.0217 18.3975 83.6486 18.6787C84.2814 18.96 84.8234 19.3701 85.2746 19.9092C85.7316 20.4424 86.0803 21.0899 86.3205 21.8516C86.5666 22.6074 86.6897 23.4658 86.6897 24.4268ZM85.0109 25.2354V24.4092C85.0109 23.6475 84.9318 22.9736 84.7736 22.3877C84.6213 21.8018 84.3957 21.3096 84.0969 20.9111C83.798 20.5127 83.4318 20.211 82.9982 20.0059C82.5705 19.8008 82.0842 19.6983 81.5393 19.6983C81.0119 19.6983 80.5344 19.8008 80.1066 20.0059C79.6848 20.211 79.3215 20.5127 79.0168 20.9111C78.718 21.3096 78.4865 21.8018 78.3225 22.3877C78.1584 22.9736 78.0764 23.6475 78.0764 24.4092V25.2354C78.0764 26.0029 78.1584 26.6826 78.3225 27.2744C78.4865 27.8604 78.7209 28.3555 79.0256 28.7598C79.3361 29.1582 79.7023 29.46 80.1242 29.6651C80.552 29.8701 81.0295 29.9727 81.5568 29.9727C82.1076 29.9727 82.5969 29.8701 83.0246 29.6651C83.4523 29.46 83.8127 29.1582 84.1057 28.7598C84.4045 28.3555 84.6301 27.8604 84.7824 27.2744C84.9348 26.6826 85.0109 26.0029 85.0109 25.2354ZM99.0734 18.4326V31.2295H97.3684L90.926 21.3594V31.2295H89.2297V18.4326H90.926L97.3947 28.3291V18.4326H99.0734ZM106.544 18.4326V31.2295H104.874V18.4326H106.544ZM110.657 18.4326V19.8213H100.77V18.4326H110.657ZM116.59 19.5664L112.354 31.2295H110.622L115.5 18.4326H116.616L116.59 19.5664ZM120.141 31.2295L115.896 19.5664L115.869 18.4326H116.986L121.881 31.2295H120.141ZM119.921 26.4922V27.8809H112.732V26.4922H119.921ZM131.215 27.1602H132.903C132.815 27.9688 132.583 28.6924 132.208 29.3311C131.833 29.9697 131.303 30.4766 130.617 30.8516C129.932 31.2207 129.076 31.4053 128.051 31.4053C127.301 31.4053 126.618 31.2647 126.003 30.9834C125.394 30.7022 124.869 30.3037 124.43 29.7881C123.99 29.2666 123.651 28.6426 123.41 27.916C123.176 27.1836 123.059 26.3692 123.059 25.4727V24.1983C123.059 23.3018 123.176 22.4902 123.41 21.7637C123.651 21.0313 123.993 20.4043 124.439 19.8828C124.89 19.3613 125.432 18.96 126.065 18.6787C126.697 18.3975 127.409 18.2569 128.2 18.2569C129.167 18.2569 129.985 18.4385 130.653 18.8018C131.321 19.1651 131.839 19.669 132.208 20.3135C132.583 20.9522 132.815 21.6934 132.903 22.5371H131.215C131.133 21.9395 130.981 21.4268 130.758 20.999C130.535 20.5654 130.219 20.2315 129.809 19.9971C129.399 19.7627 128.863 19.6455 128.2 19.6455C127.632 19.6455 127.131 19.7539 126.697 19.9707C126.27 20.1875 125.909 20.4951 125.616 20.8936C125.329 21.292 125.113 21.7695 124.966 22.3262C124.82 22.8828 124.746 23.501 124.746 24.1807V25.4727C124.746 26.0996 124.811 26.6885 124.94 27.2393C125.074 27.7901 125.277 28.2735 125.546 28.6895C125.816 29.1055 126.158 29.4336 126.574 29.6738C126.99 29.9082 127.483 30.0254 128.051 30.0254C128.772 30.0254 129.346 29.9111 129.774 29.6826C130.201 29.4541 130.524 29.126 130.74 28.6983C130.963 28.2705 131.121 27.7578 131.215 27.1602ZM139.679 18.4326V31.2295H138.009V18.4326H139.679ZM143.792 18.4326V19.8213H133.904V18.4326H143.792ZM153.821 29.8496V31.2295H147.044V29.8496H153.821ZM147.387 18.4326V31.2295H145.691V18.4326H147.387ZM152.924 23.9346V25.3145H147.044V23.9346H152.924ZM153.733 18.4326V19.8213H147.044V18.4326H153.733ZM155.921 18.4326H160.157C161.118 18.4326 161.93 18.5791 162.592 18.8721C163.26 19.1651 163.767 19.5986 164.113 20.1729C164.464 20.7412 164.64 21.4414 164.64 22.2735C164.64 22.8594 164.52 23.3955 164.279 23.8819C164.045 24.3623 163.705 24.7725 163.26 25.1123C162.821 25.4463 162.293 25.6953 161.678 25.8594L161.203 26.044H157.222L157.204 24.6641H160.21C160.82 24.6641 161.326 24.5586 161.731 24.3477C162.135 24.1309 162.44 23.8408 162.645 23.4776C162.85 23.1143 162.952 22.7129 162.952 22.2735C162.952 21.7813 162.856 21.3506 162.662 20.9815C162.469 20.6123 162.164 20.3281 161.748 20.1289C161.338 19.9238 160.808 19.8213 160.157 19.8213H157.617V31.2295H155.921V18.4326ZM163.401 31.2295L160.289 25.4287L162.056 25.4199L165.211 31.124V31.2295H163.401Z" fill="white"/>
</svg>
