<svg width="242" height="48" viewBox="0 0 242 48" fill="none" xmlns="http://www.w3.org/2000/svg">
<rect width="242" height="48" rx="24" fill="#BA8777"/>
<path d="M33.5641 26.211H30.1452V24.8311H33.5641C34.2263 24.8311 34.7624 24.7256 35.1725 24.5147C35.5827 24.3037 35.8815 24.0108 36.069 23.6358C36.2624 23.2608 36.3591 22.833 36.3591 22.3526C36.3591 21.9131 36.2624 21.5 36.069 21.1133C35.8815 20.7266 35.5827 20.416 35.1725 20.1817C34.7624 19.9414 34.2263 19.8213 33.5641 19.8213H30.5407V31.2295H28.8444V18.4326H33.5641C34.5309 18.4326 35.3483 18.5996 36.0163 18.9336C36.6843 19.2676 37.1911 19.7305 37.5368 20.3223C37.8825 20.9082 38.0554 21.5791 38.0554 22.335C38.0554 23.1553 37.8825 23.8555 37.5368 24.4356C37.1911 25.0156 36.6843 25.458 36.0163 25.7627C35.3483 26.0615 34.5309 26.211 33.5641 26.211ZM47.5212 18.4326H49.2087V27.0899C49.2087 28.0508 48.9948 28.8506 48.5671 29.4893C48.1393 30.1279 47.571 30.6084 46.862 30.9307C46.1589 31.2471 45.3942 31.4053 44.5681 31.4053C43.7009 31.4053 42.9157 31.2471 42.2126 30.9307C41.5153 30.6084 40.9616 30.1279 40.5515 29.4893C40.1472 28.8506 39.945 28.0508 39.945 27.0899V18.4326H41.6237V27.0899C41.6237 27.7578 41.7468 28.3086 41.9929 28.7422C42.239 29.1758 42.5817 29.4981 43.0212 29.709C43.4665 29.9199 43.9821 30.0254 44.5681 30.0254C45.1599 30.0254 45.6755 29.9199 46.1149 29.709C46.5602 29.4981 46.9059 29.1758 47.152 28.7422C47.3981 28.3086 47.5212 27.7578 47.5212 27.0899V18.4326ZM56.4333 25.2442H53.1901L53.1725 23.8819H56.1169C56.6032 23.8819 57.028 23.7998 57.3913 23.6358C57.7546 23.4717 58.0358 23.2373 58.235 22.9326C58.4401 22.6221 58.5427 22.2529 58.5427 21.8252C58.5427 21.3565 58.4518 20.9756 58.2702 20.6826C58.0944 20.3838 57.822 20.167 57.4528 20.0322C57.0895 19.8916 56.6266 19.8213 56.0641 19.8213H53.5681V31.2295H51.8718V18.4326H56.0641C56.7204 18.4326 57.3063 18.5 57.822 18.6348C58.3376 18.7637 58.7741 18.9688 59.1315 19.25C59.4948 19.5254 59.7702 19.877 59.9577 20.3047C60.1452 20.7324 60.239 21.2451 60.239 21.8428C60.239 22.3701 60.1042 22.8477 59.8347 23.2754C59.5651 23.6973 59.1901 24.043 58.7097 24.3125C58.235 24.582 57.6784 24.7549 57.0397 24.8311L56.4333 25.2442ZM56.3542 31.2295H52.5222L53.4802 29.8496H56.3542C56.8932 29.8496 57.3503 29.7559 57.7253 29.5684C58.1061 29.3809 58.3962 29.1172 58.5954 28.7774C58.7946 28.4317 58.8942 28.0244 58.8942 27.5557C58.8942 27.0811 58.8093 26.6709 58.6393 26.3252C58.4694 25.9795 58.2028 25.7129 57.8395 25.5254C57.4763 25.3379 57.0075 25.2442 56.4333 25.2442H54.0163L54.0339 23.8819H57.3386L57.6989 24.374C58.3141 24.4268 58.8356 24.6026 59.2634 24.9014C59.6911 25.1944 60.0163 25.5694 60.239 26.0264C60.4675 26.4834 60.5817 26.9873 60.5817 27.5381C60.5817 28.335 60.4059 29.0088 60.0544 29.5596C59.7087 30.1045 59.2194 30.5205 58.5866 30.8076C57.9538 31.0889 57.2097 31.2295 56.3542 31.2295ZM70.8474 29.8496V31.2295H64.4489V29.8496H70.8474ZM64.7829 18.4326V31.2295H63.0866V18.4326H64.7829ZM74.6091 18.4326V31.2295H72.9128V18.4326H74.6091ZM85.8239 29.8496V31.2295H79.0475V29.8496H85.8239ZM79.3903 18.4326V31.2295H77.694V18.4326H79.3903ZM84.9274 23.9346V25.3145H79.0475V23.9346H84.9274ZM85.736 18.4326V19.8213H79.0475V18.4326H85.736ZM94.7448 27.9951C94.7448 27.6963 94.6979 27.4326 94.6042 27.2041C94.5163 26.9697 94.3581 26.7588 94.1296 26.5713C93.9069 26.3838 93.5964 26.2051 93.1979 26.0352C92.8054 25.8652 92.3073 25.6924 91.7038 25.5166C91.071 25.3291 90.4997 25.1211 89.9899 24.8926C89.4802 24.6582 89.0436 24.3916 88.6804 24.0928C88.3171 23.794 88.0388 23.4512 87.8454 23.0645C87.652 22.6777 87.5554 22.2354 87.5554 21.7373C87.5554 21.2393 87.6579 20.7793 87.863 20.3574C88.0681 19.9356 88.361 19.5694 88.7419 19.2588C89.1286 18.9424 89.5886 18.6963 90.1218 18.5205C90.655 18.3447 91.2497 18.2569 91.9059 18.2569C92.8669 18.2569 93.6813 18.4414 94.3493 18.8106C95.0231 19.1738 95.5358 19.6514 95.8874 20.2432C96.239 20.8291 96.4147 21.4561 96.4147 22.124H94.7272C94.7272 21.6436 94.6247 21.2188 94.4196 20.8496C94.2145 20.4746 93.904 20.1817 93.488 19.9707C93.072 19.7539 92.5446 19.6455 91.9059 19.6455C91.3024 19.6455 90.8044 19.7363 90.4118 19.918C90.0192 20.0996 89.7263 20.3457 89.5329 20.6563C89.3454 20.9668 89.2516 21.3213 89.2516 21.7197C89.2516 21.9893 89.3073 22.2354 89.4186 22.458C89.5358 22.6748 89.7145 22.877 89.9548 23.0645C90.2009 23.252 90.5114 23.4248 90.8864 23.583C91.2673 23.7412 91.7214 23.8936 92.2487 24.0401C92.9753 24.2451 93.6022 24.4736 94.1296 24.7256C94.6569 24.9776 95.0905 25.2617 95.4304 25.5781C95.7761 25.8887 96.0309 26.2432 96.195 26.6416C96.3649 27.0342 96.4499 27.4795 96.4499 27.9776C96.4499 28.499 96.3444 28.9707 96.1335 29.3926C95.9225 29.8145 95.6208 30.1748 95.2282 30.4736C94.8356 30.7725 94.364 31.0039 93.8132 31.168C93.2682 31.3262 92.6589 31.4053 91.985 31.4053C91.3932 31.4053 90.8102 31.3233 90.236 31.1592C89.6677 30.9951 89.1491 30.749 88.6804 30.4209C88.2175 30.0928 87.8454 29.6885 87.5641 29.208C87.2888 28.7217 87.1511 28.1592 87.1511 27.5205H88.8386C88.8386 27.96 88.9235 28.3379 89.0934 28.6543C89.2634 28.9649 89.4948 29.2227 89.7878 29.4277C90.0866 29.6328 90.4235 29.7852 90.7985 29.8848C91.1794 29.9785 91.5749 30.0254 91.985 30.0254C92.5768 30.0254 93.0778 29.9434 93.488 29.7793C93.8981 29.6152 94.2087 29.3809 94.4196 29.0762C94.6364 28.7715 94.7448 28.4111 94.7448 27.9951ZM107.454 18.4326V31.2295H105.784V18.4326H107.454ZM111.567 18.4326V19.8213H101.679V18.4326H111.567ZM121.595 29.8496V31.2295H114.819V29.8496H121.595ZM115.162 18.4326V31.2295H113.466V18.4326H115.162ZM120.699 23.9346V25.3145H114.819V23.9346H120.699ZM121.508 18.4326V19.8213H114.819V18.4326H121.508ZM130.516 27.9951C130.516 27.6963 130.469 27.4326 130.376 27.2041C130.288 26.9697 130.13 26.7588 129.901 26.5713C129.678 26.3838 129.368 26.2051 128.969 26.0352C128.577 25.8652 128.079 25.6924 127.475 25.5166C126.842 25.3291 126.271 25.1211 125.761 24.8926C125.252 24.6582 124.815 24.3916 124.452 24.0928C124.089 23.794 123.81 23.4512 123.617 23.0645C123.424 22.6777 123.327 22.2354 123.327 21.7373C123.327 21.2393 123.429 20.7793 123.634 20.3574C123.84 19.9356 124.133 19.5694 124.513 19.2588C124.9 18.9424 125.36 18.6963 125.893 18.5205C126.426 18.3447 127.021 18.2569 127.677 18.2569C128.638 18.2569 129.453 18.4414 130.121 18.8106C130.795 19.1738 131.307 19.6514 131.659 20.2432C132.01 20.8291 132.186 21.4561 132.186 22.124H130.499C130.499 21.6436 130.396 21.2188 130.191 20.8496C129.986 20.4746 129.675 20.1817 129.259 19.9707C128.843 19.7539 128.316 19.6455 127.677 19.6455C127.074 19.6455 126.576 19.7363 126.183 19.918C125.791 20.0996 125.498 20.3457 125.304 20.6563C125.117 20.9668 125.023 21.3213 125.023 21.7197C125.023 21.9893 125.079 22.2354 125.19 22.458C125.307 22.6748 125.486 22.877 125.726 23.0645C125.972 23.252 126.283 23.4248 126.658 23.583C127.039 23.7412 127.493 23.8936 128.02 24.0401C128.747 24.2451 129.374 24.4736 129.901 24.7256C130.428 24.9776 130.862 25.2617 131.202 25.5781C131.548 25.8887 131.802 26.2432 131.966 26.6416C132.136 27.0342 132.221 27.4795 132.221 27.9776C132.221 28.499 132.116 28.9707 131.905 29.3926C131.694 29.8145 131.392 30.1748 131 30.4736C130.607 30.7725 130.135 31.0039 129.585 31.168C129.04 31.3262 128.43 31.4053 127.757 31.4053C127.165 31.4053 126.582 31.3233 126.008 31.1592C125.439 30.9951 124.921 30.749 124.452 30.4209C123.989 30.0928 123.617 29.6885 123.336 29.208C123.06 28.7217 122.923 28.1592 122.923 27.5205H124.61C124.61 27.96 124.695 28.3379 124.865 28.6543C125.035 28.9649 125.266 29.2227 125.559 29.4277C125.858 29.6328 126.195 29.7852 126.57 29.8848C126.951 29.9785 127.346 30.0254 127.757 30.0254C128.348 30.0254 128.849 29.9434 129.259 29.7793C129.67 29.6152 129.98 29.3809 130.191 29.0762C130.408 28.7715 130.516 28.4111 130.516 27.9951ZM143.586 19.5664L139.349 31.2295H137.618L142.496 18.4326H143.612L143.586 19.5664ZM147.136 31.2295L142.891 19.5664L142.865 18.4326H143.981L148.877 31.2295H147.136ZM146.917 26.4922V27.8809H139.727V26.4922H146.917ZM154.176 18.4326V31.2295H152.507V18.4326H154.176ZM158.29 18.4326V19.8213H148.402V18.4326H158.29ZM168.318 29.8496V31.2295H161.542V29.8496H168.318ZM161.884 18.4326V31.2295H160.188V18.4326H161.884ZM167.422 23.9346V25.3145H161.542V23.9346H167.422ZM168.23 18.4326V19.8213H161.542V18.4326H168.23ZM178.179 29.8496V31.2295H171.781V29.8496H178.179ZM172.115 18.4326V31.2295H170.419V18.4326H172.115ZM181.941 18.4326V31.2295H180.245V18.4326H181.941ZM193.156 29.8496V31.2295H186.38V29.8496H193.156ZM186.722 18.4326V31.2295H185.026V18.4326H186.722ZM192.259 23.9346V25.3145H186.38V23.9346H192.259ZM193.068 18.4326V19.8213H186.38V18.4326H193.068ZM195.257 18.4326H199.493C200.454 18.4326 201.265 18.5791 201.927 18.8721C202.595 19.1651 203.102 19.5986 203.448 20.1729C203.799 20.7412 203.975 21.4414 203.975 22.2735C203.975 22.8594 203.855 23.3955 203.615 23.8819C203.381 24.3623 203.041 24.7725 202.595 25.1123C202.156 25.4463 201.629 25.6953 201.013 25.8594L200.539 26.044H196.557L196.54 24.6641H199.546C200.155 24.6641 200.662 24.5586 201.066 24.3477C201.47 24.1309 201.775 23.8408 201.98 23.4776C202.185 23.1143 202.288 22.7129 202.288 22.2735C202.288 21.7813 202.191 21.3506 201.998 20.9815C201.804 20.6123 201.5 20.3281 201.084 20.1289C200.674 19.9238 200.143 19.8213 199.493 19.8213H196.953V31.2295H195.257V18.4326ZM202.736 31.2295L199.625 25.4287L201.391 25.4199L204.547 31.124V31.2295H202.736ZM213.169 27.9951C213.169 27.6963 213.122 27.4326 213.028 27.2041C212.94 26.9697 212.782 26.7588 212.553 26.5713C212.331 26.3838 212.02 26.2051 211.622 26.0352C211.229 25.8652 210.731 25.6924 210.128 25.5166C209.495 25.3291 208.924 25.1211 208.414 24.8926C207.904 24.6582 207.467 24.3916 207.104 24.0928C206.741 23.794 206.463 23.4512 206.269 23.0645C206.076 22.6777 205.979 22.2354 205.979 21.7373C205.979 21.2393 206.082 20.7793 206.287 20.3574C206.492 19.9356 206.785 19.5694 207.166 19.2588C207.552 18.9424 208.012 18.6963 208.546 18.5205C209.079 18.3447 209.674 18.2569 210.33 18.2569C211.291 18.2569 212.105 18.4414 212.773 18.8106C213.447 19.1738 213.96 19.6514 214.311 20.2432C214.663 20.8291 214.839 21.4561 214.839 22.124H213.151C213.151 21.6436 213.049 21.2188 212.843 20.8496C212.638 20.4746 212.328 20.1817 211.912 19.9707C211.496 19.7539 210.968 19.6455 210.33 19.6455C209.726 19.6455 209.228 19.7363 208.836 19.918C208.443 20.0996 208.15 20.3457 207.957 20.6563C207.769 20.9668 207.675 21.3213 207.675 21.7197C207.675 21.9893 207.731 22.2354 207.842 22.458C207.96 22.6748 208.138 22.877 208.379 23.0645C208.625 23.252 208.935 23.4248 209.31 23.583C209.691 23.7412 210.145 23.8936 210.673 24.0401C211.399 24.2451 212.026 24.4736 212.553 24.7256C213.081 24.9776 213.514 25.2617 213.854 25.5781C214.2 25.8887 214.455 26.2432 214.619 26.6416C214.789 27.0342 214.874 27.4795 214.874 27.9776C214.874 28.499 214.768 28.9707 214.557 29.3926C214.346 29.8145 214.045 30.1748 213.652 30.4736C213.259 30.7725 212.788 31.0039 212.237 31.168C211.692 31.3262 211.083 31.4053 210.409 31.4053C209.817 31.4053 209.234 31.3233 208.66 31.1592C208.091 30.9951 207.573 30.749 207.104 30.4209C206.641 30.0928 206.269 29.6885 205.988 29.208C205.713 28.7217 205.575 28.1592 205.575 27.5205H207.262C207.262 27.96 207.347 28.3379 207.517 28.6543C207.687 28.9649 207.919 29.2227 208.212 29.4277C208.51 29.6328 208.847 29.7852 209.222 29.8848C209.603 29.9785 209.999 30.0254 210.409 30.0254C211.001 30.0254 211.502 29.9434 211.912 29.7793C212.322 29.6152 212.633 29.3809 212.843 29.0762C213.06 28.7715 213.169 28.4111 213.169 27.9951Z" fill="white"/>
</svg>
