<svg width="198" height="48" viewBox="0 0 198 48" fill="none" xmlns="http://www.w3.org/2000/svg">
<rect width="198" height="48" rx="24" fill="#B29D7E"/>
<path d="M54.6272 31.2295H51.9553L51.9729 29.8496H54.6272C55.5412 29.8496 56.3029 29.6592 56.9123 29.2783C57.5217 28.8916 57.9787 28.3526 58.2834 27.6611C58.5939 26.9639 58.7492 26.1494 58.7492 25.2178V24.4356C58.7492 23.7031 58.6613 23.0527 58.4855 22.4844C58.3098 21.9102 58.052 21.4268 57.7121 21.0342C57.3723 20.6358 56.9563 20.334 56.4641 20.1289C55.9777 19.9238 55.4182 19.8213 54.7854 19.8213H51.9025V18.4326H54.7854C55.6232 18.4326 56.3879 18.5733 57.0793 18.8545C57.7707 19.1299 58.3654 19.5313 58.8635 20.0586C59.3674 20.5801 59.7541 21.2129 60.0236 21.957C60.2932 22.6953 60.4279 23.5274 60.4279 24.4531V25.2178C60.4279 26.1436 60.2932 26.9785 60.0236 27.7227C59.7541 28.461 59.3645 29.0908 58.8547 29.6123C58.3508 30.1338 57.7414 30.5352 57.0266 30.8164C56.3176 31.0918 55.5178 31.2295 54.6272 31.2295ZM52.8605 18.4326V31.2295H51.1643V18.4326H52.8605ZM72.8293 24.4268V25.2354C72.8293 26.1963 72.7092 27.0576 72.4689 27.8194C72.2287 28.5811 71.883 29.2285 71.4318 29.7617C70.9807 30.2949 70.4387 30.7022 69.8059 30.9834C69.1789 31.2647 68.4758 31.4053 67.6965 31.4053C66.9406 31.4053 66.2463 31.2647 65.6135 30.9834C64.9865 30.7022 64.4416 30.2949 63.9787 29.7617C63.5217 29.2285 63.1672 28.5811 62.9152 27.8194C62.6633 27.0576 62.5373 26.1963 62.5373 25.2354V24.4268C62.5373 23.4658 62.6604 22.6074 62.9064 21.8516C63.1584 21.0899 63.5129 20.4424 63.9699 19.9092C64.427 19.3701 64.9689 18.96 65.5959 18.6787C66.2287 18.3975 66.923 18.2569 67.6789 18.2569C68.4582 18.2569 69.1613 18.3975 69.7883 18.6787C70.4211 18.96 70.9631 19.3701 71.4143 19.9092C71.8713 20.4424 72.2199 21.0899 72.4602 21.8516C72.7063 22.6074 72.8293 23.4658 72.8293 24.4268ZM71.1506 25.2354V24.4092C71.1506 23.6475 71.0715 22.9736 70.9133 22.3877C70.7609 21.8018 70.5354 21.3096 70.2365 20.9111C69.9377 20.5127 69.5715 20.211 69.1379 20.0059C68.7102 19.8008 68.2238 19.6983 67.6789 19.6983C67.1516 19.6983 66.674 19.8008 66.2463 20.0059C65.8244 20.211 65.4611 20.5127 65.1564 20.9111C64.8576 21.3096 64.6262 21.8018 64.4621 22.3877C64.298 22.9736 64.216 23.6475 64.216 24.4092V25.2354C64.216 26.0029 64.298 26.6826 64.4621 27.2744C64.6262 27.8604 64.8605 28.3555 65.1652 28.7598C65.4758 29.1582 65.842 29.46 66.2639 29.6651C66.6916 29.8701 67.1691 29.9727 67.6965 29.9727C68.2473 29.9727 68.7365 29.8701 69.1643 29.6651C69.592 29.46 69.9523 29.1582 70.2453 28.7598C70.5441 28.3555 70.7697 27.8604 70.9221 27.2744C71.0744 26.6826 71.1506 26.0029 71.1506 25.2354ZM85.2131 18.4326V31.2295H83.508L77.0656 21.3594V31.2295H75.3693V18.4326H77.0656L83.5344 28.3291V18.4326H85.2131ZM93.1145 19.5664L88.8781 31.2295H87.1467L92.0246 18.4326H93.1408L93.1145 19.5664ZM96.6652 31.2295L92.4201 19.5664L92.3938 18.4326H93.51L98.4055 31.2295H96.6652ZM96.4455 26.4922V27.8809H89.2561V26.4922H96.4455ZM103.705 18.4326V31.2295H102.035V18.4326H103.705ZM107.819 18.4326V19.8213H97.9309V18.4326H107.819ZM111.536 18.4326V31.2295H109.84V18.4326H111.536ZM124.474 24.4268V25.2354C124.474 26.1963 124.354 27.0576 124.113 27.8194C123.873 28.5811 123.528 29.2285 123.076 29.7617C122.625 30.2949 122.083 30.7022 121.45 30.9834C120.823 31.2647 120.12 31.4053 119.341 31.4053C118.585 31.4053 117.891 31.2647 117.258 30.9834C116.631 30.7022 116.086 30.2949 115.623 29.7617C115.166 29.2285 114.812 28.5811 114.56 27.8194C114.308 27.0576 114.182 26.1963 114.182 25.2354V24.4268C114.182 23.4658 114.305 22.6074 114.551 21.8516C114.803 21.0899 115.157 20.4424 115.614 19.9092C116.071 19.3701 116.613 18.96 117.24 18.6787C117.873 18.3975 118.568 18.2569 119.323 18.2569C120.103 18.2569 120.806 18.3975 121.433 18.6787C122.066 18.96 122.608 19.3701 123.059 19.9092C123.516 20.4424 123.864 21.0899 124.105 21.8516C124.351 22.6074 124.474 23.4658 124.474 24.4268ZM122.795 25.2354V24.4092C122.795 23.6475 122.716 22.9736 122.558 22.3877C122.405 21.8018 122.18 21.3096 121.881 20.9111C121.582 20.5127 121.216 20.211 120.782 20.0059C120.355 19.8008 119.868 19.6983 119.323 19.6983C118.796 19.6983 118.319 19.8008 117.891 20.0059C117.469 20.211 117.106 20.5127 116.801 20.9111C116.502 21.3096 116.271 21.8018 116.107 22.3877C115.943 22.9736 115.861 23.6475 115.861 24.4092V25.2354C115.861 26.0029 115.943 26.6826 116.107 27.2744C116.271 27.8604 116.505 28.3555 116.81 28.7598C117.12 29.1582 117.487 29.46 117.908 29.6651C118.336 29.8701 118.814 29.9727 119.341 29.9727C119.892 29.9727 120.381 29.8701 120.809 29.6651C121.237 29.46 121.597 29.1582 121.89 28.7598C122.189 28.3555 122.414 27.8604 122.567 27.2744C122.719 26.6826 122.795 26.0029 122.795 25.2354ZM136.858 18.4326V31.2295H135.153L128.71 21.3594V31.2295H127.014V18.4326H128.71L135.179 28.3291V18.4326H136.858ZM146.684 27.9951C146.684 27.6963 146.637 27.4326 146.543 27.2041C146.455 26.9697 146.297 26.7588 146.069 26.5713C145.846 26.3838 145.535 26.2051 145.137 26.0352C144.744 25.8652 144.246 25.6924 143.643 25.5166C143.01 25.3291 142.439 25.1211 141.929 24.8926C141.419 24.6582 140.983 24.3916 140.619 24.0928C140.256 23.794 139.978 23.4512 139.784 23.0645C139.591 22.6777 139.494 22.2354 139.494 21.7373C139.494 21.2393 139.597 20.7793 139.802 20.3574C140.007 19.9356 140.3 19.5694 140.681 19.2588C141.068 18.9424 141.528 18.6963 142.061 18.5205C142.594 18.3447 143.189 18.2569 143.845 18.2569C144.806 18.2569 145.62 18.4414 146.288 18.8106C146.962 19.1738 147.475 19.6514 147.826 20.2432C148.178 20.8291 148.354 21.4561 148.354 22.124H146.666C146.666 21.6436 146.564 21.2188 146.359 20.8496C146.154 20.4746 145.843 20.1817 145.427 19.9707C145.011 19.7539 144.484 19.6455 143.845 19.6455C143.241 19.6455 142.743 19.7363 142.351 19.918C141.958 20.0996 141.665 20.3457 141.472 20.6563C141.284 20.9668 141.191 21.3213 141.191 21.7197C141.191 21.9893 141.246 22.2354 141.358 22.458C141.475 22.6748 141.654 22.877 141.894 23.0645C142.14 23.252 142.45 23.4248 142.825 23.583C143.206 23.7412 143.66 23.8936 144.188 24.0401C144.914 24.2451 145.541 24.4736 146.069 24.7256C146.596 24.9776 147.029 25.2617 147.369 25.5781C147.715 25.8887 147.97 26.2432 148.134 26.6416C148.304 27.0342 148.389 27.4795 148.389 27.9776C148.389 28.499 148.283 28.9707 148.072 29.3926C147.862 29.8145 147.56 30.1748 147.167 30.4736C146.775 30.7725 146.303 31.0039 145.752 31.168C145.207 31.3262 144.598 31.4053 143.924 31.4053C143.332 31.4053 142.749 31.3233 142.175 31.1592C141.607 30.9951 141.088 30.749 140.619 30.4209C140.156 30.0928 139.784 29.6885 139.503 29.208C139.228 28.7217 139.09 28.1592 139.09 27.5205H140.778C140.778 27.96 140.863 28.3379 141.032 28.6543C141.202 28.9649 141.434 29.2227 141.727 29.4277C142.026 29.6328 142.363 29.7852 142.738 29.8848C143.118 29.9785 143.514 30.0254 143.924 30.0254C144.516 30.0254 145.017 29.9434 145.427 29.7793C145.837 29.6152 146.148 29.3809 146.359 29.0762C146.575 28.7715 146.684 28.4111 146.684 27.9951Z" fill="white"/>
</svg>
