<svg width="92" height="95" viewBox="0 0 92 95" fill="none" xmlns="http://www.w3.org/2000/svg">
<path d="M44.9423 26.8371H45.5158L42.256 37.1752C41.7731 38.7079 40.9883 39.91 39.9319 40.7815C38.8453 41.6831 37.638 42.1039 36.31 42.1039C34.9216 42.1039 33.9859 41.6831 33.4426 40.8717C32.8993 40.0603 32.8088 39.0084 33.2011 37.7162H33.7746C33.5935 38.2571 33.5331 38.768 33.5633 39.2489C33.5935 40.0002 33.835 40.5411 34.3179 40.9619C34.8008 41.3526 35.495 41.5629 36.3703 41.5629C37.5475 41.5629 38.6341 41.1722 39.5999 40.3608C40.5658 39.5494 41.26 38.4975 41.6523 37.1752L44.9423 26.8371Z" fill="white"/>
<path d="M49.2587 42.164C48.323 42.164 47.5081 41.9536 46.844 41.5328C46.18 41.1121 45.6971 40.5111 45.4254 39.7297C45.1236 38.9483 45.0331 38.0768 45.1538 37.085C45.2142 36.5441 45.3349 36.0332 45.4858 35.4923L46.1196 33.4186C46.5422 32.0662 47.1459 30.8641 47.9608 29.8123C48.7757 28.7605 49.7114 27.9791 50.7376 27.4381C51.7639 26.8972 52.8504 26.6267 53.9672 26.6267C54.9029 26.6267 55.7178 26.8371 56.3818 27.2578C57.0459 27.6786 57.4986 28.2796 57.8004 29.061C58.0721 29.8423 58.1626 30.7139 58.0721 31.6756C58.0117 32.2466 57.891 32.8176 57.7099 33.3585L57.076 35.4321C56.6837 36.6944 56.08 37.8664 55.2952 38.8882C54.4803 39.9401 53.5748 40.7214 52.5184 41.2924C51.5224 41.8935 50.4056 42.164 49.2587 42.164ZM57.559 31.8258C57.7401 30.3833 57.4986 29.2713 56.8648 28.4599C56.2309 27.6485 55.2651 27.2278 53.9672 27.2278C52.3675 27.2278 50.9187 27.7988 49.5907 28.9408C48.2928 30.0828 47.327 31.6155 46.7535 33.4787L46.0895 35.5824C45.9385 36.0332 45.848 36.514 45.7876 36.9648C45.6065 38.3773 45.8178 39.5193 46.4517 40.3307C47.0855 41.1722 48.0514 41.593 49.3492 41.593C50.3453 41.593 51.3111 41.3525 52.2166 40.9017C53.1523 40.4209 53.9974 39.7297 54.7218 38.7981C55.4763 37.8664 56.0498 36.7845 56.4724 35.5824L57.1968 33.2984C57.3779 32.8476 57.4684 32.3367 57.559 31.8258Z" fill="white"/>
<path d="M73.1635 26.9272L69.9641 37.085C69.4812 38.6478 68.6059 39.8799 67.3684 40.8116C66.1309 41.7432 64.7123 42.194 63.1428 42.194C62.1468 42.194 61.3016 41.9836 60.6376 41.5629C59.9736 41.1422 59.5208 40.5411 59.3096 39.7597C59.0983 38.9784 59.1285 38.1068 59.4303 37.1151L62.6599 26.8671H63.2333L60.034 37.1151C59.6416 38.4374 59.7321 39.5193 60.3358 40.3608C60.9394 41.2023 61.9053 41.623 63.2333 41.623C64.6519 41.623 65.9196 41.2023 67.0364 40.3608C68.1833 39.5193 68.9681 38.3773 69.4208 36.9648L72.59 26.8972L73.1635 26.9272Z" fill="white"/>
<path d="M79.7131 35.5824L74.4009 35.5524L72.3787 42.0137H71.8052L76.5439 26.9272L81.4033 26.9573C82.3692 26.9573 83.154 27.1677 83.818 27.5283C84.482 27.8889 84.9347 28.4299 85.146 29.061C85.3875 29.7221 85.3573 30.4735 85.1158 31.3149C84.7838 32.3367 84.2104 33.2383 83.3351 33.9896C82.4597 34.7409 81.4637 35.2218 80.3469 35.4622L82.3994 41.9235L82.3692 42.0738H81.7655L79.7131 35.5824ZM74.582 35.0114L79.2302 35.0415C80.4375 35.0415 81.5241 34.7109 82.4899 33.9896C83.4558 33.2684 84.15 32.3968 84.5122 31.3149C84.8744 30.1729 84.7536 29.2413 84.1198 28.5501C83.486 27.8589 82.4899 27.4982 81.1015 27.4982H76.9061L74.582 35.0114Z" fill="white"/>
<path d="M39.5096 19.5042L32.0242 19.4742L28.8852 23.9821H28.2212L38.6947 8.92566H39.3889L40.4151 24.0422H39.7812L39.5096 19.5042ZM32.3864 18.9332L39.4492 18.9633L38.8758 9.61687L32.3864 18.9332Z" fill="white"/>
<path d="M57.9516 8.98576L54.7522 19.1436C54.2693 20.7063 53.394 21.9385 52.1565 22.8701C50.919 23.8017 49.5004 24.2525 47.9309 24.2525C46.9348 24.2525 46.0897 24.0422 45.4257 23.6214C44.7617 23.2007 44.3089 22.5996 44.0977 21.8183C43.8864 21.0369 43.9166 20.1654 44.2184 19.1736L47.448 8.92566H48.0214L44.822 19.1736C44.4297 20.4959 44.5202 21.5778 45.1239 22.4193C45.7275 23.2608 46.6934 23.6815 48.0214 23.6815C49.44 23.6815 50.7077 23.2608 51.8245 22.4193C52.9412 21.5778 53.7562 20.4358 54.2089 19.0234L57.3479 8.98576H57.9516Z" fill="white"/>
<path d="M27.0437 60.6464L26.0175 63.6216C25.5044 65.1242 24.78 66.2061 23.8745 66.8673C22.9388 67.4984 21.9428 67.829 20.8864 67.829C19.9809 67.829 19.2867 67.6186 18.8038 67.1678C18.3208 66.717 18.0794 66.0859 18.0794 65.2745C18.0794 64.5532 18.2605 63.5014 18.6528 62.119L19.2263 60.0754C17.8379 62.8102 16.4193 64.7936 14.9705 65.9958C13.5519 67.2279 12.0126 67.829 10.4129 67.829C8.96413 67.829 7.84736 67.3782 7.03242 66.4766C6.21748 65.575 5.79492 64.2226 5.79492 62.4195C5.79492 60.1655 6.42876 57.7313 7.72663 55.0866C9.02449 52.442 10.7449 50.2181 12.9483 48.4149C15.1516 46.6118 17.5361 45.7102 20.1016 45.7102C20.6751 45.7102 21.2184 45.8905 21.7315 46.2211C22.2446 46.5517 22.6068 47.0325 22.8181 47.6636L26.6513 35.9731C26.772 35.5524 26.8324 35.1917 26.8324 34.8912C26.8324 34.3503 26.5909 33.9596 26.1382 33.6891C25.6855 33.4186 24.9007 33.2984 23.8141 33.2984L24.0858 32.4569C25.6553 32.4569 27.0739 32.3067 28.3114 32.0061C29.5489 31.7357 30.7562 31.3149 31.9333 30.774L21.6108 63.7719C21.4297 64.3128 21.3391 64.7936 21.3391 65.1543C21.3391 65.9056 21.7013 66.2963 22.3955 66.2963C22.9992 66.2963 23.5425 65.9958 24.0254 65.3646C24.5385 64.7335 25.0516 63.6516 25.6251 62.149L26.1684 60.6464H27.0437ZM21.5806 47.1527C21.158 46.8221 20.6751 46.6418 20.1318 46.6418C18.351 46.6418 16.6306 47.5133 15.0309 49.2864C13.4312 51.0596 12.1333 53.2234 11.1675 55.7778C10.2016 58.3323 9.7187 60.7365 9.7187 62.9604C9.7187 65.3346 10.3827 66.5066 11.6806 66.5066C12.5257 66.5066 13.5217 65.9657 14.6687 64.8537C15.8156 63.7418 16.9626 62.2692 18.0794 60.4059C19.1961 58.5427 20.1318 56.5292 20.8562 54.3954L22.5163 48.7455C22.3352 48.0242 22.0031 47.5133 21.5806 47.1527Z" fill="white"/>
<path d="M52.2768 60.6464L51.16 63.6216C50.1036 66.4165 48.2927 67.829 45.7875 67.829C45.3045 67.829 44.8518 67.7388 44.4292 67.5284C44.0067 67.3481 43.7049 67.0476 43.5238 66.687C43.3427 66.3564 43.2521 65.9356 43.2521 65.4248C43.2521 64.7035 43.4634 63.5915 43.8859 62.0889L45.3045 56.9799C44.1274 59.5945 42.9805 61.7283 41.8637 63.291C40.7469 64.8838 39.6603 66.0258 38.5134 66.7471C37.3966 67.4683 36.1893 67.7989 34.9216 67.7989C32.4164 67.7989 31.1789 66.7471 31.1789 64.6434C31.1789 63.8019 31.3902 62.7801 31.843 61.6081L36.1289 49.7072C36.3704 49.046 36.461 48.5351 36.461 48.1745C36.461 47.5133 36.1289 47.1828 35.4347 47.1828C34.8311 47.1828 34.2576 47.4833 33.7143 48.1144C33.171 48.7455 32.5975 49.7973 32.0241 51.3601L31.4506 52.8627H30.6055L31.7222 49.8875C32.7485 47.0926 34.5594 45.6801 37.0646 45.6801C39.1472 45.6801 40.1735 46.5216 40.1735 48.2046C40.1735 48.9559 39.932 50.0077 39.4491 51.3601L35.2235 63.0205C34.9216 63.832 34.8009 64.4931 34.8009 65.0641C34.8009 65.9958 35.2838 66.4465 36.2195 66.4465C37.3363 66.4465 38.6039 65.6952 39.9622 64.1625C41.3506 62.6599 42.7088 60.5262 44.0369 57.8214C45.3649 55.1167 46.542 52.0513 47.5683 48.6253L48.2323 46.191C49.9225 46.161 51.2808 45.9506 52.2768 45.62L46.7835 63.6817C46.5722 64.3729 46.4515 64.9139 46.4515 65.2745C46.4515 65.9056 46.7835 66.2061 47.4174 66.2061C48.0814 66.2061 48.6549 65.8755 49.1981 65.2444C49.7414 64.6133 50.2847 63.5314 50.8582 62.0589L51.4317 60.5562H52.2768V60.6464Z" fill="white"/>
<path d="M62.7801 70.5337L59.1582 50.2782C58.9771 49.3466 58.7658 48.7155 58.5545 48.3248C58.313 47.9641 58.0112 47.7838 57.5887 47.7838C57.1661 47.7838 56.7435 48.0843 56.2908 48.6553C55.838 49.2564 55.2948 50.3383 54.6911 51.9311L54.0573 53.614H53.1216L54.3591 50.3383C55.506 47.2729 57.4076 45.7402 60.0335 45.7402C60.7277 45.7402 61.3012 45.8604 61.7539 46.1009C62.2066 46.3413 62.599 46.7921 62.8707 47.3931C63.1725 47.9942 63.3838 48.8357 63.5347 49.8875L66.0399 66.8673C67.8207 64.6133 69.3902 62.2091 70.688 59.6847C71.9859 57.1603 72.9216 54.6659 73.4347 52.2016C72.4386 51.7207 71.5633 51.1197 70.8088 50.4285C70.0542 49.7072 69.692 48.9258 69.692 48.0543C69.692 47.333 69.9335 46.762 70.3862 46.3713C70.8389 45.9807 71.4426 45.7703 72.1972 45.7703C73.9176 45.7703 74.7627 47.0024 74.7627 49.4367C74.7627 51.3601 74.31 53.5239 73.3743 55.9582C72.4386 58.3624 71.2313 60.7666 69.7524 63.1408C68.2734 65.5149 66.7039 67.6487 65.074 69.5119" fill="white"/>
<path d="M28.3115 90.8794C20.9469 90.8794 16.0271 87.7539 14.6386 82.0739C13.22 76.2137 16.9325 72.6674 20.5847 71.4052C24.0557 70.2031 28.5832 70.714 30.1225 74.0198C31.1185 76.1235 31.2694 77.8966 30.6356 79.279C29.881 80.8718 28.3417 81.2926 28.2813 81.2926L27.9795 80.1205C28.0097 80.1205 29.0661 79.7899 29.549 78.7381C30.0319 77.6862 29.8508 76.2738 29.0359 74.5007C27.7984 71.826 23.9652 71.4954 21.0072 72.5172C17.6871 73.6592 14.6085 76.6945 15.846 81.7734C17.7777 89.7374 26.8024 89.8576 30.5752 89.5571C48.4133 88.0845 65.5874 67.0476 65.7685 66.8372L66.7042 67.5885C66.674 67.6486 62.2673 73.0581 55.6874 78.5878C49.5905 83.6968 40.2941 89.9778 30.6658 90.7592C29.8207 90.8493 29.0359 90.8794 28.3115 90.8794Z" fill="white"/>
<path d="M29.0059 72.5472C30.5755 73.5991 31.2697 76.3639 31.4508 78.2873C31.6922 80.7215 30.9678 82.0138 29.2474 82.1941C28.523 82.2542 27.8892 82.134 27.4063 81.7734C26.8931 81.4128 26.6215 80.8718 26.5611 80.1505C26.4706 79.279 26.7724 78.4375 27.4364 77.6562C28.1005 76.8748 28.9154 76.2136 29.8812 75.6126" fill="white"/>
</svg>
