<svg width="439" height="456" viewBox="0 0 439 456" fill="none" xmlns="http://www.w3.org/2000/svg">
<path d="M216.002 128.984H218.758L203.091 178.671C200.77 186.038 196.998 191.815 191.921 196.004C186.699 200.337 180.896 202.359 174.513 202.359C167.84 202.359 163.343 200.337 160.732 196.437C158.121 192.537 157.686 187.482 159.572 181.271H162.328C161.458 183.871 161.167 186.327 161.312 188.638C161.458 192.249 162.618 194.848 164.939 196.871C167.26 198.748 170.597 199.759 174.804 199.759C180.461 199.759 185.683 197.882 190.325 193.982C194.968 190.082 198.304 185.027 200.19 178.671L216.002 128.984Z" fill="white"/>
<path d="M236.746 202.648C232.249 202.648 228.332 201.637 225.141 199.615C221.949 197.593 219.628 194.704 218.323 190.949C216.872 187.193 216.437 183.004 217.017 178.238C217.307 175.638 217.888 173.183 218.613 170.583L221.659 160.616C223.69 154.117 226.592 148.339 230.508 143.284C234.425 138.228 238.922 134.473 243.854 131.873C248.786 129.273 254.009 127.973 259.376 127.973C263.873 127.973 267.79 128.984 270.981 131.006C274.173 133.028 276.349 135.917 277.799 139.673C279.105 143.428 279.54 147.617 279.105 152.239C278.815 154.983 278.235 157.728 277.364 160.327L274.318 170.294C272.432 176.36 269.531 181.993 265.759 186.904C261.842 191.96 257.49 195.715 252.413 198.459C247.626 201.348 242.259 202.648 236.746 202.648ZM276.639 152.961C277.509 146.028 276.349 140.684 273.302 136.784C270.256 132.884 265.614 130.862 259.376 130.862C251.688 130.862 244.725 133.606 238.342 139.095C232.104 144.584 227.462 151.95 224.706 160.905L221.514 171.016C220.789 173.183 220.354 175.494 220.064 177.66C219.193 184.449 220.209 189.937 223.255 193.837C226.301 197.882 230.943 199.904 237.181 199.904C241.968 199.904 246.61 198.748 250.962 196.582C255.459 194.271 259.521 190.949 263.003 186.471C266.629 181.993 269.386 176.794 271.417 171.016L274.898 160.039C275.769 157.872 276.204 155.417 276.639 152.961Z" fill="white"/>
<path d="M351.638 129.417L336.261 178.238C333.94 185.749 329.733 191.671 323.786 196.148C317.838 200.626 311.02 202.793 303.476 202.793C298.689 202.793 294.627 201.781 291.436 199.759C288.245 197.737 286.069 194.848 285.053 191.093C284.038 187.338 284.183 183.149 285.633 178.382L301.155 129.129H303.912L288.535 178.382C286.649 184.738 287.084 189.937 289.985 193.982C292.887 198.026 297.529 200.048 303.912 200.048C310.73 200.048 316.822 198.026 322.19 193.982C327.702 189.937 331.474 184.449 333.65 177.66L348.882 129.273L351.638 129.417Z" fill="white"/>
<path d="M383.117 171.016L357.585 170.872L347.866 201.926H345.11L367.885 129.417L391.241 129.562C395.883 129.562 399.654 130.573 402.846 132.306C406.037 134.04 408.213 136.639 409.229 139.673C410.389 142.85 410.244 146.461 409.084 150.506C407.488 155.417 404.732 159.75 400.525 163.361C396.318 166.972 391.531 169.283 386.163 170.438L396.028 201.493L395.883 202.215H392.981L383.117 171.016ZM358.456 168.272L380.796 168.416C386.598 168.416 391.821 166.827 396.463 163.361C401.105 159.894 404.441 155.705 406.182 150.506C407.923 145.017 407.343 140.539 404.296 137.217C401.25 133.895 396.463 132.162 389.79 132.162H369.626L358.456 168.272Z" fill="white"/>
<path d="M189.89 93.741L153.914 93.5966L138.827 115.262H135.636L185.973 42.8984H189.31L194.242 115.551H191.196L189.89 93.741ZM155.655 90.9967L189.6 91.1411L186.844 46.2205L155.655 90.9967Z" fill="white"/>
<path d="M278.525 43.1873L263.148 92.0077C260.827 99.5186 256.62 105.441 250.672 109.918C244.725 114.396 237.907 116.562 230.363 116.562C225.576 116.562 221.514 115.551 218.323 113.529C215.131 111.507 212.955 108.618 211.94 104.863C210.924 101.107 211.069 96.9187 212.52 92.1522L228.042 42.8984H230.798L215.421 92.1522C213.536 98.5075 213.971 103.707 216.872 107.752C219.773 111.796 224.415 113.818 230.798 113.818C237.616 113.818 243.709 111.796 249.076 107.752C254.444 103.707 258.361 98.2186 260.537 91.43L275.623 43.1873H278.525Z" fill="white"/>
<path d="M129.978 291.478L125.046 305.778C122.58 313 119.098 318.199 114.746 321.377C110.249 324.41 105.462 325.999 100.385 325.999C96.0331 325.999 92.6966 324.988 90.3755 322.821C88.0545 320.655 86.894 317.622 86.894 313.722C86.894 310.255 87.7644 305.2 89.6502 298.556L92.4065 288.734C85.7335 301.878 78.9154 311.411 71.9523 317.188C65.1342 323.11 57.7359 325.999 50.0475 325.999C43.0844 325.999 37.717 323.833 33.8002 319.499C29.8834 315.166 27.8525 308.666 27.8525 300C27.8525 289.167 30.8989 277.468 37.1367 264.757C43.3745 252.046 51.6432 241.358 62.2329 232.691C72.8227 224.025 84.2828 219.692 96.6133 219.692C99.3696 219.692 101.981 220.559 104.447 222.147C106.913 223.736 108.654 226.047 109.669 229.08L128.092 172.894C128.673 170.871 128.963 169.138 128.963 167.694C128.963 165.094 127.802 163.216 125.626 161.916C123.45 160.616 119.679 160.039 114.456 160.039L115.762 155.994C123.305 155.994 130.123 155.272 136.071 153.828C142.019 152.528 147.821 150.506 153.479 147.906L103.867 306.5C102.996 309.1 102.561 311.411 102.561 313.144C102.561 316.755 104.302 318.633 107.638 318.633C110.54 318.633 113.151 317.188 115.472 314.155C117.938 311.122 120.404 305.922 123.16 298.7L125.771 291.478H129.978ZM103.722 226.625C101.691 225.036 99.3696 224.17 96.7584 224.17C88.1996 224.17 79.9309 228.358 72.2424 236.88C64.554 245.402 58.3162 255.802 53.6741 268.079C49.032 280.356 46.711 291.911 46.711 302.6C46.711 314.011 49.9024 319.644 56.1402 319.644C60.202 319.644 64.9892 317.044 70.5016 311.7C76.0141 306.355 81.5266 299.278 86.894 290.323C92.2614 281.367 96.7584 271.69 100.24 261.435L108.219 234.28C107.348 230.814 105.752 228.358 103.722 226.625Z" fill="white"/>
<path d="M251.252 291.478L245.885 305.778C240.808 319.211 232.104 325.999 220.063 325.999C217.742 325.999 215.566 325.566 213.535 324.555C211.505 323.688 210.054 322.244 209.184 320.51C208.313 318.922 207.878 316.899 207.878 314.444C207.878 310.977 208.893 305.633 210.924 298.411L217.742 273.857C212.085 286.423 206.572 296.678 201.205 304.189C195.838 311.844 190.615 317.333 185.103 320.799C179.735 324.266 173.933 325.855 167.84 325.855C155.8 325.855 149.852 320.799 149.852 310.689C149.852 306.644 150.867 301.733 153.043 296.1L173.643 238.902C174.803 235.725 175.238 233.269 175.238 231.536C175.238 228.358 173.643 226.769 170.306 226.769C167.405 226.769 164.649 228.214 162.037 231.247C159.426 234.28 156.67 239.336 153.914 246.847L151.158 254.068H147.096L152.463 239.769C157.395 226.336 166.099 219.548 178.14 219.548C188.149 219.548 193.081 223.592 193.081 231.68C193.081 235.291 191.921 240.347 189.6 246.847L169.291 302.889C167.84 306.789 167.26 309.966 167.26 312.711C167.26 317.188 169.581 319.355 174.078 319.355C179.445 319.355 185.538 315.744 192.066 308.378C198.739 301.156 205.267 290.9 211.65 277.901C218.032 264.901 223.69 250.169 228.622 233.703L231.814 222.003C239.937 221.859 246.465 220.847 251.252 219.259L224.851 306.067C223.835 309.389 223.255 311.989 223.255 313.722C223.255 316.755 224.851 318.199 227.897 318.199C231.088 318.199 233.845 316.611 236.456 313.577C239.067 310.544 241.678 305.344 244.434 298.267L247.191 291.045H251.252V291.478Z" fill="white"/>
<path d="M301.735 338.999L284.327 241.647C283.457 237.169 282.442 234.136 281.426 232.258C280.266 230.525 278.815 229.658 276.784 229.658C274.753 229.658 272.722 231.103 270.546 233.847C268.37 236.736 265.759 241.936 262.858 249.591L259.811 257.679H255.314L261.262 241.936C266.775 227.203 275.914 219.836 288.534 219.836C291.871 219.836 294.627 220.414 296.803 221.57C298.979 222.725 300.865 224.892 302.17 227.781C303.621 230.669 304.637 234.714 305.362 239.769L317.402 321.377C325.961 310.544 333.504 298.989 339.742 286.856C345.98 274.723 350.477 262.735 352.943 250.891C348.156 248.58 343.949 245.691 340.323 242.369C336.696 238.902 334.955 235.147 334.955 230.958C334.955 227.492 336.116 224.747 338.292 222.87C340.468 220.992 343.369 219.981 346.996 219.981C355.264 219.981 359.326 225.903 359.326 237.602C359.326 246.847 357.15 257.246 352.653 268.946C348.156 280.501 342.353 292.056 335.245 303.467C328.137 314.877 320.594 325.133 312.76 334.088" fill="white"/>
<path d="M136.071 436.784C100.675 436.784 77.0294 421.762 70.3564 394.463C63.5383 366.298 81.3813 349.254 98.9342 343.187C115.617 337.41 137.376 339.865 144.775 355.754C149.562 365.864 150.287 374.386 147.241 381.03C143.614 388.686 136.216 390.708 135.926 390.708L134.475 385.075C134.62 385.075 139.697 383.486 142.018 378.431C144.34 373.375 143.469 366.587 139.552 358.065C133.605 345.21 115.181 343.621 100.965 348.532C85.0079 354.02 70.2113 368.609 76.159 393.019C85.4431 431.295 128.818 431.873 146.951 430.429C232.684 423.351 315.226 322.244 316.096 321.233L320.593 324.844C320.448 325.133 299.269 351.132 267.645 377.708C238.342 402.263 193.662 432.451 147.386 436.206C143.324 436.64 139.552 436.784 136.071 436.784Z" fill="white"/>
<path d="M139.407 348.676C146.951 353.732 150.287 367.02 151.158 376.264C152.318 387.964 148.837 394.174 140.568 395.041C137.086 395.33 134.04 394.752 131.719 393.019C129.253 391.286 127.947 388.686 127.657 385.219C127.222 381.031 128.673 376.986 131.864 373.231C135.055 369.475 138.972 366.298 143.614 363.409" fill="white"/>
</svg>
