<svg width="537" height="155" viewBox="0 0 537 155" fill="none" xmlns="http://www.w3.org/2000/svg">
<rect width="448" height="155" rx="20" fill="#BF462E"/>
<rect x="16.5384" y="68.5007" width="410.989" height="58.0198" rx="29.0099" transform="rotate(0.0757606 16.5384 68.5007)" fill="white" stroke="#86665C"/>
<path d="M40.6611 102.179C40.6615 101.847 40.6098 101.554 40.506 101.3C40.4087 101.039 40.2332 100.804 39.9796 100.596C39.7325 100.387 39.3877 100.188 38.9452 99.9986C38.5093 99.8093 37.9562 99.6165 37.2858 99.4203C36.583 99.211 35.9485 98.9791 35.3825 98.7244C34.8164 98.4632 34.3318 98.1664 33.9286 97.8338C33.5254 97.5012 33.2166 97.12 33.0023 96.69C32.7881 96.26 32.6813 95.7684 32.682 95.215C32.6828 94.6616 32.7974 94.1507 33.0258 93.6822C33.2543 93.2138 33.5804 92.8073 34.004 92.4628C34.4342 92.1118 34.9456 91.8391 35.5383 91.6445C36.131 91.45 36.7919 91.3532 37.5211 91.3542C38.5888 91.3556 39.4935 91.5619 40.2351 91.973C40.9833 92.3776 41.5523 92.909 41.942 93.5671C42.3318 94.2186 42.5262 94.9155 42.5252 95.6577L40.6502 95.6552C40.6509 95.1213 40.5376 94.6492 40.3103 94.2387C40.083 93.8218 39.7383 93.4958 39.2764 93.2608C38.8145 93.0193 38.2287 92.8981 37.5191 92.8971C36.8485 92.8963 36.295 92.9964 35.8585 93.1977C35.4221 93.3989 35.0962 93.6719 34.8809 94.0167C34.6721 94.3615 34.5674 94.7552 34.5668 95.1979C34.5664 95.4974 34.6279 95.7709 34.7513 96.0185C34.8812 96.2595 35.0794 96.4844 35.3461 96.6931C35.6192 96.9018 35.964 97.0943 36.3805 97.2706C36.8034 97.447 37.3078 97.6169 37.8935 97.7805C38.7005 98.0094 39.3967 98.2642 39.9823 98.5449C40.5679 98.8257 41.0492 99.142 41.4264 99.4941C41.81 99.8397 42.0927 100.234 42.2744 100.677C42.4626 101.113 42.5564 101.608 42.5557 102.162C42.5549 102.741 42.437 103.265 42.202 103.733C41.967 104.202 41.6312 104.602 41.1946 104.933C40.7579 105.265 40.2335 105.521 39.6213 105.703C39.0156 105.878 38.3384 105.965 37.5897 105.964C36.9321 105.963 36.2845 105.871 35.6467 105.688C35.0154 105.505 34.4396 105.23 33.9193 104.865C33.4054 104.5 32.9926 104.05 32.6808 103.516C32.3755 102.975 32.2234 102.35 32.2243 101.64L34.0993 101.643C34.0987 102.131 34.1925 102.551 34.3808 102.903C34.5692 103.248 34.826 103.535 35.1512 103.763C35.4829 103.991 35.857 104.161 36.2736 104.272C36.6966 104.377 37.136 104.43 37.5917 104.43C38.2493 104.431 38.806 104.341 39.262 104.159C39.718 103.978 40.0634 103.718 40.2982 103.379C40.5395 103.041 40.6605 102.641 40.6611 102.179ZM50.9126 103.979L50.9198 98.5399C50.9204 98.1232 50.8362 97.7618 50.6674 97.4555C50.505 97.1428 50.2579 96.9016 49.9261 96.7319C49.5943 96.5622 49.1843 96.477 48.696 96.4764C48.2403 96.4758 47.8398 96.5534 47.4945 96.7092C47.1558 96.865 46.8886 97.0697 46.6929 97.3233C46.5038 97.577 46.409 97.8503 46.4086 98.1433L44.602 98.1409C44.6025 97.7633 44.7006 97.3891 44.8964 97.0182C45.0922 96.6474 45.3726 96.3125 45.7376 96.0135C46.1091 95.708 46.5521 95.4677 47.0667 95.2926C47.5878 95.111 48.1673 95.0206 48.8053 95.0214C49.5736 95.0225 50.2505 95.1536 50.8361 95.4148C51.4282 95.676 51.8899 96.0704 52.2212 96.5982C52.5591 97.1195 52.7275 97.774 52.7264 98.5618L52.7199 103.484C52.7195 103.835 52.7483 104.21 52.8063 104.607C52.8709 105.004 52.9649 105.346 53.0882 105.633L53.088 105.789L51.2032 105.786C51.1123 105.578 51.0411 105.301 50.9895 104.956C50.9379 104.604 50.9122 104.279 50.9126 103.979ZM51.2312 99.3801L51.2491 100.65L49.4229 100.647C48.9086 100.647 48.4495 100.688 48.0458 100.772C47.642 100.85 47.3033 100.97 47.0297 101.132C46.756 101.295 46.5474 101.5 46.4039 101.747C46.2603 101.987 46.1883 102.271 46.1879 102.596C46.1875 102.928 46.2619 103.231 46.4113 103.505C46.5607 103.778 46.785 103.997 47.0843 104.16C47.3901 104.316 47.7643 104.395 48.207 104.396C48.7604 104.396 49.2488 104.28 49.6723 104.046C50.0958 103.812 50.4315 103.526 50.6793 103.188C50.9337 102.85 51.0708 102.521 51.0908 102.202L51.8611 103.072C51.8152 103.346 51.6911 103.648 51.4888 103.98C51.2865 104.312 51.0159 104.63 50.677 104.936C50.3446 105.235 49.9471 105.485 49.4846 105.686C49.0286 105.881 48.5142 105.978 47.9412 105.977C47.2251 105.976 46.597 105.836 46.057 105.555C45.5235 105.274 45.1074 104.899 44.8085 104.43C44.5162 103.955 44.3704 103.424 44.3712 102.838C44.3719 102.271 44.4833 101.774 44.7052 101.344C44.9271 100.908 45.2466 100.547 45.6636 100.261C46.0807 99.969 46.5823 99.7483 47.1684 99.5994C47.7546 99.4504 48.409 99.3764 49.1316 99.3773L51.2312 99.3801ZM57.5355 95.2283L57.5216 105.795L55.7052 105.792L55.7191 95.2259L57.5355 95.2283ZM55.5861 92.423C55.5865 92.13 55.6747 91.8827 55.8508 91.6811C56.0333 91.4796 56.3004 91.379 56.652 91.3795C56.997 91.3799 57.2605 91.4812 57.4426 91.6833C57.6311 91.8853 57.7252 92.1328 57.7248 92.4258C57.7244 92.7058 57.6297 92.9465 57.4406 93.1481C57.2581 93.3432 56.9943 93.4405 56.6492 93.44C56.2977 93.4396 56.0309 93.3415 55.8488 93.146C55.6733 92.9439 55.5858 92.7029 55.5861 92.423ZM66.578 103.004C66.5783 102.744 66.5201 102.503 66.4032 102.281C66.2928 102.053 66.062 101.848 65.7106 101.665C65.3658 101.476 64.8452 101.312 64.1488 101.175C63.563 101.05 63.0326 100.903 62.5576 100.733C62.089 100.563 61.6889 100.357 61.3572 100.116C61.032 99.8749 60.7817 99.5913 60.6064 99.2656C60.431 98.9398 60.3436 98.5588 60.3442 98.1226C60.3448 97.706 60.4364 97.3122 60.6192 96.9414C60.8085 96.5705 61.0726 96.2421 61.4115 95.9561C61.757 95.6701 62.1707 95.446 62.6527 95.2839C63.1346 95.1218 63.6719 95.0411 64.2643 95.0419C65.1107 95.043 65.8331 95.1937 66.4317 95.494C67.0302 95.7942 67.4887 96.1952 67.807 96.697C68.1254 97.1922 68.2842 97.7425 68.2834 98.348L66.4767 98.3456C66.4771 98.0526 66.3896 97.7693 66.2142 97.4956C66.0453 97.2155 65.7949 96.984 65.4632 96.8013C65.1379 96.6186 64.7376 96.5269 64.2623 96.5263C63.761 96.5256 63.354 96.6032 63.0413 96.759C62.7351 96.9084 62.5103 97.1001 62.3667 97.3343C62.2297 97.5685 62.161 97.8158 62.1607 98.0762C62.1604 98.2715 62.1927 98.4473 62.2576 98.6037C62.3291 98.7535 62.4526 98.8937 62.6282 99.0241C62.8038 99.148 63.051 99.2655 63.3699 99.3766C63.6888 99.4877 64.0955 99.599 64.5902 99.7103C65.4558 99.9067 66.1684 100.142 66.7279 100.416C67.2874 100.69 67.7037 101.026 67.9766 101.424C68.2495 101.821 68.3856 102.303 68.3848 102.87C68.3842 103.332 68.286 103.755 68.0902 104.139C67.9009 104.523 67.6237 104.854 67.2588 105.134C66.9003 105.407 66.4704 105.621 65.9689 105.777C65.4739 105.926 64.9171 106 64.2986 105.999C63.3677 105.998 62.5801 105.831 61.936 105.498C61.2919 105.165 60.8042 104.735 60.4729 104.207C60.1416 103.679 59.9763 103.122 59.9771 102.536L61.7935 102.539C61.8188 103.033 61.9616 103.428 62.2216 103.721C62.4816 104.008 62.8004 104.213 63.1778 104.337C63.5552 104.455 63.9295 104.514 64.3006 104.515C64.7954 104.515 65.2089 104.451 65.5411 104.321C65.8798 104.191 66.1372 104.012 66.3133 103.785C66.4894 103.557 66.5776 103.297 66.578 103.004ZM72.7308 95.2484L72.7169 105.815L70.9005 105.812L70.9144 95.246L72.7308 95.2484ZM70.7814 92.4431C70.7818 92.1501 70.87 91.9028 71.0461 91.7012C71.2286 91.4997 71.4957 91.3991 71.8473 91.3996C72.1923 91.4 72.4558 91.5013 72.6379 91.7033C72.8264 91.9054 72.9205 92.1529 72.9201 92.4459C72.9197 92.7259 72.825 92.9666 72.6359 93.1682C72.4534 93.3633 72.1896 93.4606 71.8445 93.4601C71.493 93.4596 71.2262 93.3616 71.0441 93.1661C70.8686 92.964 70.7811 92.723 70.7814 92.4431ZM77.4357 96.9148L77.4239 105.821L75.6173 105.819L75.6312 95.2522L77.389 95.2546L77.4357 96.9148ZM80.7387 95.2004L80.7267 96.8801C80.577 96.8473 80.4338 96.8276 80.2971 96.8209C80.1669 96.8077 80.0172 96.801 79.8479 96.8008C79.4313 96.8002 79.0633 96.8648 78.7442 96.9946C78.425 97.1244 78.1546 97.3063 77.9329 97.5404C77.7112 97.7745 77.5351 98.0542 77.4044 98.3796C77.2803 98.6984 77.1985 99.0499 77.1589 99.4339L76.6507 99.7262C76.6515 99.0882 76.7142 98.4893 76.8386 97.9296C76.9696 97.3699 77.1688 96.8754 77.4363 96.446C77.7038 96.0102 78.0428 95.6721 78.4533 95.4317C78.8703 95.1849 79.3652 95.0619 79.9381 95.0626C80.0683 95.0628 80.218 95.0793 80.3873 95.112C80.5565 95.1383 80.6737 95.1677 80.7387 95.2004ZM90.5706 104.208L93.473 95.2758L95.3187 95.2783L91.5059 105.84L90.295 105.838L90.5706 104.208ZM88.1703 95.2688L91.1369 104.257L91.3399 105.839L90.129 105.838L86.3148 95.2664L88.1703 95.2688ZM96.4151 100.68L96.4154 100.455C96.4164 99.6938 96.528 98.9875 96.7502 98.3368C96.9724 97.6795 97.2922 97.1103 97.7095 96.6291C98.1268 96.1413 98.6319 95.7644 99.2247 95.4983C99.8175 95.2256 100.482 95.0898 101.217 95.0907C101.96 95.0917 102.627 95.2293 103.219 95.5035C103.817 95.7713 104.325 96.1495 104.741 96.6384C105.163 97.1207 105.485 97.6908 105.705 98.3486C105.926 99 106.036 99.7065 106.035 100.468L106.034 100.693C106.033 101.455 105.922 102.161 105.699 102.812C105.477 103.462 105.154 104.032 104.73 104.519C104.313 105 103.808 105.377 103.215 105.65C102.629 105.916 101.965 106.049 101.222 106.048C100.48 106.047 99.8131 105.912 99.221 105.645C98.6289 105.371 98.1216 104.992 97.6991 104.51C97.2831 104.021 96.9648 103.451 96.7443 102.8C96.5238 102.148 96.4141 101.442 96.4151 100.68ZM98.222 100.458L98.2217 100.682C98.221 101.21 98.2822 101.708 98.4053 102.177C98.5284 102.639 98.7134 103.05 98.9603 103.408C99.2137 103.766 99.5291 104.05 99.9064 104.259C100.284 104.461 100.723 104.563 101.224 104.563C101.719 104.564 102.152 104.464 102.524 104.262C102.902 104.055 103.214 103.772 103.462 103.414C103.71 103.056 103.896 102.646 104.021 102.184C104.151 101.716 104.217 101.218 104.218 100.69L104.218 100.466C104.219 99.945 104.154 99.4534 104.025 98.9909C103.902 98.522 103.713 98.1084 103.46 97.75C103.213 97.3851 102.901 97.0982 102.524 96.8893C102.153 96.6805 101.717 96.5758 101.215 96.5751C100.721 96.5745 100.284 96.6781 99.9064 96.8859C99.5351 97.0937 99.2222 97.3798 98.9678 97.744C98.7199 98.1018 98.5338 98.5149 98.4095 98.9835C98.2852 99.4456 98.2227 99.937 98.222 100.458ZM112.731 95.3013L112.729 96.688L107.016 96.6804L107.018 95.2937L112.731 95.3013ZM108.955 92.7279L110.762 92.7303L110.748 103.248C110.747 103.606 110.802 103.876 110.913 104.059C111.023 104.241 111.166 104.362 111.342 104.421C111.517 104.479 111.706 104.509 111.908 104.509C112.058 104.509 112.214 104.497 112.377 104.471C112.546 104.438 112.673 104.413 112.758 104.393L112.766 105.868C112.622 105.913 112.434 105.955 112.199 105.994C111.971 106.039 111.694 106.062 111.369 106.061C110.926 106.061 110.519 105.972 110.149 105.796C109.778 105.62 109.482 105.326 109.261 104.916C109.047 104.499 108.94 103.939 108.941 103.236L108.955 92.7279ZM116.654 96.9666L116.643 105.873L114.836 105.87L114.85 95.3041L116.608 95.3064L116.654 96.9666ZM119.957 95.2522L119.945 96.9319C119.796 96.8992 119.653 96.8794 119.516 96.8728C119.386 96.8596 119.236 96.8529 119.067 96.8526C118.65 96.8521 118.282 96.9167 117.963 97.0465C117.644 97.1763 117.373 97.3582 117.152 97.5923C116.93 97.8264 116.754 98.1061 116.623 98.4314C116.499 98.7503 116.417 99.1017 116.378 99.4858L115.869 99.7781C115.87 99.1401 115.933 98.5412 116.057 97.9815C116.188 97.4217 116.388 96.9272 116.655 96.4979C116.923 96.062 117.261 95.7239 117.672 95.4836C118.089 95.2368 118.584 95.1137 119.157 95.1145C119.287 95.1146 119.437 95.1311 119.606 95.1639C119.775 95.1902 119.892 95.2196 119.957 95.2522ZM125.802 106.08C125.067 106.079 124.4 105.955 123.801 105.707C123.209 105.452 122.698 105.096 122.269 104.64C121.847 104.184 121.522 103.643 121.295 103.018C121.068 102.392 120.955 101.709 120.956 100.966L120.956 100.556C120.957 99.6969 121.085 98.9321 121.34 98.2619C121.595 97.5851 121.941 97.0127 122.378 96.5445C122.814 96.0763 123.31 95.7222 123.863 95.482C124.417 95.2419 124.99 95.1222 125.583 95.123C126.338 95.124 126.989 95.255 127.535 95.5162C128.088 95.7773 128.54 96.1425 128.891 96.6117C129.242 97.0744 129.502 97.6216 129.67 98.2534C129.839 98.8786 129.922 99.5623 129.921 100.304L129.92 101.115L122.03 101.105L122.032 99.63L128.116 99.638L128.116 99.5013C128.09 99.0325 127.993 98.5767 127.825 98.1337C127.663 97.6908 127.403 97.3259 127.045 97.039C126.687 96.752 126.199 96.6082 125.581 96.6073C125.17 96.6068 124.793 96.6942 124.447 96.8695C124.102 97.0383 123.806 97.2918 123.558 97.6301C123.31 97.9683 123.117 98.3814 122.98 98.8695C122.843 99.3576 122.774 99.9207 122.773 100.559L122.772 100.969C122.771 101.47 122.839 101.942 122.975 102.385C123.118 102.822 123.323 103.206 123.589 103.538C123.862 103.871 124.19 104.132 124.574 104.321C124.965 104.51 125.407 104.605 125.902 104.606C126.54 104.607 127.081 104.477 127.524 104.217C127.967 103.958 128.355 103.61 128.687 103.174L129.78 104.045C129.551 104.389 129.261 104.718 128.909 105.03C128.557 105.342 128.124 105.595 127.61 105.79C127.101 105.984 126.499 106.081 125.802 106.08ZM138.803 96.9959L138.791 105.902L136.984 105.9L136.998 95.3334L138.756 95.3357L138.803 96.9959ZM142.106 95.2815L142.094 96.9612C141.944 96.9285 141.801 96.9087 141.664 96.902C141.534 96.8888 141.384 96.8821 141.215 96.8819C140.798 96.8814 140.43 96.946 140.111 97.0758C139.792 97.2056 139.522 97.3875 139.3 97.6216C139.078 97.8557 138.902 98.1354 138.772 98.4607C138.647 98.7796 138.566 99.131 138.526 99.5151L138.018 99.8074C138.019 99.1694 138.081 98.5705 138.206 98.0107C138.337 97.451 138.536 96.9565 138.803 96.5272C139.071 96.0913 139.41 95.7532 139.82 95.5129C140.237 95.266 140.732 95.143 141.305 95.1438C141.435 95.1439 141.585 95.1604 141.754 95.1932C141.924 95.2194 142.041 95.2489 142.106 95.2815ZM147.951 106.11C147.215 106.109 146.548 105.984 145.949 105.736C145.357 105.481 144.847 105.126 144.418 104.669C143.995 104.213 143.67 103.672 143.443 103.047C143.216 102.422 143.103 101.738 143.104 100.996L143.105 100.586C143.106 99.7262 143.234 98.9614 143.489 98.2912C143.743 97.6144 144.089 97.042 144.526 96.5738C144.963 96.1056 145.458 95.7515 146.012 95.5113C146.566 95.2712 147.139 95.1515 147.731 95.1522C148.486 95.1532 149.137 95.2843 149.684 95.5455C150.237 95.8066 150.689 96.1718 151.04 96.641C151.391 97.1037 151.65 97.6509 151.819 98.2827C151.987 98.9079 152.071 99.5916 152.07 100.334L152.069 101.144L144.178 101.134L144.18 99.6593L150.264 99.6673L150.264 99.5306C150.239 99.0618 150.142 98.606 149.973 98.163C149.811 97.7201 149.551 97.3552 149.193 97.0682C148.836 96.7813 148.348 96.6374 147.729 96.6366C147.319 96.6361 146.941 96.7235 146.596 96.8988C146.251 97.0676 145.954 97.3211 145.706 97.6593C145.458 97.9976 145.266 98.4107 145.128 98.8988C144.991 99.3869 144.922 99.95 144.921 100.588L144.921 100.998C144.92 101.499 144.988 101.972 145.124 102.414C145.266 102.851 145.471 103.235 145.737 103.568C146.01 103.9 146.339 104.161 146.723 104.35C147.113 104.539 147.556 104.634 148.051 104.635C148.689 104.636 149.229 104.506 149.672 104.247C150.115 103.987 150.503 103.639 150.836 103.203L151.928 104.074C151.7 104.419 151.41 104.747 151.058 105.059C150.706 105.371 150.273 105.624 149.758 105.819C149.25 106.014 148.648 106.111 147.951 106.11ZM158.402 104.639C158.832 104.64 159.229 104.552 159.594 104.377C159.959 104.202 160.258 103.961 160.493 103.655C160.728 103.343 160.862 102.989 160.895 102.592L162.614 102.594C162.58 103.219 162.368 103.801 161.977 104.341C161.592 104.874 161.087 105.307 160.461 105.638C159.836 105.963 159.149 106.124 158.4 106.123C157.606 106.122 156.913 105.981 156.321 105.701C155.735 105.42 155.247 105.035 154.857 104.546C154.474 104.058 154.185 103.497 153.99 102.866C153.802 102.227 153.709 101.553 153.71 100.844L153.71 100.434C153.711 99.724 153.807 99.0535 153.996 98.4223C154.192 97.7845 154.483 97.2217 154.868 96.734C155.259 96.2462 155.748 95.8627 156.334 95.5835C156.927 95.3044 157.62 95.1653 158.415 95.1664C159.241 95.1675 159.964 95.3377 160.582 95.6771C161.2 96.0099 161.684 96.4663 162.035 97.0462C162.392 97.6196 162.587 98.2709 162.619 99.0001L160.9 98.9978C160.868 98.5615 160.745 98.1675 160.53 97.8157C160.322 97.4638 160.036 97.1835 159.672 96.9747C159.314 96.7594 158.894 96.6514 158.413 96.6507C157.859 96.65 157.394 96.7601 157.016 96.9809C156.644 97.1953 156.348 97.4879 156.126 97.8587C155.911 98.223 155.754 98.6297 155.656 99.0787C155.564 99.5213 155.518 99.9737 155.517 100.436L155.516 100.846C155.516 101.308 155.561 101.764 155.651 102.214C155.742 102.663 155.894 103.07 156.109 103.435C156.33 103.8 156.625 104.093 156.996 104.315C157.374 104.53 157.842 104.638 158.402 104.639ZM166.467 90.9387L166.447 105.939L164.641 105.936L164.66 90.9363L166.467 90.9387ZM166.025 100.255L165.273 100.224C165.281 99.5016 165.389 98.8345 165.598 98.2228C165.807 97.6045 166.101 97.0678 166.479 96.6126C166.857 96.1574 167.307 95.8064 167.828 95.5597C168.356 95.3065 168.939 95.1803 169.577 95.1811C170.098 95.1818 170.566 95.2541 170.983 95.3978C171.399 95.5351 171.754 95.7569 172.046 96.0633C172.345 96.3697 172.573 96.7671 172.728 97.2556C172.884 97.7376 172.961 98.3269 172.96 99.0235L172.951 105.947L171.135 105.945L171.144 99.0016C171.145 98.4482 171.064 98.0054 170.902 97.6731C170.739 97.3344 170.502 97.0899 170.19 96.9398C169.877 96.7831 169.493 96.7045 169.038 96.7039C168.588 96.7033 168.178 96.7971 167.807 96.9854C167.442 97.1738 167.126 97.4338 166.858 97.7654C166.598 98.0971 166.392 98.4777 166.242 98.9072C166.098 99.3302 166.026 99.7793 166.025 100.255ZM180.041 106.152C179.305 106.151 178.638 106.026 178.039 105.778C177.447 105.524 176.937 105.168 176.507 104.712C176.085 104.256 175.76 103.715 175.533 103.089C175.306 102.464 175.193 101.78 175.194 101.038L175.195 100.628C175.196 99.7686 175.324 99.0038 175.578 98.3336C175.833 97.6569 176.179 97.0844 176.616 96.6162C177.053 96.1481 177.548 95.7939 178.102 95.5537C178.655 95.3136 179.228 95.1939 179.821 95.1947C180.576 95.1957 181.227 95.3267 181.773 95.5879C182.326 95.849 182.778 96.2142 183.129 96.6834C183.48 97.1461 183.74 97.6934 183.909 98.3251C184.077 98.9503 184.161 99.634 184.16 100.376L184.159 101.187L176.268 101.176L176.27 99.7017L182.354 99.7098L182.354 99.573C182.329 99.1042 182.232 98.6484 182.063 98.2055C181.901 97.7625 181.641 97.3976 181.283 97.1107C180.925 96.8237 180.437 96.6799 179.819 96.6791C179.409 96.6785 179.031 96.7659 178.686 96.9412C178.34 97.11 178.044 97.3636 177.796 97.7018C177.548 98.04 177.356 98.4531 177.218 98.9412C177.081 99.4293 177.012 99.9924 177.011 100.63L177.01 101.041C177.01 101.542 177.077 102.014 177.214 102.457C177.356 102.893 177.561 103.278 177.827 103.61C178.1 103.942 178.429 104.203 178.813 104.393C179.203 104.582 179.646 104.677 180.14 104.678C180.778 104.678 181.319 104.549 181.762 104.289C182.205 104.029 182.593 103.681 182.925 103.246L184.018 104.116C183.79 104.461 183.5 104.789 183.148 105.101C182.796 105.413 182.362 105.667 181.848 105.861C181.34 106.056 180.737 106.153 180.041 106.152ZM188.08 97.0611L188.068 105.967L186.262 105.965L186.276 95.3985L188.033 95.4009L188.08 97.0611ZM191.383 95.3467L191.371 97.0264C191.221 96.9936 191.078 96.9739 190.942 96.9672C190.811 96.954 190.662 96.9473 190.492 96.9471C190.076 96.9465 189.708 97.0111 189.389 97.1409C189.069 97.2707 188.799 97.4526 188.577 97.6867C188.356 97.9208 188.18 98.2005 188.049 98.5259C187.925 98.8447 187.843 99.1962 187.803 99.5802L187.295 99.8725C187.296 99.2345 187.359 98.6356 187.483 98.0759C187.614 97.5162 187.813 97.0217 188.081 96.5923C188.348 96.1565 188.687 95.8184 189.098 95.578C189.515 95.3312 190.01 95.2082 190.583 95.2089C190.713 95.2091 190.862 95.2256 191.032 95.2583C191.201 95.2846 191.318 95.314 191.383 95.3467ZM197.074 104.69C197.504 104.691 197.901 104.603 198.266 104.428C198.63 104.253 198.93 104.012 199.165 103.707C199.4 103.394 199.534 103.04 199.567 102.643L201.286 102.645C201.252 103.27 201.04 103.852 200.649 104.392C200.264 104.925 199.759 105.358 199.133 105.689C198.508 106.014 197.821 106.176 197.072 106.175C196.278 106.173 195.585 106.033 194.992 105.752C194.407 105.471 193.919 105.086 193.529 104.598C193.146 104.109 192.857 103.549 192.662 102.917C192.474 102.278 192.381 101.605 192.382 100.895L192.382 100.485C192.383 99.7751 192.478 99.1046 192.668 98.4734C192.864 97.8356 193.155 97.2729 193.539 96.7851C193.931 96.2973 194.42 95.9139 195.006 95.6347C195.599 95.3555 196.292 95.2165 197.086 95.2175C197.913 95.2186 198.636 95.3888 199.254 95.7282C199.872 96.061 200.356 96.5174 200.707 97.0973C201.064 97.6707 201.259 98.322 201.29 99.0512L199.572 99.0489C199.54 98.6127 199.416 98.2186 199.202 97.8668C198.994 97.515 198.708 97.2346 198.344 97.0258C197.986 96.8105 197.566 96.7025 197.084 96.7019C196.531 96.7012 196.065 96.8112 195.688 97.0321C195.316 97.2464 195.02 97.539 194.798 97.9098C194.582 98.2741 194.426 98.6808 194.327 99.1299C194.236 99.5725 194.189 100.025 194.189 100.487L194.188 100.897C194.188 101.36 194.233 101.815 194.323 102.265C194.414 102.714 194.566 103.121 194.781 103.486C195.001 103.851 195.297 104.144 195.668 104.366C196.045 104.581 196.514 104.689 197.074 104.69ZM205.139 90.9899L205.119 105.99L203.312 105.987L203.332 90.9875L205.139 90.9899ZM204.697 100.306L203.945 100.275C203.952 99.5528 204.061 98.8856 204.27 98.2739C204.479 97.6557 204.773 97.119 205.151 96.6637C205.529 96.2085 205.979 95.8575 206.5 95.6108C207.028 95.3576 207.611 95.2314 208.249 95.2323C208.769 95.233 209.238 95.3052 209.655 95.449C210.071 95.5862 210.426 95.8081 210.718 96.1144C211.017 96.4208 211.245 96.8183 211.4 97.3068C211.556 97.7887 211.633 98.378 211.632 99.0746L211.623 105.998L209.807 105.996L209.816 99.0527C209.817 98.4993 209.736 98.0565 209.573 97.7243C209.411 97.3855 209.174 97.141 208.861 96.9909C208.549 96.8342 208.165 96.7556 207.709 96.755C207.26 96.7544 206.85 96.8483 206.479 97.0366C206.114 97.2249 205.798 97.4849 205.53 97.8166C205.269 98.1483 205.064 98.5288 204.914 98.9583C204.77 99.3813 204.698 99.8304 204.697 100.306ZM218.713 106.203C217.977 106.202 217.31 106.078 216.711 105.829C216.119 105.575 215.608 105.219 215.179 104.763C214.757 104.307 214.432 103.766 214.205 103.141C213.978 102.515 213.865 101.831 213.866 101.089L213.866 100.679C213.867 99.8198 213.995 99.055 214.25 98.3847C214.505 97.708 214.851 97.1355 215.288 96.6674C215.724 96.1992 216.22 95.845 216.773 95.6049C217.327 95.3647 217.9 95.245 218.493 95.2458C219.248 95.2468 219.899 95.3779 220.445 95.639C220.998 95.9002 221.45 96.2654 221.801 96.7346C222.152 97.1973 222.412 97.7445 222.58 98.3762C222.749 99.0014 222.833 99.6852 222.832 100.427L222.83 101.238L214.94 101.227L214.942 99.7528L221.026 99.7609L221.026 99.6242C221.001 99.1554 220.903 98.6995 220.735 98.2566C220.573 97.8137 220.313 97.4487 219.955 97.1618C219.597 96.8749 219.109 96.731 218.491 96.7302C218.081 96.7296 217.703 96.817 217.358 96.9924C217.012 97.1612 216.716 97.4147 216.468 97.7529C216.22 98.0911 216.027 98.5043 215.89 98.9924C215.753 99.4805 215.684 100.044 215.683 100.682L215.682 101.092C215.682 101.593 215.749 102.065 215.885 102.508C216.028 102.944 216.233 103.329 216.499 103.661C216.772 103.994 217.101 104.254 217.484 104.444C217.875 104.633 218.317 104.728 218.812 104.729C219.45 104.73 219.991 104.6 220.434 104.34C220.877 104.08 221.265 103.733 221.597 103.297L222.69 104.167C222.462 104.512 222.171 104.841 221.819 105.153C221.467 105.465 221.034 105.718 220.52 105.913C220.012 106.107 219.409 106.204 218.713 106.203ZM236.557 103.981L236.574 91.0314L238.391 91.0338L238.371 106.034L236.711 106.032L236.557 103.981ZM229.452 100.856L229.452 100.651C229.453 99.8436 229.552 99.1114 229.748 98.4541C229.951 97.7903 230.235 97.221 230.6 96.7462C230.972 96.2714 231.412 95.9074 231.92 95.6542C232.435 95.3945 233.008 95.265 233.639 95.2658C234.303 95.2667 234.882 95.3847 235.377 95.6197C235.878 95.8482 236.301 96.1841 236.645 96.6272C236.996 97.0639 237.272 97.5916 237.473 98.2104C237.674 98.8291 237.813 99.5292 237.89 100.311L237.889 101.209C237.816 101.984 237.676 102.68 237.466 103.298C237.264 103.916 236.986 104.443 236.634 104.879C236.289 105.315 235.865 105.65 235.363 105.883C234.862 106.111 234.276 106.224 233.605 106.223C232.987 106.222 232.42 106.088 231.906 105.82C231.399 105.553 230.96 105.178 230.59 104.695C230.226 104.213 229.943 103.646 229.742 102.995C229.548 102.337 229.451 101.624 229.452 100.856ZM231.269 100.653L231.268 100.858C231.268 101.386 231.319 101.881 231.423 102.343C231.533 102.805 231.702 103.213 231.929 103.564C232.156 103.916 232.446 104.193 232.797 104.396C233.148 104.591 233.568 104.69 234.056 104.69C234.655 104.691 235.147 104.565 235.531 104.311C235.922 104.058 236.235 103.723 236.47 103.307C236.705 102.89 236.888 102.438 237.019 101.95L237.022 99.5965C236.944 99.2383 236.831 98.8931 236.682 98.5609C236.539 98.2222 236.35 97.9224 236.116 97.6617C235.889 97.3945 235.606 97.1825 235.268 97.0258C234.936 96.8691 234.542 96.7905 234.086 96.7899C233.592 96.7892 233.165 96.8928 232.807 97.1007C232.455 97.302 232.165 97.5816 231.936 97.9394C231.708 98.2906 231.538 98.7006 231.427 99.1692C231.322 99.6313 231.269 100.126 231.269 100.653ZM243.16 95.4737L243.146 106.04L241.33 106.038L241.344 95.4713L243.16 95.4737ZM241.211 92.6684C241.211 92.3755 241.3 92.1282 241.476 91.9266C241.658 91.725 241.925 91.6245 242.277 91.6249C242.622 91.6254 242.885 91.7266 243.067 91.9287C243.256 92.1308 243.35 92.3783 243.35 92.6713C243.349 92.9512 243.255 93.192 243.065 93.3935C242.883 93.5886 242.619 93.6859 242.274 93.6855C241.923 93.685 241.656 93.587 241.474 93.3914C241.298 93.1894 241.211 92.9484 241.211 92.6684ZM247.865 97.1401L247.853 106.046L246.047 106.044L246.061 95.4776L247.819 95.4799L247.865 97.1401ZM251.168 95.4257L251.156 97.1054C251.007 97.0727 250.863 97.0529 250.727 97.0463C250.596 97.0331 250.447 97.0263 250.277 97.0261C249.861 97.0256 249.493 97.0902 249.174 97.22C248.855 97.3498 248.584 97.5317 248.362 97.7658C248.141 97.9999 247.965 98.2796 247.834 98.6049C247.71 98.9238 247.628 99.2752 247.588 99.6593L247.08 99.9516C247.081 99.3136 247.144 98.7147 247.268 98.155C247.399 97.5952 247.598 97.1007 247.866 96.6714C248.133 96.2355 248.472 95.8974 248.883 95.6571C249.3 95.4102 249.795 95.2872 250.368 95.288C250.498 95.2881 250.648 95.3046 250.817 95.3374C250.986 95.3636 251.103 95.3931 251.168 95.4257ZM257.013 106.254C256.278 106.253 255.61 106.128 255.012 105.88C254.42 105.625 253.909 105.27 253.48 104.814C253.057 104.357 252.733 103.816 252.506 103.191C252.279 102.566 252.166 101.882 252.167 101.14L252.167 100.73C252.168 99.8704 252.296 99.1056 252.551 98.4354C252.806 97.7586 253.152 97.1862 253.588 96.718C254.025 96.2498 254.521 95.8957 255.074 95.6555C255.628 95.4154 256.201 95.2957 256.793 95.2965C257.549 95.2975 258.2 95.4285 258.746 95.6897C259.299 95.9508 259.751 96.316 260.102 96.7852C260.453 97.2479 260.713 97.7951 260.881 98.4269C261.05 99.0521 261.133 99.7358 261.132 100.478L261.131 101.289L253.241 101.278L253.243 99.8035L259.327 99.8115L259.327 99.6748C259.301 99.206 259.204 98.7502 259.036 98.3072C258.873 97.8643 258.613 97.4994 258.256 97.2125C257.898 96.9255 257.41 96.7817 256.791 96.7808C256.381 96.7803 256.004 96.8677 255.658 97.043C255.313 97.2118 255.016 97.4653 254.769 97.8035C254.521 98.1418 254.328 98.5549 254.191 99.043C254.053 99.5311 253.984 100.094 253.984 100.732L253.983 101.142C253.982 101.644 254.05 102.116 254.186 102.559C254.329 102.995 254.533 103.379 254.8 103.712C255.073 104.044 255.401 104.305 255.785 104.494C256.176 104.684 256.618 104.779 257.113 104.779C257.751 104.78 258.291 104.651 258.735 104.391C259.178 104.131 259.565 103.783 259.898 103.347L260.991 104.218C260.762 104.563 260.472 104.891 260.12 105.203C259.768 105.515 259.335 105.769 258.82 105.963C258.312 106.158 257.71 106.255 257.013 106.254ZM267.464 104.783C267.894 104.784 268.291 104.696 268.656 104.521C269.021 104.346 269.321 104.105 269.556 103.8C269.79 103.487 269.924 103.133 269.957 102.736L271.676 102.738C271.643 103.363 271.43 103.945 271.039 104.485C270.654 105.019 270.149 105.451 269.524 105.782C268.898 106.107 268.211 106.269 267.463 106.268C266.668 106.267 265.975 106.126 265.383 105.845C264.797 105.564 264.31 105.179 263.92 104.691C263.536 104.202 263.247 103.642 263.053 103.01C262.865 102.372 262.771 101.698 262.772 100.988L262.773 100.578C262.774 99.8682 262.869 99.1977 263.059 98.5665C263.255 97.9287 263.545 97.3659 263.93 96.8782C264.321 96.3904 264.81 96.0069 265.396 95.7278C265.989 95.4486 266.683 95.3095 267.477 95.3106C268.304 95.3117 269.026 95.4819 269.644 95.8213C270.262 96.1541 270.747 96.6105 271.098 97.1904C271.455 97.7638 271.649 98.4151 271.681 99.1443L269.962 99.142C269.93 98.7058 269.807 98.3117 269.593 97.9599C269.385 97.608 269.099 97.3277 268.734 97.1189C268.377 96.9036 267.957 96.7956 267.475 96.795C266.922 96.7942 266.456 96.9043 266.078 97.1251C265.707 97.3395 265.41 97.6321 265.188 98.0029C264.973 98.3672 264.816 98.7739 264.718 99.223C264.626 99.6655 264.58 100.118 264.579 100.58L264.579 100.99C264.578 101.453 264.623 101.908 264.714 102.358C264.804 102.807 264.957 103.214 265.171 103.579C265.392 103.944 265.688 104.237 266.059 104.459C266.436 104.674 266.905 104.782 267.464 104.783ZM278.141 95.52L278.139 96.9067L272.426 96.8992L272.428 95.5124L278.141 95.52ZM274.365 92.9466L276.172 92.949L276.158 103.467C276.157 103.825 276.212 104.095 276.323 104.277C276.433 104.46 276.576 104.58 276.752 104.639C276.928 104.698 277.116 104.728 277.318 104.728C277.468 104.728 277.624 104.715 277.787 104.689C277.956 104.657 278.083 104.631 278.168 104.612L278.176 106.086C278.032 106.132 277.844 106.174 277.609 106.213C277.381 106.258 277.104 106.28 276.779 106.28C276.336 106.279 275.929 106.191 275.559 106.015C275.188 105.838 274.892 105.545 274.671 105.135C274.457 104.718 274.35 104.158 274.351 103.454L274.365 92.9466ZM284.63 106.29C283.895 106.289 283.228 106.165 282.629 105.917C282.037 105.662 281.526 105.306 281.097 104.85C280.675 104.394 280.35 103.853 280.123 103.228C279.896 102.602 279.783 101.919 279.784 101.176L279.784 100.766C279.785 99.9069 279.913 99.1421 280.168 98.4719C280.423 97.7952 280.769 97.2227 281.206 96.7545C281.642 96.2863 282.138 95.9322 282.691 95.692C283.245 95.4519 283.818 95.3322 284.411 95.333C285.166 95.334 285.817 95.465 286.363 95.7262C286.916 95.9873 287.368 96.3525 287.719 96.8217C288.07 97.2844 288.33 97.8317 288.498 98.4634C288.667 99.0886 288.75 99.7723 288.749 100.514L288.748 101.325L280.858 101.315L280.86 99.84L286.944 99.848L286.944 99.7113C286.918 99.2425 286.821 98.7867 286.653 98.3438C286.491 97.9008 286.231 97.5359 285.873 97.249C285.515 96.962 285.027 96.8182 284.409 96.8173C283.998 96.8168 283.621 96.9042 283.275 97.0795C282.93 97.2483 282.634 97.5019 282.386 97.8401C282.138 98.1783 281.945 98.5914 281.808 99.0795C281.671 99.5676 281.602 100.131 281.601 100.769L281.6 101.179C281.599 101.68 281.667 102.152 281.803 102.595C281.946 103.032 282.151 103.416 282.417 103.748C282.69 104.081 283.018 104.342 283.402 104.531C283.793 104.72 284.235 104.815 284.73 104.816C285.368 104.817 285.909 104.687 286.352 104.427C286.795 104.168 287.183 103.82 287.515 103.384L288.608 104.255C288.379 104.599 288.089 104.928 287.737 105.24C287.385 105.552 286.952 105.805 286.438 106C285.929 106.194 285.327 106.291 284.63 106.29ZM292.66 97.6388L292.648 106.106L290.832 106.103L290.846 95.5368L292.565 95.5391L292.66 97.6388ZM292.285 100.422L291.445 100.391C291.452 99.6685 291.548 99.0013 291.731 98.3895C291.914 97.7713 292.185 97.2345 292.543 96.7793C292.902 96.324 293.349 95.9731 293.883 95.7264C294.417 95.4732 295.036 95.347 295.739 95.348C296.234 95.3486 296.689 95.4208 297.106 95.5646C297.522 95.7019 297.883 95.9205 298.189 96.2203C298.494 96.5202 298.731 96.9046 298.9 97.3736C299.069 97.8426 299.153 98.4091 299.152 99.0732L299.142 106.114L297.336 106.112L297.345 99.1587C297.346 98.6053 297.252 98.1625 297.064 97.8302C296.882 97.4979 296.622 97.2567 296.283 97.1065C295.945 96.9498 295.548 96.8711 295.092 96.8705C294.558 96.8698 294.112 96.9636 293.754 97.152C293.396 97.3403 293.109 97.6003 292.893 97.9321C292.678 98.2638 292.521 98.6445 292.423 99.074C292.332 99.4971 292.285 99.9463 292.285 100.422ZM299.132 99.4345L297.92 99.804C297.928 99.2246 298.023 98.668 298.206 98.1344C298.395 97.6008 298.666 97.1259 299.018 96.7097C299.377 96.2935 299.817 95.9653 300.338 95.7251C300.859 95.4784 301.455 95.3555 302.125 95.3564C302.692 95.3571 303.193 95.4327 303.629 95.583C304.072 95.7333 304.442 95.9649 304.741 96.2778C305.047 96.5842 305.278 96.9784 305.433 97.4604C305.589 97.9424 305.666 98.5154 305.665 99.1794L305.656 106.123L303.84 106.12L303.849 99.1575C303.85 98.5651 303.756 98.106 303.568 97.7802C303.386 97.4479 303.126 97.2164 302.787 97.0858C302.455 96.9486 302.058 96.8798 301.596 96.8791C301.199 96.8786 300.847 96.9465 300.541 97.0828C300.235 97.2191 299.978 97.4076 299.769 97.6482C299.56 97.8823 299.4 98.1523 299.289 98.4581C299.185 98.764 299.132 99.0894 299.132 99.4345ZM312.775 106.328C312.039 106.327 311.372 106.202 310.774 105.954C310.181 105.699 309.671 105.344 309.242 104.887C308.819 104.431 308.494 103.89 308.267 103.265C308.04 102.64 307.927 101.956 307.928 101.214L307.929 100.804C307.93 99.9442 308.058 99.1794 308.313 98.5091C308.567 97.8324 308.913 97.2599 309.35 96.7917C309.787 96.3236 310.282 95.9694 310.836 95.7292C311.39 95.4891 311.963 95.3694 312.555 95.3702C313.31 95.3712 313.961 95.5023 314.508 95.7634C315.061 96.0245 315.513 96.3897 315.864 96.8589C316.215 97.3216 316.474 97.8689 316.643 98.5006C316.811 99.1258 316.895 99.8095 316.894 100.552L316.893 101.362L309.002 101.352L309.004 99.8772L315.088 99.8853L315.088 99.7485C315.063 99.2798 314.966 98.8239 314.797 98.381C314.635 97.938 314.375 97.5731 314.017 97.2862C313.66 96.9993 313.172 96.8554 312.553 96.8546C312.143 96.854 311.765 96.9414 311.42 97.1167C311.075 97.2856 310.778 97.5391 310.53 97.8773C310.282 98.2155 310.09 98.6287 309.952 99.1168C309.815 99.6049 309.746 100.168 309.745 100.806L309.745 101.216C309.744 101.717 309.812 102.189 309.948 102.632C310.09 103.069 310.295 103.453 310.562 103.786C310.835 104.118 311.163 104.379 311.547 104.568C311.937 104.757 312.38 104.852 312.875 104.853C313.513 104.854 314.053 104.724 314.496 104.465C314.939 104.205 315.327 103.857 315.66 103.421L316.752 104.292C316.524 104.637 316.234 104.965 315.882 105.277C315.53 105.589 315.097 105.842 314.582 106.037C314.074 106.232 313.472 106.328 312.775 106.328ZM320.814 97.8323L320.803 106.143L318.996 106.14L319.01 95.574L320.719 95.5763L320.814 97.8323ZM320.38 100.459L319.628 100.428C319.636 99.7057 319.744 99.0386 319.953 98.4269C320.163 97.8086 320.456 97.2719 320.834 96.8167C321.213 96.3615 321.662 96.0105 322.183 95.7638C322.711 95.5106 323.294 95.3844 323.932 95.3852C324.453 95.3859 324.922 95.4582 325.338 95.6019C325.754 95.7392 326.109 95.961 326.402 96.2674C326.701 96.5738 326.928 96.9712 327.084 97.4597C327.239 97.9417 327.317 98.531 327.316 99.2276L327.306 106.151L325.49 106.149L325.499 99.2057C325.5 98.6523 325.419 98.2095 325.257 97.8772C325.095 97.5385 324.857 97.294 324.545 97.1439C324.233 96.9872 323.849 96.9086 323.393 96.908C322.944 96.9074 322.533 97.0012 322.162 97.1895C321.797 97.3779 321.481 97.6379 321.214 97.9695C320.953 98.3012 320.747 98.6818 320.597 99.1113C320.453 99.5343 320.381 99.9834 320.38 100.459ZM334.488 95.5945L334.487 96.9812L328.774 96.9737L328.776 95.587L334.488 95.5945ZM330.713 93.0212L332.519 93.0235L332.505 103.541C332.505 103.899 332.56 104.169 332.67 104.352C332.781 104.534 332.924 104.655 333.099 104.714C333.275 104.773 333.464 104.802 333.666 104.802C333.815 104.803 333.972 104.79 334.134 104.764C334.304 104.732 334.431 104.706 334.515 104.686L334.523 106.161C334.38 106.206 334.191 106.248 333.957 106.287C333.729 106.332 333.452 106.355 333.127 106.354C332.684 106.354 332.277 106.265 331.906 106.089C331.535 105.913 331.239 105.62 331.019 105.209C330.804 104.792 330.698 104.232 330.699 103.529L330.713 93.0212Z" fill="#A59894"/>
<path d="M408.659 111.237L402.514 105.077M402.514 105.077C403.568 104.026 404.405 102.777 404.976 101.403C405.548 100.029 405.843 98.5554 405.845 97.067C405.847 95.5787 405.555 94.1045 404.988 92.7287C404.42 91.3529 403.587 90.1024 402.536 89.0486C401.485 87.9948 400.236 87.1583 398.862 86.5869C397.488 86.0155 396.014 85.7204 394.526 85.7184C393.038 85.7165 391.563 86.0077 390.188 86.5754C388.812 87.1432 387.561 87.9764 386.508 89.0274C384.379 91.15 383.181 94.0312 383.177 97.0371C383.173 100.043 384.364 102.927 386.486 105.056C388.609 107.184 391.49 108.382 394.496 108.386C397.502 108.39 400.386 107.199 402.514 105.077Z" stroke="#BF462E" stroke-width="2" stroke-linecap="round" stroke-linejoin="round"/>
<path d="M27.69 37.41C28.79 37.45 29.65 37.5 30.27 37.56C30.89 37.6 31.38 37.64 31.74 37.68C32.12 37.72 32.48 37.77 32.82 37.83C33.42 37.95 33.94 38.1 34.38 38.28C34.82 38.44 35.17 38.67 35.43 38.97C35.71 39.27 35.91 39.65 36.03 40.11C36.15 40.55 36.18 41.11 36.12 41.79L35.88 44.85C35.84 45.45 35.87 46.02 35.97 46.56C36.09 47.08 36.38 47.33 36.84 47.31C37.2 47.29 37.51 47.07 37.77 46.65C38.05 46.21 38.33 45.59 38.61 44.79L38.76 44.37H39.45L39.33 44.76C38.99 45.98 38.54 46.9 37.98 47.52C37.44 48.12 36.7 48.42 35.76 48.42C34.78 48.42 34.07 48.13 33.63 47.55C33.19 46.95 33 46.28 33.06 45.54L33.3 42.18C33.38 41.12 33.3 40.28 33.06 39.66C32.84 39.04 32.31 38.6 31.47 38.34C30.65 38.06 29.37 37.92 27.63 37.92L27.69 37.41ZM27.39 37.92L27.54 37.32H28.89C30.33 37.32 31.54 37.16 32.52 36.84C33.5 36.5 34.28 36.03 34.86 35.43C35.46 34.83 35.89 34.14 36.15 33.36C36.43 32.58 36.57 31.74 36.57 30.84C36.57 29.66 36.27 28.79 35.67 28.23C35.09 27.65 34.12 27.36 32.76 27.36C31.88 27.36 31.26 27.54 30.9 27.9C30.54 28.24 30.22 28.92 29.94 29.94L25.98 44.82C25.82 45.44 25.73 45.94 25.71 46.32C25.69 46.68 25.83 46.95 26.13 47.13C26.45 47.29 26.99 47.38 27.75 47.4L27.63 48C27.17 47.96 26.61 47.94 25.95 47.94C25.29 47.92 24.61 47.91 23.91 47.91C23.13 47.91 22.39 47.92 21.69 47.94C20.99 47.94 20.43 47.96 20.01 48L20.13 47.4C20.81 47.36 21.34 47.28 21.72 47.16C22.1 47.04 22.4 46.8 22.62 46.44C22.84 46.08 23.04 45.54 23.22 44.82L27.18 29.94C27.36 29.3 27.44 28.8 27.42 28.44C27.42 28.06 27.27 27.79 26.97 27.63C26.67 27.45 26.15 27.36 25.41 27.36L25.56 26.76C25.84 26.78 26.18 26.8 26.58 26.82C26.98 26.82 27.41 26.83 27.87 26.85C28.35 26.85 28.81 26.85 29.25 26.85C29.97 26.85 30.69 26.84 31.41 26.82C32.15 26.8 32.89 26.79 33.63 26.79C35.65 26.79 37.15 27.18 38.13 27.96C39.11 28.72 39.6 29.74 39.6 31.02C39.6 32.36 39.13 33.55 38.19 34.59C37.27 35.61 35.98 36.42 34.32 37.02C32.68 37.62 30.77 37.92 28.59 37.92H27.39ZM43.4419 41.19C44.5619 40.81 45.5719 40.44 46.4719 40.08C47.3919 39.7 48.1219 39.3 48.6619 38.88C49.3819 38.3 49.9519 37.6 50.3719 36.78C50.7919 35.96 51.0019 35.06 51.0019 34.08C51.0019 33.5 50.9619 33.13 50.8819 32.97C50.8019 32.81 50.6819 32.73 50.5219 32.73C50.0219 32.73 49.4819 32.95 48.9019 33.39C48.3219 33.83 47.7519 34.44 47.1919 35.22C46.6319 35.98 46.1119 36.85 45.6319 37.83C45.1719 38.81 44.8019 39.86 44.5219 40.98C44.2419 42.08 44.1019 43.18 44.1019 44.28C44.1019 45.3 44.2919 46.04 44.6719 46.5C45.0519 46.94 45.5519 47.16 46.1719 47.16C46.8919 47.16 47.6519 46.94 48.4519 46.5C49.2519 46.06 50.0319 45.28 50.7919 44.16L51.2719 44.4C50.8919 45.06 50.3919 45.7 49.7719 46.32C49.1519 46.94 48.4519 47.45 47.6719 47.85C46.9119 48.23 46.1019 48.42 45.2419 48.42C44.4419 48.42 43.7419 48.26 43.1419 47.94C42.5419 47.62 42.0819 47.15 41.7619 46.53C41.4419 45.89 41.2819 45.11 41.2819 44.19C41.2819 43.33 41.4419 42.37 41.7619 41.31C42.0819 40.23 42.5319 39.16 43.1119 38.1C43.7119 37.02 44.4219 36.03 45.2419 35.13C46.0619 34.23 46.9719 33.51 47.9719 32.97C48.9719 32.43 50.0419 32.16 51.1819 32.16C51.8019 32.16 52.3219 32.33 52.7419 32.67C53.1819 32.99 53.4019 33.48 53.4019 34.14C53.4019 34.94 53.1619 35.69 52.6819 36.39C52.2219 37.07 51.6019 37.7 50.8219 38.28C50.0619 38.84 49.2319 39.34 48.3319 39.78C47.4319 40.22 46.5519 40.6 45.6919 40.92C44.8319 41.24 44.0719 41.5 43.4119 41.7L43.4419 41.19ZM63.4732 32.76C62.7132 32.76 61.9532 33.07 61.1932 33.69C60.4532 34.31 59.7732 35.16 59.1532 36.24C58.5332 37.32 58.0332 38.55 57.6532 39.93C57.2932 41.31 57.1132 42.76 57.1132 44.28C57.1132 45.3 57.3032 46.04 57.6832 46.5C58.0832 46.94 58.5932 47.16 59.2132 47.16C59.9332 47.16 60.6732 46.94 61.4332 46.5C62.1932 46.06 62.9532 45.28 63.7132 44.16L64.3132 44.4C63.9332 45.06 63.4332 45.7 62.8132 46.32C62.1932 46.94 61.4932 47.45 60.7132 47.85C59.9532 48.23 59.1432 48.42 58.2832 48.42C57.0832 48.42 56.1232 48.05 55.4032 47.31C54.6832 46.57 54.3232 45.47 54.3232 44.01C54.3232 43.09 54.4532 42.1 54.7132 41.04C54.9932 39.96 55.3832 38.9 55.8832 37.86C56.4032 36.8 57.0332 35.85 57.7732 35.01C58.5132 34.15 59.3532 33.46 60.2932 32.94C61.2332 32.42 62.2632 32.16 63.3832 32.16C64.2632 32.16 65.0232 32.39 65.6632 32.85C66.3032 33.29 66.6232 33.91 66.6232 34.71C66.6232 35.09 66.5332 35.47 66.3532 35.85C66.1932 36.21 65.9532 36.51 65.6332 36.75C65.3132 36.99 64.9332 37.11 64.4932 37.11C64.0732 37.11 63.7632 37 63.5632 36.78C63.3632 36.54 63.2632 36.26 63.2632 35.94C63.2632 35.36 63.4932 34.87 63.9532 34.47C64.4132 34.05 64.9332 33.79 65.5132 33.69C65.3132 33.41 65.0532 33.19 64.7332 33.03C64.4132 32.85 63.9932 32.76 63.4732 32.76ZM69.0724 48H66.4624L72.4024 27.99C72.6024 27.31 72.5724 26.81 72.3124 26.49C72.0724 26.17 71.4624 26.01 70.4824 26.01L70.6624 25.38C71.7624 25.36 72.7524 25.25 73.6324 25.05C74.5124 24.83 75.3224 24.53 76.0624 24.15L69.0724 48ZM69.9124 43.56C70.6724 41.46 71.3924 39.68 72.0724 38.22C72.7724 36.76 73.4624 35.59 74.1424 34.71C74.8224 33.81 75.5224 33.16 76.2424 32.76C76.9624 32.36 77.7124 32.16 78.4924 32.16C79.4324 32.16 80.0724 32.39 80.4124 32.85C80.7724 33.29 80.9324 33.86 80.8924 34.56C80.8524 35.26 80.7124 35.97 80.4724 36.69L77.5624 45.45C77.4024 45.97 77.3324 46.41 77.3524 46.77C77.3724 47.13 77.6024 47.31 78.0424 47.31C78.4224 47.31 78.7924 47.1 79.1524 46.68C79.5324 46.26 79.9324 45.45 80.3524 44.25L80.7424 43.14H81.3124L80.5624 45.33C80.2824 46.17 79.9324 46.81 79.5124 47.25C79.1124 47.69 78.6824 47.99 78.2224 48.15C77.7824 48.33 77.3524 48.42 76.9324 48.42C76.1324 48.42 75.5724 48.24 75.2524 47.88C74.9324 47.52 74.7924 47.02 74.8324 46.38C74.8924 45.74 75.0524 45.02 75.3124 44.22L78.1624 35.64C78.2624 35.34 78.3524 34.99 78.4324 34.59C78.5124 34.19 78.4924 33.85 78.3724 33.57C78.2724 33.27 77.9824 33.12 77.5024 33.12C77.0024 33.12 76.4624 33.35 75.8824 33.81C75.3224 34.25 74.7424 34.89 74.1424 35.73C73.5424 36.57 72.9524 37.58 72.3724 38.76C71.7924 39.94 71.2324 41.26 70.6924 42.72C70.1724 44.16 69.6824 45.72 69.2224 47.4L69.9124 43.56ZM85.3364 41.19C86.4564 40.81 87.4664 40.44 88.3664 40.08C89.2864 39.7 90.0164 39.3 90.5564 38.88C91.2764 38.3 91.8464 37.6 92.2664 36.78C92.6864 35.96 92.8964 35.06 92.8964 34.08C92.8964 33.5 92.8564 33.13 92.7764 32.97C92.6964 32.81 92.5764 32.73 92.4164 32.73C91.9164 32.73 91.3764 32.95 90.7964 33.39C90.2164 33.83 89.6464 34.44 89.0864 35.22C88.5264 35.98 88.0064 36.85 87.5264 37.83C87.0664 38.81 86.6964 39.86 86.4164 40.98C86.1364 42.08 85.9964 43.18 85.9964 44.28C85.9964 45.3 86.1864 46.04 86.5664 46.5C86.9464 46.94 87.4464 47.16 88.0664 47.16C88.7864 47.16 89.5464 46.94 90.3464 46.5C91.1464 46.06 91.9264 45.28 92.6864 44.16L93.1664 44.4C92.7864 45.06 92.2864 45.7 91.6664 46.32C91.0464 46.94 90.3464 47.45 89.5664 47.85C88.8064 48.23 87.9964 48.42 87.1364 48.42C86.3364 48.42 85.6364 48.26 85.0364 47.94C84.4364 47.62 83.9764 47.15 83.6564 46.53C83.3364 45.89 83.1764 45.11 83.1764 44.19C83.1764 43.33 83.3364 42.37 83.6564 41.31C83.9764 40.23 84.4264 39.16 85.0064 38.1C85.6064 37.02 86.3164 36.03 87.1364 35.13C87.9564 34.23 88.8664 33.51 89.8664 32.97C90.8664 32.43 91.9364 32.16 93.0764 32.16C93.6964 32.16 94.2164 32.33 94.6364 32.67C95.0764 32.99 95.2964 33.48 95.2964 34.14C95.2964 34.94 95.0564 35.69 94.5764 36.39C94.1164 37.07 93.4964 37.7 92.7164 38.28C91.9564 38.84 91.1264 39.34 90.2264 39.78C89.3264 40.22 88.4464 40.6 87.5864 40.92C86.7264 41.24 85.9664 41.5 85.3064 41.7L85.3364 41.19ZM99.3077 48H96.6977L100.298 35.13C100.498 34.45 100.558 33.97 100.478 33.69C100.418 33.41 100.218 33.27 99.8777 33.27C99.4377 33.27 99.0377 33.5 98.6777 33.96C98.3177 34.42 97.9377 35.21 97.5377 36.33L97.1477 37.44H96.5777L97.3277 35.25C97.6277 34.41 97.9777 33.77 98.3777 33.33C98.7977 32.89 99.2277 32.59 99.6677 32.43C100.128 32.25 100.558 32.16 100.958 32.16C101.558 32.16 101.978 32.29 102.218 32.55C102.478 32.81 102.618 33.15 102.638 33.57C102.678 33.99 102.648 34.45 102.548 34.95C102.468 35.43 102.368 35.9 102.248 36.36L99.3077 48ZM107.018 32.91C106.558 32.91 106.078 33.13 105.578 33.57C105.098 33.99 104.598 34.61 104.078 35.43C103.578 36.23 103.068 37.2 102.548 38.34C102.048 39.46 101.548 40.71 101.048 42.09C100.568 43.47 100.098 44.96 99.6377 46.56L100.388 42.72C101.048 40.76 101.658 39.11 102.218 37.77C102.798 36.43 103.368 35.35 103.928 34.53C104.488 33.69 105.058 33.09 105.638 32.73C106.238 32.35 106.868 32.16 107.528 32.16C108.088 32.16 108.518 32.32 108.818 32.64C109.138 32.96 109.298 33.37 109.298 33.87C109.298 34.27 109.198 34.64 108.998 34.98C108.798 35.3 108.538 35.56 108.218 35.76C107.918 35.94 107.578 36.03 107.198 36.03C106.858 36.03 106.568 35.94 106.328 35.76C106.108 35.56 105.998 35.29 105.998 34.95C105.998 34.63 106.058 34.35 106.178 34.11C106.298 33.85 106.458 33.63 106.658 33.45C106.858 33.27 107.088 33.13 107.348 33.03C107.308 32.99 107.258 32.96 107.198 32.94C107.158 32.92 107.098 32.91 107.018 32.91ZM117.555 32.76C116.795 32.76 116.035 33.07 115.275 33.69C114.535 34.31 113.855 35.16 113.235 36.24C112.615 37.32 112.115 38.55 111.735 39.93C111.375 41.31 111.195 42.76 111.195 44.28C111.195 45.3 111.385 46.04 111.765 46.5C112.165 46.94 112.675 47.16 113.295 47.16C114.015 47.16 114.755 46.94 115.515 46.5C116.275 46.06 117.035 45.28 117.795 44.16L118.395 44.4C118.015 45.06 117.515 45.7 116.895 46.32C116.275 46.94 115.575 47.45 114.795 47.85C114.035 48.23 113.225 48.42 112.365 48.42C111.165 48.42 110.205 48.05 109.485 47.31C108.765 46.57 108.405 45.47 108.405 44.01C108.405 43.09 108.535 42.1 108.795 41.04C109.075 39.96 109.465 38.9 109.965 37.86C110.485 36.8 111.115 35.85 111.855 35.01C112.595 34.15 113.435 33.46 114.375 32.94C115.315 32.42 116.345 32.16 117.465 32.16C118.345 32.16 119.105 32.39 119.745 32.85C120.385 33.29 120.705 33.91 120.705 34.71C120.705 35.09 120.615 35.47 120.435 35.85C120.275 36.21 120.035 36.51 119.715 36.75C119.395 36.99 119.015 37.11 118.575 37.11C118.155 37.11 117.845 37 117.645 36.78C117.445 36.54 117.345 36.26 117.345 35.94C117.345 35.36 117.575 34.87 118.035 34.47C118.495 34.05 119.015 33.79 119.595 33.69C119.395 33.41 119.135 33.19 118.815 33.03C118.495 32.85 118.075 32.76 117.555 32.76ZM123.154 48H120.544L126.484 27.99C126.684 27.31 126.654 26.81 126.394 26.49C126.154 26.17 125.544 26.01 124.564 26.01L124.744 25.38C125.844 25.36 126.834 25.25 127.714 25.05C128.594 24.83 129.404 24.53 130.144 24.15L123.154 48ZM123.994 43.56C124.754 41.46 125.474 39.68 126.154 38.22C126.854 36.76 127.544 35.59 128.224 34.71C128.904 33.81 129.604 33.16 130.324 32.76C131.044 32.36 131.794 32.16 132.574 32.16C133.514 32.16 134.154 32.39 134.494 32.85C134.854 33.29 135.014 33.86 134.974 34.56C134.934 35.26 134.794 35.97 134.554 36.69L131.644 45.45C131.484 45.97 131.414 46.41 131.434 46.77C131.454 47.13 131.684 47.31 132.124 47.31C132.504 47.31 132.874 47.1 133.234 46.68C133.614 46.26 134.014 45.45 134.434 44.25L134.824 43.14H135.394L134.644 45.33C134.364 46.17 134.014 46.81 133.594 47.25C133.194 47.69 132.764 47.99 132.304 48.15C131.864 48.33 131.434 48.42 131.014 48.42C130.214 48.42 129.654 48.24 129.334 47.88C129.014 47.52 128.874 47.02 128.914 46.38C128.974 45.74 129.134 45.02 129.394 44.22L132.244 35.64C132.344 35.34 132.434 34.99 132.514 34.59C132.594 34.19 132.574 33.85 132.454 33.57C132.354 33.27 132.064 33.12 131.584 33.12C131.084 33.12 130.544 33.35 129.964 33.81C129.404 34.25 128.824 34.89 128.224 35.73C127.624 36.57 127.034 37.58 126.454 38.76C125.874 39.94 125.314 41.26 124.774 42.72C124.254 44.16 123.764 45.72 123.304 47.4L123.994 43.56ZM139.418 41.19C140.538 40.81 141.548 40.44 142.448 40.08C143.368 39.7 144.098 39.3 144.638 38.88C145.358 38.3 145.928 37.6 146.348 36.78C146.768 35.96 146.978 35.06 146.978 34.08C146.978 33.5 146.938 33.13 146.858 32.97C146.778 32.81 146.658 32.73 146.498 32.73C145.998 32.73 145.458 32.95 144.878 33.39C144.298 33.83 143.728 34.44 143.168 35.22C142.608 35.98 142.088 36.85 141.608 37.83C141.148 38.81 140.778 39.86 140.498 40.98C140.218 42.08 140.078 43.18 140.078 44.28C140.078 45.3 140.268 46.04 140.648 46.5C141.028 46.94 141.528 47.16 142.148 47.16C142.868 47.16 143.628 46.94 144.428 46.5C145.228 46.06 146.008 45.28 146.768 44.16L147.248 44.4C146.868 45.06 146.368 45.7 145.748 46.32C145.128 46.94 144.428 47.45 143.648 47.85C142.888 48.23 142.078 48.42 141.218 48.42C140.418 48.42 139.718 48.26 139.118 47.94C138.518 47.62 138.058 47.15 137.738 46.53C137.418 45.89 137.258 45.11 137.258 44.19C137.258 43.33 137.418 42.37 137.738 41.31C138.058 40.23 138.508 39.16 139.088 38.1C139.688 37.02 140.398 36.03 141.218 35.13C142.038 34.23 142.948 33.51 143.948 32.97C144.948 32.43 146.018 32.16 147.158 32.16C147.778 32.16 148.298 32.33 148.718 32.67C149.158 32.99 149.378 33.48 149.378 34.14C149.378 34.94 149.138 35.69 148.658 36.39C148.198 37.07 147.578 37.7 146.798 38.28C146.038 38.84 145.208 39.34 144.308 39.78C143.408 40.22 142.528 40.6 141.668 40.92C140.808 41.24 140.048 41.5 139.388 41.7L139.418 41.19ZM150.51 46.83C150.93 46.55 151.31 46.32 151.65 46.14C152.01 45.94 152.34 45.78 152.64 45.66C152.94 45.52 153.22 45.42 153.48 45.36C153.76 45.3 154.04 45.27 154.32 45.27C154.8 45.27 155.25 45.35 155.67 45.51C156.09 45.67 156.52 45.83 156.96 45.99C157.4 46.15 157.87 46.23 158.37 46.23C158.89 46.23 159.29 46.11 159.57 45.87C159.87 45.61 160.02 45.23 160.02 44.73C160.02 44.19 159.8 43.73 159.36 43.35C158.92 42.97 158.35 42.71 157.65 42.57L157.83 42.12C158.75 42.32 159.46 42.67 159.96 43.17C160.48 43.65 160.74 44.27 160.74 45.03C160.74 45.55 160.62 46.06 160.38 46.56C160.16 47.04 159.8 47.43 159.3 47.73C158.8 48.03 158.12 48.18 157.26 48.18C156.74 48.18 156.28 48.12 155.88 48C155.5 47.86 155.13 47.71 154.77 47.55C154.41 47.37 154.02 47.22 153.6 47.1C153.18 46.96 152.68 46.89 152.1 46.89C151.58 46.89 151.1 46.97 150.66 47.13C150.24 47.27 149.82 47.56 149.4 48H148.59L162.12 33.75C161.7 34.01 161.31 34.24 160.95 34.44C160.61 34.64 160.29 34.81 159.99 34.95C159.69 35.07 159.4 35.16 159.12 35.22C158.86 35.28 158.59 35.31 158.31 35.31C157.83 35.31 157.38 35.23 156.96 35.07C156.54 34.91 156.11 34.75 155.67 34.59C155.25 34.43 154.78 34.35 154.26 34.35C153.76 34.35 153.36 34.47 153.06 34.71C152.76 34.95 152.61 35.33 152.61 35.85C152.61 36.39 152.83 36.85 153.27 37.23C153.73 37.61 154.3 37.87 154.98 38.01L154.8 38.46C153.88 38.24 153.16 37.89 152.64 37.41C152.14 36.93 151.89 36.31 151.89 35.55C151.89 35.01 152 34.5 152.22 34.02C152.46 33.54 152.83 33.15 153.33 32.85C153.85 32.55 154.53 32.4 155.37 32.4C155.89 32.4 156.34 32.47 156.72 32.61C157.12 32.73 157.5 32.88 157.86 33.06C158.22 33.22 158.61 33.37 159.03 33.51C159.45 33.63 159.95 33.69 160.53 33.69C161.05 33.69 161.52 33.62 161.94 33.48C162.38 33.32 162.81 33.02 163.23 32.58H164.04L150.51 46.83Z" fill="white"/>
</svg>
