<svg width="27" height="28" viewBox="0 0 27 28" fill="none" xmlns="http://www.w3.org/2000/svg">
<path fill-rule="evenodd" clip-rule="evenodd" d="M7.26923 0C7.54465 0 7.80878 0.113461 8.00353 0.315423C8.19828 0.517386 8.30769 0.791305 8.30769 1.07692V2.15385H18.6923V1.07692C18.6923 0.791305 18.8017 0.517386 18.9965 0.315423C19.1912 0.113461 19.4554 0 19.7308 0C20.0062 0 20.2703 0.113461 20.4651 0.315423C20.6598 0.517386 20.7692 0.791305 20.7692 1.07692V2.15385H23.8846C24.7109 2.15385 25.5033 2.49423 26.0875 3.10012C26.6718 3.706 27 4.52776 27 5.38462V24.7692C27 25.6261 26.6718 26.4478 26.0875 27.0537C25.5033 27.6596 24.7109 28 23.8846 28H3.11538C2.28913 28 1.49672 27.6596 0.912475 27.0537C0.328227 26.4478 0 25.6261 0 24.7692V5.38462C0 4.52776 0.328227 3.706 0.912475 3.10012C1.49672 2.49423 2.28913 2.15385 3.11538 2.15385H6.23077V1.07692C6.23077 0.791305 6.34018 0.517386 6.53493 0.315423C6.72968 0.113461 6.99381 0 7.26923 0ZM18.6923 4.30769V5.38462C18.6923 5.67023 18.8017 5.94415 18.9965 6.14612C19.1912 6.34808 19.4554 6.46154 19.7308 6.46154C20.0062 6.46154 20.2703 6.34808 20.4651 6.14612C20.6598 5.94415 20.7692 5.67023 20.7692 5.38462V4.30769H23.8846C24.16 4.30769 24.4242 4.42115 24.6189 4.62312C24.8137 4.82508 24.9231 5.099 24.9231 5.38462V8.61539H2.07692V5.38462C2.07692 5.099 2.18633 4.82508 2.38108 4.62312C2.57583 4.42115 2.83997 4.30769 3.11538 4.30769H6.23077V5.38462C6.23077 5.67023 6.34018 5.94415 6.53493 6.14612C6.72968 6.34808 6.99381 6.46154 7.26923 6.46154C7.54465 6.46154 7.80878 6.34808 8.00353 6.14612C8.19828 5.94415 8.30769 5.67023 8.30769 5.38462V4.30769H18.6923ZM2.07692 10.7692V24.7692C2.07692 25.0548 2.18633 25.3288 2.38108 25.5307C2.57583 25.7327 2.83997 25.8462 3.11538 25.8462H23.8846C24.16 25.8462 24.4242 25.7327 24.6189 25.5307C24.8137 25.3288 24.9231 25.0548 24.9231 24.7692V10.7692H2.07692ZM12.4615 14C12.4615 13.7144 12.5709 13.4405 12.7657 13.2385C12.9604 13.0365 13.2246 12.9231 13.5 12.9231C13.7754 12.9231 14.0396 13.0365 14.2343 13.2385C14.4291 13.4405 14.5385 13.7144 14.5385 14C14.5385 14.2856 14.4291 14.5595 14.2343 14.7615C14.0396 14.9635 13.7754 15.0769 13.5 15.0769C13.2246 15.0769 12.9604 14.9635 12.7657 14.7615C12.5709 14.5595 12.4615 14.2856 12.4615 14ZM17.6538 12.9231C17.3784 12.9231 17.1143 13.0365 16.9195 13.2385C16.7248 13.4405 16.6154 13.7144 16.6154 14C16.6154 14.2856 16.7248 14.5595 16.9195 14.7615C17.1143 14.9635 17.3784 15.0769 17.6538 15.0769C17.9293 15.0769 18.1934 14.9635 18.3882 14.7615C18.5829 14.5595 18.6923 14.2856 18.6923 14C18.6923 13.7144 18.5829 13.4405 18.3882 13.2385C18.1934 13.0365 17.9293 12.9231 17.6538 12.9231ZM20.7692 14C20.7692 13.7144 20.8786 13.4405 21.0734 13.2385C21.2681 13.0365 21.5323 12.9231 21.8077 12.9231C22.0831 12.9231 22.3472 13.0365 22.542 13.2385C22.7367 13.4405 22.8462 13.7144 22.8462 14C22.8462 14.2856 22.7367 14.5595 22.542 14.7615C22.3472 14.9635 22.0831 15.0769 21.8077 15.0769C21.5323 15.0769 21.2681 14.9635 21.0734 14.7615C20.8786 14.5595 20.7692 14.2856 20.7692 14ZM21.8077 17.2308C21.5323 17.2308 21.2681 17.3442 21.0734 17.5462C20.8786 17.7482 20.7692 18.0221 20.7692 18.3077C20.7692 18.5933 20.8786 18.8672 21.0734 19.0692C21.2681 19.2712 21.5323 19.3846 21.8077 19.3846C22.0831 19.3846 22.3472 19.2712 22.542 19.0692C22.7367 18.8672 22.8462 18.5933 22.8462 18.3077C22.8462 18.0221 22.7367 17.7482 22.542 17.5462C22.3472 17.3442 22.0831 17.2308 21.8077 17.2308ZM16.6154 18.3077C16.6154 18.0221 16.7248 17.7482 16.9195 17.5462C17.1143 17.3442 17.3784 17.2308 17.6538 17.2308C17.9293 17.2308 18.1934 17.3442 18.3882 17.5462C18.5829 17.7482 18.6923 18.0221 18.6923 18.3077C18.6923 18.5933 18.5829 18.8672 18.3882 19.0692C18.1934 19.2712 17.9293 19.3846 17.6538 19.3846C17.3784 19.3846 17.1143 19.2712 16.9195 19.0692C16.7248 18.8672 16.6154 18.5933 16.6154 18.3077ZM13.5 17.2308C13.2246 17.2308 12.9604 17.3442 12.7657 17.5462C12.5709 17.7482 12.4615 18.0221 12.4615 18.3077C12.4615 18.5933 12.5709 18.8672 12.7657 19.0692C12.9604 19.2712 13.2246 19.3846 13.5 19.3846C13.7754 19.3846 14.0396 19.2712 14.2343 19.0692C14.4291 18.8672 14.5385 18.5933 14.5385 18.3077C14.5385 18.0221 14.4291 17.7482 14.2343 17.5462C14.0396 17.3442 13.7754 17.2308 13.5 17.2308ZM8.30769 18.3077C8.30769 18.0221 8.4171 17.7482 8.61185 17.5462C8.8066 17.3442 9.07074 17.2308 9.34615 17.2308C9.62157 17.2308 9.88571 17.3442 10.0805 17.5462C10.2752 17.7482 10.3846 18.0221 10.3846 18.3077C10.3846 18.5933 10.2752 18.8672 10.0805 19.0692C9.88571 19.2712 9.62157 19.3846 9.34615 19.3846C9.07074 19.3846 8.8066 19.2712 8.61185 19.0692C8.4171 18.8672 8.30769 18.5933 8.30769 18.3077ZM5.19231 17.2308C4.91689 17.2308 4.65275 17.3442 4.458 17.5462C4.26326 17.7482 4.15385 18.0221 4.15385 18.3077C4.15385 18.5933 4.26326 18.8672 4.458 19.0692C4.65275 19.2712 4.91689 19.3846 5.19231 19.3846C5.46772 19.3846 5.73186 19.2712 5.92661 19.0692C6.12136 18.8672 6.23077 18.5933 6.23077 18.3077C6.23077 18.0221 6.12136 17.7482 5.92661 17.5462C5.73186 17.3442 5.46772 17.2308 5.19231 17.2308ZM4.15385 22.6154C4.15385 22.3298 4.26326 22.0558 4.458 21.8539C4.65275 21.6519 4.91689 21.5385 5.19231 21.5385C5.46772 21.5385 5.73186 21.6519 5.92661 21.8539C6.12136 22.0558 6.23077 22.3298 6.23077 22.6154C6.23077 22.901 6.12136 23.1749 5.92661 23.3769C5.73186 23.5788 5.46772 23.6923 5.19231 23.6923C4.91689 23.6923 4.65275 23.5788 4.458 23.3769C4.26326 23.1749 4.15385 22.901 4.15385 22.6154ZM9.34615 21.5385C9.07074 21.5385 8.8066 21.6519 8.61185 21.8539C8.4171 22.0558 8.30769 22.3298 8.30769 22.6154C8.30769 22.901 8.4171 23.1749 8.61185 23.3769C8.8066 23.5788 9.07074 23.6923 9.34615 23.6923C9.62157 23.6923 9.88571 23.5788 10.0805 23.3769C10.2752 23.1749 10.3846 22.901 10.3846 22.6154C10.3846 22.3298 10.2752 22.0558 10.0805 21.8539C9.88571 21.6519 9.62157 21.5385 9.34615 21.5385ZM12.4615 22.6154C12.4615 22.3298 12.5709 22.0558 12.7657 21.8539C12.9604 21.6519 13.2246 21.5385 13.5 21.5385C13.7754 21.5385 14.0396 21.6519 14.2343 21.8539C14.4291 22.0558 14.5385 22.3298 14.5385 22.6154C14.5385 22.901 14.4291 23.1749 14.2343 23.3769C14.0396 23.5788 13.7754 23.6923 13.5 23.6923C13.2246 23.6923 12.9604 23.5788 12.7657 23.3769C12.5709 23.1749 12.4615 22.901 12.4615 22.6154ZM17.6538 21.5385C17.3784 21.5385 17.1143 21.6519 16.9195 21.8539C16.7248 22.0558 16.6154 22.3298 16.6154 22.6154C16.6154 22.901 16.7248 23.1749 16.9195 23.3769C17.1143 23.5788 17.3784 23.6923 17.6538 23.6923C17.9293 23.6923 18.1934 23.5788 18.3882 23.3769C18.5829 23.1749 18.6923 22.901 18.6923 22.6154C18.6923 22.3298 18.5829 22.0558 18.3882 21.8539C18.1934 21.6519 17.9293 21.5385 17.6538 21.5385Z" fill="white"/>
</svg>
