<svg width="121" height="48" viewBox="0 0 121 48" fill="none" xmlns="http://www.w3.org/2000/svg">
<rect width="121" height="48" rx="24" fill="#F2815A"/>
<path d="M31.7765 19.5664L27.5401 31.2295H25.8087L30.6866 18.4326H31.8028L31.7765 19.5664ZM35.3272 31.2295L31.0821 19.5664L31.0558 18.4326H32.172L37.0675 31.2295H35.3272ZM35.1075 26.4922V27.8809H27.9181V26.4922H35.1075ZM48.1329 24.8574V29.542C47.9747 29.7764 47.7227 30.0401 47.377 30.333C47.0313 30.6201 46.5538 30.8721 45.9444 31.0889C45.3409 31.2998 44.5616 31.4053 43.6065 31.4053C42.8272 31.4053 42.1095 31.2705 41.4532 31.001C40.8028 30.7256 40.2374 30.3272 39.7569 29.8057C39.2823 29.2783 38.9132 28.6397 38.6495 27.8897C38.3917 27.1338 38.2628 26.2783 38.2628 25.3233V24.3301C38.2628 23.375 38.3741 22.5225 38.5968 21.7725C38.8253 21.0225 39.1593 20.3867 39.5987 19.8652C40.0382 19.3379 40.5772 18.9395 41.2159 18.6699C41.8546 18.3945 42.587 18.2569 43.4132 18.2569C44.3917 18.2569 45.2091 18.4268 45.8653 18.7666C46.5274 19.1006 47.0431 19.5635 47.4122 20.1553C47.7872 20.7471 48.0274 21.4209 48.1329 22.1768H46.4366C46.3604 21.7139 46.2081 21.292 45.9796 20.9111C45.7569 20.5303 45.4376 20.2256 45.0216 19.9971C44.6056 19.7627 44.0694 19.6455 43.4132 19.6455C42.8214 19.6455 42.3087 19.7539 41.8751 19.9707C41.4415 20.1875 41.0841 20.4981 40.8028 20.9024C40.5216 21.3067 40.3106 21.7959 40.17 22.3701C40.0352 22.9444 39.9679 23.5918 39.9679 24.3125V25.3233C39.9679 26.0615 40.0528 26.7207 40.2227 27.3008C40.3985 27.8809 40.6476 28.376 40.9698 28.7861C41.2921 29.1904 41.6759 29.4981 42.1212 29.709C42.5724 29.9199 43.0704 30.0254 43.6153 30.0254C44.2188 30.0254 44.7081 29.9756 45.0831 29.876C45.4581 29.7705 45.7511 29.6475 45.962 29.5069C46.1729 29.3604 46.3341 29.2227 46.4454 29.0938V26.2285H43.4835V24.8574H48.1329ZM59.0753 29.8496V31.2295H52.2989V29.8496H59.0753ZM52.6417 18.4326V31.2295H50.9454V18.4326H52.6417ZM58.1788 23.9346V25.3145H52.2989V23.9346H58.1788ZM58.9874 18.4326V19.8213H52.2989V18.4326H58.9874ZM71.0196 18.4326V31.2295H69.3145L62.8722 21.3594V31.2295H61.1759V18.4326H62.8722L69.3409 28.3291V18.4326H71.0196ZM77.4884 31.2295H74.8165L74.8341 29.8496H77.4884C78.4024 29.8496 79.1642 29.6592 79.7735 29.2783C80.3829 28.8916 80.8399 28.3526 81.1446 27.6611C81.4552 26.9639 81.6104 26.1494 81.6104 25.2178V24.4356C81.6104 23.7031 81.5226 23.0527 81.3468 22.4844C81.171 21.9102 80.9132 21.4268 80.5733 21.0342C80.2335 20.6358 79.8175 20.334 79.3253 20.1289C78.839 19.9238 78.2794 19.8213 77.6466 19.8213H74.7638V18.4326H77.6466C78.4845 18.4326 79.2491 18.5733 79.9405 18.8545C80.6319 19.1299 81.2267 19.5313 81.7247 20.0586C82.2286 20.5801 82.6153 21.2129 82.8849 21.957C83.1544 22.6953 83.2892 23.5274 83.2892 24.4531V25.2178C83.2892 26.1436 83.1544 26.9785 82.8849 27.7227C82.6153 28.461 82.2257 29.0908 81.7159 29.6123C81.212 30.1338 80.6026 30.5352 79.8878 30.8164C79.1788 31.0918 78.379 31.2295 77.4884 31.2295ZM75.7218 18.4326V31.2295H74.0255V18.4326H75.7218ZM90.3819 19.5664L86.1456 31.2295H84.4142L89.2921 18.4326H90.4083L90.3819 19.5664ZM93.9327 31.2295L89.6876 19.5664L89.6612 18.4326H90.7774L95.6729 31.2295H93.9327ZM93.713 26.4922V27.8809H86.5235V26.4922H93.713Z" fill="white"/>
</svg>
