<svg width="198" height="48" viewBox="0 0 198 48" fill="none" xmlns="http://www.w3.org/2000/svg">
<rect width="198" height="48" rx="24" fill="#6C9D9A"/>
<path d="M55.673 29.7617L58.925 32.3369L57.7824 33.3916L54.5832 30.8516L55.673 29.7617ZM58.8811 24.4268V25.2354C58.8811 26.1963 58.7609 27.0576 58.5207 27.8194C58.2805 28.5811 57.9348 29.2285 57.4836 29.7617C57.0324 30.2949 56.4904 30.7022 55.8576 30.9834C55.2307 31.2647 54.5275 31.4053 53.7482 31.4053C52.9924 31.4053 52.298 31.2647 51.6652 30.9834C51.0383 30.7022 50.4934 30.2949 50.0305 29.7617C49.5734 29.2285 49.2189 28.5811 48.967 27.8194C48.715 27.0576 48.5891 26.1963 48.5891 25.2354V24.4268C48.5891 23.4658 48.7121 22.6074 48.9582 21.8516C49.2102 21.0899 49.5647 20.4424 50.0217 19.9092C50.4787 19.3701 51.0207 18.96 51.6477 18.6787C52.2805 18.3975 52.9748 18.2569 53.7307 18.2569C54.51 18.2569 55.216 18.3975 55.8488 18.6787C56.4816 18.96 57.0236 19.3701 57.4748 19.9092C57.926 20.4424 58.2717 21.0899 58.5119 21.8516C58.758 22.6074 58.8811 23.4658 58.8811 24.4268ZM57.2023 25.2354V24.4092C57.2023 23.6475 57.1232 22.9736 56.965 22.3877C56.8127 21.8018 56.5871 21.3096 56.2883 20.9111C55.9895 20.5127 55.6262 20.211 55.1984 20.0059C54.7707 19.8008 54.2814 19.6983 53.7307 19.6983C53.2092 19.6983 52.7346 19.8008 52.3068 20.0059C51.885 20.211 51.5217 20.5127 51.217 20.9111C50.9123 21.3096 50.6779 21.8018 50.5139 22.3877C50.3498 22.9736 50.2678 23.6475 50.2678 24.4092V25.2354C50.2678 26.0029 50.3498 26.6826 50.5139 27.2744C50.6779 27.8604 50.9123 28.3555 51.217 28.7598C51.5275 29.1582 51.8967 29.46 52.3244 29.6651C52.7522 29.8701 53.2268 29.9727 53.7482 29.9727C54.299 29.9727 54.7883 29.8701 55.216 29.6651C55.6438 29.46 56.0041 29.1582 56.2971 28.7598C56.5959 28.3555 56.8215 27.8604 56.9738 27.2744C57.1262 26.6826 57.2023 26.0029 57.2023 25.2354ZM68.8215 18.4326H70.509V27.0899C70.509 28.0508 70.2951 28.8506 69.8674 29.4893C69.4397 30.1279 68.8713 30.6084 68.1623 30.9307C67.4592 31.2471 66.6945 31.4053 65.8684 31.4053C65.0012 31.4053 64.216 31.2471 63.5129 30.9307C62.8156 30.6084 62.2619 30.1279 61.8518 29.4893C61.4475 28.8506 61.2453 28.0508 61.2453 27.0899V18.4326H62.924V27.0899C62.924 27.7578 63.0471 28.3086 63.2932 28.7422C63.5393 29.1758 63.882 29.4981 64.3215 29.709C64.7668 29.9199 65.2824 30.0254 65.8684 30.0254C66.4602 30.0254 66.9758 29.9199 67.4152 29.709C67.8605 29.4981 68.2063 29.1758 68.4523 28.7422C68.6984 28.3086 68.8215 27.7578 68.8215 27.0899V18.4326ZM74.9914 18.4326V31.2295H73.2951V18.4326H74.9914ZM90.6711 29.8496V31.2295H83.8947V29.8496H90.6711ZM84.2375 18.4326V31.2295H82.5412V18.4326H84.2375ZM89.7746 23.9346V25.3145H83.8947V23.9346H89.7746ZM90.5832 18.4326V19.8213H83.8947V18.4326H90.5832ZM99.592 27.9951C99.592 27.6963 99.5451 27.4326 99.4514 27.2041C99.3635 26.9697 99.2053 26.7588 98.9768 26.5713C98.7541 26.3838 98.4436 26.2051 98.0451 26.0352C97.6525 25.8652 97.1545 25.6924 96.551 25.5166C95.9182 25.3291 95.3469 25.1211 94.8371 24.8926C94.3273 24.6582 93.8908 24.3916 93.5275 24.0928C93.1643 23.794 92.8859 23.4512 92.6926 23.0645C92.4992 22.6777 92.4025 22.2354 92.4025 21.7373C92.4025 21.2393 92.5051 20.7793 92.7102 20.3574C92.9152 19.9356 93.2082 19.5694 93.5891 19.2588C93.9758 18.9424 94.4357 18.6963 94.9689 18.5205C95.5022 18.3447 96.0969 18.2569 96.7531 18.2569C97.7141 18.2569 98.5285 18.4414 99.1965 18.8106C99.8703 19.1738 100.383 19.6514 100.735 20.2432C101.086 20.8291 101.262 21.4561 101.262 22.124H99.5744C99.5744 21.6436 99.4719 21.2188 99.2668 20.8496C99.0617 20.4746 98.7512 20.1817 98.3352 19.9707C97.9191 19.7539 97.3918 19.6455 96.7531 19.6455C96.1496 19.6455 95.6516 19.7363 95.259 19.918C94.8664 20.0996 94.5734 20.3457 94.3801 20.6563C94.1926 20.9668 94.0988 21.3213 94.0988 21.7197C94.0988 21.9893 94.1545 22.2354 94.2658 22.458C94.383 22.6748 94.5617 22.877 94.802 23.0645C95.048 23.252 95.3586 23.4248 95.7336 23.583C96.1145 23.7412 96.5686 23.8936 97.0959 24.0401C97.8225 24.2451 98.4494 24.4736 98.9768 24.7256C99.5041 24.9776 99.9377 25.2617 100.278 25.5781C100.623 25.8887 100.878 26.2432 101.042 26.6416C101.212 27.0342 101.297 27.4795 101.297 27.9776C101.297 28.499 101.192 28.9707 100.981 29.3926C100.77 29.8145 100.468 30.1748 100.075 30.4736C99.6828 30.7725 99.2111 31.0039 98.6604 31.168C98.1154 31.3262 97.5061 31.4053 96.8322 31.4053C96.2404 31.4053 95.6574 31.3233 95.0832 31.1592C94.5148 30.9951 93.9963 30.749 93.5275 30.4209C93.0647 30.0928 92.6926 29.6885 92.4113 29.208C92.1359 28.7217 91.9982 28.1592 91.9982 27.5205H93.6857C93.6857 27.96 93.7707 28.3379 93.9406 28.6543C94.1105 28.9649 94.342 29.2227 94.635 29.4277C94.9338 29.6328 95.2707 29.7852 95.6457 29.8848C96.0266 29.9785 96.4221 30.0254 96.8322 30.0254C97.424 30.0254 97.925 29.9434 98.3352 29.7793C98.7453 29.6152 99.0559 29.3809 99.2668 29.0762C99.4836 28.7715 99.592 28.4111 99.592 27.9951ZM108.188 18.4326V31.2295H106.518V18.4326H108.188ZM112.301 18.4326V19.8213H102.413V18.4326H112.301ZM121.776 31.2295H119.104L119.121 29.8496H121.776C122.69 29.8496 123.451 29.6592 124.061 29.2783C124.67 28.8916 125.127 28.3526 125.432 27.6611C125.742 26.9639 125.898 26.1494 125.898 25.2178V24.4356C125.898 23.7031 125.81 23.0527 125.634 22.4844C125.458 21.9102 125.2 21.4268 124.861 21.0342C124.521 20.6358 124.105 20.334 123.613 20.1289C123.126 19.9238 122.567 19.8213 121.934 19.8213H119.051V18.4326H121.934C122.772 18.4326 123.536 18.5733 124.228 18.8545C124.919 19.1299 125.514 19.5313 126.012 20.0586C126.516 20.5801 126.903 21.2129 127.172 21.957C127.442 22.6953 127.576 23.5274 127.576 24.4531V25.2178C127.576 26.1436 127.442 26.9785 127.172 27.7227C126.903 28.461 126.513 29.0908 126.003 29.6123C125.499 30.1338 124.89 30.5352 124.175 30.8164C123.466 31.0918 122.666 31.2295 121.776 31.2295ZM120.009 18.4326V31.2295H118.313V18.4326H120.009ZM137.446 18.4326H139.134V27.0899C139.134 28.0508 138.92 28.8506 138.492 29.4893C138.065 30.1279 137.496 30.6084 136.787 30.9307C136.084 31.2471 135.32 31.4053 134.493 31.4053C133.626 31.4053 132.841 31.2471 132.138 30.9307C131.441 30.6084 130.887 30.1279 130.477 29.4893C130.072 28.8506 129.87 28.0508 129.87 27.0899V18.4326H131.549V27.0899C131.549 27.7578 131.672 28.3086 131.918 28.7422C132.164 29.1758 132.507 29.4981 132.946 29.709C133.392 29.9199 133.907 30.0254 134.493 30.0254C135.085 30.0254 135.601 29.9199 136.04 29.709C136.486 29.4981 136.831 29.1758 137.077 28.7422C137.323 28.3086 137.446 27.7578 137.446 27.0899V18.4326ZM142.386 18.4326L145.708 24.8574L149.039 18.4326H150.964L146.552 26.4483V31.2295H144.856V26.4483L140.444 18.4326H142.386Z" fill="white"/>
</svg>
