<svg width="163" height="48" viewBox="0 0 163 48" fill="none" xmlns="http://www.w3.org/2000/svg">
<rect width="163" height="48" rx="24" fill="#BF462E"/>
<path d="M36.4986 19.5664L32.2622 31.2295H30.5308L35.4087 18.4326H36.5249L36.4986 19.5664ZM40.0493 31.2295L35.8042 19.5664L35.7778 18.4326H36.8941L41.7896 31.2295H40.0493ZM39.8296 26.4922V27.8809H32.6402V26.4922H39.8296ZM51.1236 27.1602H52.8111C52.7232 27.9688 52.4917 28.6924 52.1167 29.3311C51.7417 29.9697 51.2114 30.4766 50.5259 30.8516C49.8403 31.2207 48.9849 31.4053 47.9595 31.4053C47.2095 31.4053 46.5269 31.2647 45.9116 30.9834C45.3023 30.7022 44.7778 30.3037 44.3384 29.7881C43.8989 29.2666 43.5591 28.6426 43.3189 27.916C43.0845 27.1836 42.9673 26.3692 42.9673 25.4727V24.1983C42.9673 23.3018 43.0845 22.4902 43.3189 21.7637C43.5591 21.0313 43.9019 20.4043 44.3472 19.8828C44.7984 19.3613 45.3403 18.96 45.9732 18.6787C46.606 18.3975 47.3179 18.2569 48.1089 18.2569C49.0757 18.2569 49.8931 18.4385 50.5611 18.8018C51.229 19.1651 51.7476 19.669 52.1167 20.3135C52.4917 20.9522 52.7232 21.6934 52.8111 22.5371H51.1236C51.0415 21.9395 50.8892 21.4268 50.6665 20.999C50.4439 20.5654 50.1275 20.2315 49.7173 19.9971C49.3071 19.7627 48.771 19.6455 48.1089 19.6455C47.5405 19.6455 47.0396 19.7539 46.606 19.9707C46.1782 20.1875 45.8179 20.4951 45.5249 20.8936C45.2378 21.292 45.021 21.7695 44.8745 22.3262C44.728 22.8828 44.6548 23.501 44.6548 24.1807V25.4727C44.6548 26.0996 44.7193 26.6885 44.8482 27.2393C44.9829 27.7901 45.1851 28.2735 45.4546 28.6895C45.7241 29.1055 46.0669 29.4336 46.4829 29.6738C46.8989 29.9082 47.3911 30.0254 47.9595 30.0254C48.6802 30.0254 49.2544 29.9111 49.6821 29.6826C50.1099 29.4541 50.4321 29.126 50.6489 28.6983C50.8716 28.2705 51.0298 27.7578 51.1236 27.1602ZM59.5874 18.4326V31.2295H57.9175V18.4326H59.5874ZM63.7007 18.4326V19.8213H53.813V18.4326H63.7007ZM72.9204 18.4326H74.6079V27.0899C74.6079 28.0508 74.3941 28.8506 73.9663 29.4893C73.5386 30.1279 72.9702 30.6084 72.2612 30.9307C71.5581 31.2471 70.7935 31.4053 69.9673 31.4053C69.1001 31.4053 68.315 31.2471 67.6118 30.9307C66.9146 30.6084 66.3609 30.1279 65.9507 29.4893C65.5464 28.8506 65.3443 28.0508 65.3443 27.0899V18.4326H67.023V27.0899C67.023 27.7578 67.146 28.3086 67.3921 28.7422C67.6382 29.1758 67.981 29.4981 68.4204 29.709C68.8657 29.9199 69.3814 30.0254 69.9673 30.0254C70.5591 30.0254 71.0747 29.9199 71.5142 29.709C71.9595 29.4981 72.3052 29.1758 72.5513 28.7422C72.7974 28.3086 72.9204 27.7578 72.9204 27.0899V18.4326ZM81.815 19.5664L77.5786 31.2295H75.8472L80.7251 18.4326H81.8413L81.815 19.5664ZM85.3657 31.2295L81.1206 19.5664L81.0943 18.4326H82.2105L87.106 31.2295H85.3657ZM85.146 26.4922V27.8809H77.9566V26.4922H85.146ZM96.5806 29.8496V31.2295H90.1821V29.8496H96.5806ZM90.5161 18.4326V31.2295H88.8198V18.4326H90.5161ZM100.342 18.4326V31.2295H98.646V18.4326H100.342ZM107.892 18.4326V31.2295H106.222V18.4326H107.892ZM112.005 18.4326V19.8213H102.118V18.4326H112.005ZM122.034 29.8496V31.2295H115.257V29.8496H122.034ZM115.6 18.4326V31.2295H113.904V18.4326H115.6ZM121.137 23.9346V25.3145H115.257V23.9346H121.137ZM121.946 18.4326V19.8213H115.257V18.4326H121.946ZM116.962 17.4834L118.667 14.8994H120.627L118.272 17.4834H116.962ZM130.955 27.9951C130.955 27.6963 130.908 27.4326 130.814 27.2041C130.726 26.9697 130.568 26.7588 130.339 26.5713C130.117 26.3838 129.806 26.2051 129.408 26.0352C129.015 25.8652 128.517 25.6924 127.914 25.5166C127.281 25.3291 126.709 25.1211 126.2 24.8926C125.69 24.6582 125.253 24.3916 124.89 24.0928C124.527 23.794 124.249 23.4512 124.055 23.0645C123.862 22.6777 123.765 22.2354 123.765 21.7373C123.765 21.2393 123.868 20.7793 124.073 20.3574C124.278 19.9356 124.571 19.5694 124.952 19.2588C125.338 18.9424 125.798 18.6963 126.332 18.5205C126.865 18.3447 127.459 18.2569 128.116 18.2569C129.077 18.2569 129.891 18.4414 130.559 18.8106C131.233 19.1738 131.746 19.6514 132.097 20.2432C132.449 20.8291 132.625 21.4561 132.625 22.124H130.937C130.937 21.6436 130.834 21.2188 130.629 20.8496C130.424 20.4746 130.114 20.1817 129.698 19.9707C129.282 19.7539 128.754 19.6455 128.116 19.6455C127.512 19.6455 127.014 19.7363 126.622 19.918C126.229 20.0996 125.936 20.3457 125.743 20.6563C125.555 20.9668 125.461 21.3213 125.461 21.7197C125.461 21.9893 125.517 22.2354 125.628 22.458C125.746 22.6748 125.924 22.877 126.165 23.0645C126.411 23.252 126.721 23.4248 127.096 23.583C127.477 23.7412 127.931 23.8936 128.459 24.0401C129.185 24.2451 129.812 24.4736 130.339 24.7256C130.867 24.9776 131.3 25.2617 131.64 25.5781C131.986 25.8887 132.241 26.2432 132.405 26.6416C132.575 27.0342 132.66 27.4795 132.66 27.9776C132.66 28.499 132.554 28.9707 132.343 29.3926C132.132 29.8145 131.831 30.1748 131.438 30.4736C131.045 30.7725 130.574 31.0039 130.023 31.168C129.478 31.3262 128.869 31.4053 128.195 31.4053C127.603 31.4053 127.02 31.3233 126.446 31.1592C125.877 30.9951 125.359 30.749 124.89 30.4209C124.427 30.0928 124.055 29.6885 123.774 29.208C123.499 28.7217 123.361 28.1592 123.361 27.5205H125.048C125.048 27.96 125.133 28.3379 125.303 28.6543C125.473 28.9649 125.705 29.2227 125.998 29.4277C126.296 29.6328 126.633 29.7852 127.008 29.8848C127.389 29.9785 127.785 30.0254 128.195 30.0254C128.787 30.0254 129.288 29.9434 129.698 29.7793C130.108 29.6152 130.418 29.3809 130.629 29.0762C130.846 28.7715 130.955 28.4111 130.955 27.9951Z" fill="white"/>
</svg>
