<svg width="537" height="523" viewBox="0 0 537 523" fill="none" xmlns="http://www.w3.org/2000/svg">
<rect width="448" height="523" rx="20" fill="#BA8777"/>
<path d="M24 240.5H428" stroke="white" stroke-dasharray="2 2"/>
<rect x="24" y="451" width="164" height="45" rx="22.5" fill="#BF462E"/>
<path d="M65.3072 468.927L61.0708 480.59H59.3394L64.2173 467.793H65.3335L65.3072 468.927ZM68.858 480.59L64.6128 468.927L64.5865 467.793H65.7027L70.5982 480.59H68.858ZM68.6382 475.853V477.242H61.4488V475.853H68.6382ZM77.0318 475.572H73.6128V474.192H77.0318C77.6939 474.192 78.23 474.086 78.6402 473.875C79.0503 473.664 79.3492 473.371 79.5367 472.996C79.73 472.621 79.8267 472.194 79.8267 471.713C79.8267 471.274 79.73 470.861 79.5367 470.474C79.3492 470.087 79.0503 469.777 78.6402 469.542C78.23 469.302 77.6939 469.182 77.0318 469.182H74.0083V480.59H72.3121V467.793H77.0318C77.9986 467.793 78.816 467.96 79.4839 468.294C80.1519 468.628 80.6587 469.091 81.0044 469.683C81.3501 470.269 81.523 470.94 81.523 471.696C81.523 472.516 81.3501 473.216 81.0044 473.796C80.6587 474.376 80.1519 474.819 79.4839 475.123C78.816 475.422 77.9986 475.572 77.0318 475.572ZM88.3873 475.572H84.9683V474.192H88.3873C89.0494 474.192 89.5855 474.086 89.9957 473.875C90.4058 473.664 90.7046 473.371 90.8921 472.996C91.0855 472.621 91.1822 472.194 91.1822 471.713C91.1822 471.274 91.0855 470.861 90.8921 470.474C90.7046 470.087 90.4058 469.777 89.9957 469.542C89.5855 469.302 89.0494 469.182 88.3873 469.182H85.3638V480.59H83.6675V467.793H88.3873C89.354 467.793 90.1714 467.96 90.8394 468.294C91.5074 468.628 92.0142 469.091 92.3599 469.683C92.7056 470.269 92.8785 470.94 92.8785 471.696C92.8785 472.516 92.7056 473.216 92.3599 473.796C92.0142 474.376 91.5074 474.819 90.8394 475.123C90.1714 475.422 89.354 475.572 88.3873 475.572ZM102.784 479.21V480.59H96.3853V479.21H102.784ZM96.7193 467.793V480.59H95.023V467.793H96.7193ZM106.545 467.793V480.59H104.849V467.793H106.545ZM116.196 479.122L119.448 481.698L118.305 482.752L115.106 480.212L116.196 479.122ZM119.404 473.787V474.596C119.404 475.557 119.284 476.418 119.044 477.18C118.803 477.942 118.458 478.589 118.006 479.122C117.555 479.656 117.013 480.063 116.38 480.344C115.753 480.625 115.05 480.766 114.271 480.766C113.515 480.766 112.821 480.625 112.188 480.344C111.561 480.063 111.016 479.656 110.553 479.122C110.096 478.589 109.742 477.942 109.49 477.18C109.238 476.418 109.112 475.557 109.112 474.596V473.787C109.112 472.826 109.235 471.968 109.481 471.212C109.733 470.451 110.087 469.803 110.544 469.27C111.002 468.731 111.544 468.321 112.17 468.039C112.803 467.758 113.498 467.617 114.253 467.617C115.033 467.617 115.739 467.758 116.372 468.039C117.004 468.321 117.546 468.731 117.998 469.27C118.449 469.803 118.794 470.451 119.035 471.212C119.281 471.968 119.404 472.826 119.404 473.787ZM117.725 474.596V473.77C117.725 473.008 117.646 472.334 117.488 471.748C117.335 471.162 117.11 470.67 116.811 470.272C116.512 469.873 116.149 469.572 115.721 469.367C115.294 469.161 114.804 469.059 114.253 469.059C113.732 469.059 113.257 469.161 112.83 469.367C112.408 469.572 112.044 469.873 111.74 470.272C111.435 470.67 111.201 471.162 111.037 471.748C110.873 472.334 110.791 473.008 110.791 473.77V474.596C110.791 475.364 110.873 476.043 111.037 476.635C111.201 477.221 111.435 477.716 111.74 478.12C112.05 478.519 112.419 478.821 112.847 479.026C113.275 479.231 113.75 479.333 114.271 479.333C114.822 479.333 115.311 479.231 115.739 479.026C116.167 478.821 116.527 478.519 116.82 478.12C117.119 477.716 117.344 477.221 117.497 476.635C117.649 476.043 117.725 475.364 117.725 474.596ZM129.344 467.793H131.032V476.451C131.032 477.411 130.818 478.211 130.39 478.85C129.962 479.489 129.394 479.969 128.685 480.291C127.982 480.608 127.217 480.766 126.391 480.766C125.524 480.766 124.739 480.608 124.036 480.291C123.338 479.969 122.785 479.489 122.375 478.85C121.97 478.211 121.768 477.411 121.768 476.451V467.793H123.447V476.451C123.447 477.118 123.57 477.669 123.816 478.103C124.062 478.536 124.405 478.859 124.844 479.07C125.29 479.281 125.805 479.386 126.391 479.386C126.983 479.386 127.499 479.281 127.938 479.07C128.383 478.859 128.729 478.536 128.975 478.103C129.221 477.669 129.344 477.118 129.344 476.451V467.793ZM141.825 479.21V480.59H135.048V479.21H141.825ZM135.391 467.793V480.59H133.695V467.793H135.391ZM140.928 473.295V474.675H135.048V473.295H140.928ZM141.737 467.793V469.182H135.048V467.793H141.737ZM143.925 467.793H148.162C149.123 467.793 149.934 467.94 150.596 468.233C151.264 468.526 151.771 468.959 152.117 469.534C152.468 470.102 152.644 470.802 152.644 471.634C152.644 472.22 152.524 472.756 152.284 473.242C152.049 473.723 151.71 474.133 151.264 474.473C150.825 474.807 150.297 475.056 149.682 475.22L149.208 475.405H145.226L145.209 474.025H148.214C148.824 474.025 149.331 473.919 149.735 473.708C150.139 473.492 150.444 473.201 150.649 472.838C150.854 472.475 150.957 472.074 150.957 471.634C150.957 471.142 150.86 470.711 150.667 470.342C150.473 469.973 150.169 469.689 149.752 469.49C149.342 469.284 148.812 469.182 148.162 469.182H145.622V480.59H143.925V467.793ZM151.405 480.59L148.294 474.789L150.06 474.781L153.215 480.485V480.59H151.405Z" fill="white"/>
<path d="M30.9141 276.041L26.207 289H24.2832L29.7031 274.781H30.9434L30.9141 276.041ZM34.8594 289L30.1426 276.041L30.1133 274.781H31.3535L36.793 289H34.8594ZM34.6152 283.736V285.279H26.627V283.736H34.6152ZM29.7031 270.963L31.5879 273.834H30.0352L27.5156 270.963H29.7031ZM48.9023 283.424H45.1035V281.891H48.9023C49.638 281.891 50.2337 281.773 50.6895 281.539C51.1452 281.305 51.4772 280.979 51.6855 280.562C51.9004 280.146 52.0078 279.671 52.0078 279.137C52.0078 278.648 51.9004 278.189 51.6855 277.76C51.4772 277.33 51.1452 276.985 50.6895 276.725C50.2337 276.458 49.638 276.324 48.9023 276.324H45.543V289H43.6582V274.781H48.9023C49.9766 274.781 50.8848 274.967 51.627 275.338C52.3691 275.709 52.9323 276.223 53.3164 276.881C53.7005 277.532 53.8926 278.277 53.8926 279.117C53.8926 280.029 53.7005 280.807 53.3164 281.451C52.9323 282.096 52.3691 282.587 51.627 282.926C50.8848 283.258 49.9766 283.424 48.9023 283.424ZM60.1914 276.041L55.4844 289H53.5605L58.9805 274.781H60.2207L60.1914 276.041ZM64.1367 289L59.4199 276.041L59.3906 274.781H60.6309L66.0703 289H64.1367ZM63.8926 283.736V285.279H55.9043V283.736H63.8926ZM67.9746 274.781H72.6816C73.7493 274.781 74.651 274.944 75.3867 275.27C76.1289 275.595 76.6921 276.077 77.0762 276.715C77.4668 277.346 77.6621 278.124 77.6621 279.049C77.6621 279.7 77.5286 280.296 77.2617 280.836C77.0013 281.37 76.6237 281.826 76.1289 282.203C75.6406 282.574 75.0547 282.851 74.3711 283.033L73.8438 283.238H69.4199L69.4004 281.705H72.7402C73.4173 281.705 73.9805 281.588 74.4297 281.354C74.8789 281.113 75.2174 280.79 75.4453 280.387C75.6732 279.983 75.7871 279.537 75.7871 279.049C75.7871 278.502 75.6797 278.023 75.4648 277.613C75.25 277.203 74.9115 276.887 74.4492 276.666C73.9935 276.438 73.4043 276.324 72.6816 276.324H69.8594V289H67.9746V274.781ZM76.2852 289L72.8281 282.555L74.791 282.545L78.2969 288.883V289H76.2852ZM84.7715 274.781V289H82.916V274.781H84.7715ZM89.3418 274.781V276.324H78.3555V274.781H89.3418ZM93.4727 274.781V289H91.5879V274.781H93.4727ZM96.9004 274.781H101.607C102.675 274.781 103.577 274.944 104.312 275.27C105.055 275.595 105.618 276.077 106.002 276.715C106.393 277.346 106.588 278.124 106.588 279.049C106.588 279.7 106.454 280.296 106.188 280.836C105.927 281.37 105.549 281.826 105.055 282.203C104.566 282.574 103.98 282.851 103.297 283.033L102.77 283.238H98.3457L98.3262 281.705H101.666C102.343 281.705 102.906 281.588 103.355 281.354C103.805 281.113 104.143 280.79 104.371 280.387C104.599 279.983 104.713 279.537 104.713 279.049C104.713 278.502 104.605 278.023 104.391 277.613C104.176 277.203 103.837 276.887 103.375 276.666C102.919 276.438 102.33 276.324 101.607 276.324H98.7852V289H96.9004V274.781ZM105.211 289L101.754 282.555L103.717 282.545L107.223 288.883V289H105.211ZM118.033 289H115.064L115.084 287.467H118.033C119.049 287.467 119.895 287.255 120.572 286.832C121.249 286.402 121.757 285.803 122.096 285.035C122.441 284.26 122.613 283.355 122.613 282.32V281.451C122.613 280.637 122.516 279.915 122.32 279.283C122.125 278.645 121.839 278.108 121.461 277.672C121.083 277.229 120.621 276.894 120.074 276.666C119.534 276.438 118.912 276.324 118.209 276.324H115.006V274.781H118.209C119.14 274.781 119.99 274.938 120.758 275.25C121.526 275.556 122.187 276.002 122.74 276.588C123.3 277.167 123.73 277.87 124.029 278.697C124.329 279.518 124.479 280.442 124.479 281.471V282.32C124.479 283.349 124.329 284.277 124.029 285.104C123.73 285.924 123.297 286.624 122.73 287.203C122.171 287.783 121.493 288.229 120.699 288.541C119.911 288.847 119.023 289 118.033 289ZM116.07 274.781V289H114.186V274.781H116.07ZM135.445 274.781H137.32V284.4C137.32 285.468 137.083 286.357 136.607 287.066C136.132 287.776 135.501 288.31 134.713 288.668C133.932 289.02 133.082 289.195 132.164 289.195C131.201 289.195 130.328 289.02 129.547 288.668C128.772 288.31 128.157 287.776 127.701 287.066C127.252 286.357 127.027 285.468 127.027 284.4V274.781H128.893V284.4C128.893 285.143 129.029 285.755 129.303 286.236C129.576 286.718 129.957 287.076 130.445 287.311C130.94 287.545 131.513 287.662 132.164 287.662C132.822 287.662 133.395 287.545 133.883 287.311C134.378 287.076 134.762 286.718 135.035 286.236C135.309 285.755 135.445 285.143 135.445 284.4V274.781Z" fill="white"/>
<rect x="152.5" y="260.5" width="156.911" height="42.0833" rx="2.5" fill="white" stroke="#86665C"/>
<path d="M174.77 285.6V275.531H176.645V285.6C176.645 286.537 176.453 287.328 176.069 287.973C175.685 288.617 175.154 289.109 174.477 289.447C173.807 289.779 173.035 289.945 172.163 289.945C171.29 289.945 170.516 289.796 169.839 289.496C169.162 289.197 168.631 288.741 168.247 288.129C167.863 287.517 167.671 286.745 167.671 285.814H169.555C169.555 286.413 169.666 286.905 169.887 287.289C170.109 287.673 170.415 287.956 170.805 288.139C171.203 288.321 171.655 288.412 172.163 288.412C172.658 288.412 173.1 288.308 173.491 288.1C173.888 287.885 174.201 287.569 174.428 287.152C174.656 286.729 174.77 286.212 174.77 285.6ZM185.805 285.6V275.531H187.68V285.6C187.68 286.537 187.488 287.328 187.104 287.973C186.72 288.617 186.19 289.109 185.512 289.447C184.842 289.779 184.07 289.945 183.198 289.945C182.326 289.945 181.551 289.796 180.874 289.496C180.197 289.197 179.666 288.741 179.282 288.129C178.898 287.517 178.706 286.745 178.706 285.814H180.591C180.591 286.413 180.701 286.905 180.923 287.289C181.144 287.673 181.45 287.956 181.841 288.139C182.238 288.321 182.69 288.412 183.198 288.412C183.693 288.412 184.135 288.308 184.526 288.1C184.923 287.885 185.236 287.569 185.464 287.152C185.691 286.729 185.805 286.212 185.805 285.6ZM196.889 275.531L190.962 290.971H189.409L195.346 275.531H196.889ZM199.731 275.531H201.557L206.216 287.123L210.864 275.531H212.7L206.919 289.75H205.493L199.731 275.531ZM199.135 275.531H200.747L201.01 284.203V289.75H199.135V275.531ZM211.675 275.531H213.286V289.75H211.411V284.203L211.675 275.531ZM217.192 275.531H219.018L223.676 287.123L228.325 275.531H230.161L224.38 289.75H222.954L217.192 275.531ZM216.596 275.531H218.208L218.471 284.203V289.75H216.596V275.531ZM229.135 275.531H230.747V289.75H228.872V284.203L229.135 275.531ZM240.073 275.531L234.145 290.971H232.593L238.53 275.531H240.073ZM247.583 276.791L242.876 289.75H240.952L246.372 275.531H247.612L247.583 276.791ZM251.528 289.75L246.811 276.791L246.782 275.531H248.022L253.462 289.75H251.528ZM251.284 284.486V286.029H243.296V284.486H251.284ZM260.63 276.791L255.923 289.75H253.999L259.419 275.531H260.659L260.63 276.791ZM264.575 289.75L259.858 276.791L259.829 275.531H261.069L266.509 289.75H264.575ZM264.331 284.486V286.029H256.343V284.486H264.331ZM273.676 276.791L268.969 289.75H267.046L272.466 275.531H273.706L273.676 276.791ZM277.622 289.75L272.905 276.791L272.876 275.531H274.116L279.555 289.75H277.622ZM277.378 284.486V286.029H269.389V284.486H277.378ZM286.723 276.791L282.016 289.75H280.093L285.512 275.531H286.753L286.723 276.791ZM290.669 289.75L285.952 276.791L285.923 275.531H287.163L292.602 289.75H290.669ZM290.425 284.486V286.029H282.436V284.486H290.425Z" fill="#A59894"/>
<path d="M34.2734 351.467V353H27.1641V351.467H34.2734ZM27.5352 338.781V353H25.6504V338.781H27.5352ZM38.4531 338.781V353H36.5684V338.781H38.4531ZM50.9141 351.467V353H43.3848V351.467H50.9141ZM43.7656 338.781V353H41.8809V338.781H43.7656ZM49.918 344.895V346.428H43.3848V344.895H49.918ZM50.8164 338.781V340.324H43.3848V338.781H50.8164ZM61.3828 338.781H63.2578V348.4C63.2578 349.468 63.0202 350.357 62.5449 351.066C62.0697 351.776 61.4382 352.31 60.6504 352.668C59.8691 353.02 59.0195 353.195 58.1016 353.195C57.138 353.195 56.2656 353.02 55.4844 352.668C54.7096 352.31 54.0944 351.776 53.6387 351.066C53.1895 350.357 52.9648 349.468 52.9648 348.4V338.781H54.8301V348.4C54.8301 349.143 54.9668 349.755 55.2402 350.236C55.5137 350.718 55.8945 351.076 56.3828 351.311C56.8776 351.545 57.4505 351.662 58.1016 351.662C58.7591 351.662 59.332 351.545 59.8203 351.311C60.3151 351.076 60.6992 350.718 60.9727 350.236C61.2461 349.755 61.3828 349.143 61.3828 348.4V338.781Z" fill="white"/>
<rect x="78.5" y="325.5" width="322.215" height="42.0833" rx="2.5" fill="white" stroke="#86665C"/>
<path d="M96.5967 339.041L91.8896 352H89.9658L95.3857 337.781H96.626L96.5967 339.041ZM100.542 352L95.8252 339.041L95.7959 337.781H97.0361L102.476 352H100.542ZM100.298 346.736V348.279H92.3096V346.736H100.298ZM110.767 349.949V337H112.583V352H110.923L110.767 349.949ZM103.657 346.834V346.629C103.657 345.822 103.755 345.089 103.95 344.432C104.152 343.768 104.435 343.198 104.8 342.723C105.171 342.247 105.61 341.883 106.118 341.629C106.632 341.368 107.205 341.238 107.837 341.238C108.501 341.238 109.08 341.355 109.575 341.59C110.076 341.818 110.5 342.153 110.845 342.596C111.196 343.032 111.473 343.559 111.675 344.178C111.877 344.796 112.017 345.496 112.095 346.277V347.176C112.023 347.951 111.883 348.647 111.675 349.266C111.473 349.884 111.196 350.411 110.845 350.848C110.5 351.284 110.076 351.619 109.575 351.854C109.074 352.081 108.488 352.195 107.817 352.195C107.199 352.195 106.632 352.062 106.118 351.795C105.61 351.528 105.171 351.154 104.8 350.672C104.435 350.19 104.152 349.624 103.95 348.973C103.755 348.315 103.657 347.602 103.657 346.834ZM105.474 346.629V346.834C105.474 347.361 105.526 347.856 105.63 348.318C105.741 348.781 105.91 349.188 106.138 349.539C106.366 349.891 106.655 350.167 107.007 350.369C107.358 350.564 107.778 350.662 108.267 350.662C108.866 350.662 109.357 350.535 109.741 350.281C110.132 350.027 110.444 349.692 110.679 349.275C110.913 348.859 111.095 348.406 111.226 347.918V345.564C111.147 345.206 111.034 344.861 110.884 344.529C110.741 344.191 110.552 343.891 110.317 343.631C110.09 343.364 109.806 343.152 109.468 342.996C109.136 342.84 108.742 342.762 108.286 342.762C107.791 342.762 107.365 342.866 107.007 343.074C106.655 343.276 106.366 343.556 106.138 343.914C105.91 344.266 105.741 344.676 105.63 345.145C105.526 345.607 105.474 346.102 105.474 346.629ZM117.202 343.094V352H115.396V341.434H117.153L117.202 343.094ZM120.503 341.375L120.493 343.055C120.343 343.022 120.2 343.003 120.063 342.996C119.933 342.983 119.784 342.977 119.614 342.977C119.198 342.977 118.83 343.042 118.511 343.172C118.192 343.302 117.922 343.484 117.7 343.719C117.479 343.953 117.303 344.233 117.173 344.559C117.049 344.878 116.968 345.229 116.929 345.613L116.421 345.906C116.421 345.268 116.483 344.669 116.606 344.109C116.737 343.549 116.935 343.055 117.202 342.625C117.469 342.189 117.808 341.85 118.218 341.609C118.634 341.362 119.129 341.238 119.702 341.238C119.832 341.238 119.982 341.255 120.151 341.287C120.321 341.313 120.438 341.342 120.503 341.375ZM126.362 352.195C125.627 352.195 124.959 352.072 124.36 351.824C123.768 351.57 123.257 351.215 122.827 350.76C122.404 350.304 122.078 349.764 121.851 349.139C121.623 348.514 121.509 347.83 121.509 347.088V346.678C121.509 345.818 121.636 345.053 121.89 344.383C122.144 343.706 122.489 343.133 122.925 342.664C123.361 342.195 123.856 341.84 124.409 341.6C124.963 341.359 125.535 341.238 126.128 341.238C126.883 341.238 127.534 341.368 128.081 341.629C128.634 341.889 129.087 342.254 129.438 342.723C129.79 343.185 130.05 343.732 130.22 344.363C130.389 344.988 130.474 345.672 130.474 346.414V347.225H122.583V345.75H128.667V345.613C128.641 345.145 128.543 344.689 128.374 344.246C128.211 343.803 127.951 343.439 127.593 343.152C127.235 342.866 126.746 342.723 126.128 342.723C125.718 342.723 125.34 342.811 124.995 342.986C124.65 343.156 124.354 343.41 124.106 343.748C123.859 344.087 123.667 344.5 123.53 344.988C123.394 345.477 123.325 346.04 123.325 346.678V347.088C123.325 347.589 123.394 348.061 123.53 348.504C123.674 348.94 123.879 349.324 124.146 349.656C124.419 349.988 124.748 350.249 125.132 350.438C125.522 350.626 125.965 350.721 126.46 350.721C127.098 350.721 127.638 350.59 128.081 350.33C128.524 350.07 128.911 349.721 129.243 349.285L130.337 350.154C130.109 350.499 129.819 350.828 129.468 351.141C129.116 351.453 128.683 351.707 128.169 351.902C127.661 352.098 127.059 352.195 126.362 352.195ZM138.735 349.197C138.735 348.937 138.677 348.696 138.56 348.475C138.449 348.247 138.218 348.042 137.866 347.859C137.521 347.671 137 347.508 136.304 347.371C135.718 347.247 135.187 347.101 134.712 346.932C134.243 346.762 133.843 346.557 133.511 346.316C133.185 346.076 132.935 345.792 132.759 345.467C132.583 345.141 132.495 344.76 132.495 344.324C132.495 343.908 132.586 343.514 132.769 343.143C132.957 342.771 133.221 342.443 133.56 342.156C133.905 341.87 134.318 341.645 134.8 341.482C135.282 341.32 135.819 341.238 136.411 341.238C137.257 341.238 137.98 341.388 138.579 341.688C139.178 341.987 139.637 342.387 139.956 342.889C140.275 343.383 140.435 343.934 140.435 344.539H138.628C138.628 344.246 138.54 343.963 138.364 343.689C138.195 343.41 137.944 343.178 137.612 342.996C137.287 342.814 136.886 342.723 136.411 342.723C135.91 342.723 135.503 342.801 135.19 342.957C134.884 343.107 134.66 343.299 134.517 343.533C134.38 343.768 134.312 344.015 134.312 344.275C134.312 344.471 134.344 344.646 134.409 344.803C134.481 344.952 134.604 345.092 134.78 345.223C134.956 345.346 135.203 345.464 135.522 345.574C135.841 345.685 136.248 345.796 136.743 345.906C137.609 346.102 138.322 346.336 138.882 346.609C139.442 346.883 139.858 347.218 140.132 347.615C140.405 348.012 140.542 348.494 140.542 349.061C140.542 349.523 140.444 349.946 140.249 350.33C140.06 350.714 139.784 351.046 139.419 351.326C139.061 351.6 138.631 351.814 138.13 351.971C137.635 352.12 137.078 352.195 136.46 352.195C135.529 352.195 134.741 352.029 134.097 351.697C133.452 351.365 132.964 350.936 132.632 350.408C132.3 349.881 132.134 349.324 132.134 348.738H133.95C133.976 349.233 134.119 349.627 134.38 349.92C134.64 350.206 134.959 350.411 135.337 350.535C135.715 350.652 136.089 350.711 136.46 350.711C136.955 350.711 137.368 350.646 137.7 350.516C138.039 350.385 138.296 350.206 138.472 349.979C138.647 349.751 138.735 349.49 138.735 349.197ZM149.067 349.197C149.067 348.937 149.009 348.696 148.892 348.475C148.781 348.247 148.55 348.042 148.198 347.859C147.853 347.671 147.332 347.508 146.636 347.371C146.05 347.247 145.519 347.101 145.044 346.932C144.575 346.762 144.175 346.557 143.843 346.316C143.517 346.076 143.267 345.792 143.091 345.467C142.915 345.141 142.827 344.76 142.827 344.324C142.827 343.908 142.918 343.514 143.101 343.143C143.289 342.771 143.553 342.443 143.892 342.156C144.237 341.87 144.65 341.645 145.132 341.482C145.614 341.32 146.151 341.238 146.743 341.238C147.59 341.238 148.312 341.388 148.911 341.688C149.51 341.987 149.969 342.387 150.288 342.889C150.607 343.383 150.767 343.934 150.767 344.539H148.96C148.96 344.246 148.872 343.963 148.696 343.689C148.527 343.41 148.276 343.178 147.944 342.996C147.619 342.814 147.218 342.723 146.743 342.723C146.242 342.723 145.835 342.801 145.522 342.957C145.216 343.107 144.992 343.299 144.849 343.533C144.712 343.768 144.644 344.015 144.644 344.275C144.644 344.471 144.676 344.646 144.741 344.803C144.813 344.952 144.937 345.092 145.112 345.223C145.288 345.346 145.535 345.464 145.854 345.574C146.174 345.685 146.58 345.796 147.075 345.906C147.941 346.102 148.654 346.336 149.214 346.609C149.774 346.883 150.19 347.218 150.464 347.615C150.737 348.012 150.874 348.494 150.874 349.061C150.874 349.523 150.776 349.946 150.581 350.33C150.392 350.714 150.116 351.046 149.751 351.326C149.393 351.6 148.963 351.814 148.462 351.971C147.967 352.12 147.41 352.195 146.792 352.195C145.861 352.195 145.073 352.029 144.429 351.697C143.784 351.365 143.296 350.936 142.964 350.408C142.632 349.881 142.466 349.324 142.466 348.738H144.282C144.308 349.233 144.451 349.627 144.712 349.92C144.972 350.206 145.291 350.411 145.669 350.535C146.047 350.652 146.421 350.711 146.792 350.711C147.287 350.711 147.7 350.646 148.032 350.516C148.371 350.385 148.628 350.206 148.804 349.979C148.979 349.751 149.067 349.49 149.067 349.197ZM157.632 352.195C156.896 352.195 156.229 352.072 155.63 351.824C155.037 351.57 154.526 351.215 154.097 350.76C153.674 350.304 153.348 349.764 153.12 349.139C152.892 348.514 152.778 347.83 152.778 347.088V346.678C152.778 345.818 152.905 345.053 153.159 344.383C153.413 343.706 153.758 343.133 154.194 342.664C154.631 342.195 155.125 341.84 155.679 341.6C156.232 341.359 156.805 341.238 157.397 341.238C158.153 341.238 158.804 341.368 159.351 341.629C159.904 341.889 160.356 342.254 160.708 342.723C161.06 343.185 161.32 343.732 161.489 344.363C161.659 344.988 161.743 345.672 161.743 346.414V347.225H153.853V345.75H159.937V345.613C159.91 345.145 159.813 344.689 159.644 344.246C159.481 343.803 159.22 343.439 158.862 343.152C158.504 342.866 158.016 342.723 157.397 342.723C156.987 342.723 156.61 342.811 156.265 342.986C155.92 343.156 155.623 343.41 155.376 343.748C155.129 344.087 154.937 344.5 154.8 344.988C154.663 345.477 154.595 346.04 154.595 346.678V347.088C154.595 347.589 154.663 348.061 154.8 348.504C154.943 348.94 155.148 349.324 155.415 349.656C155.688 349.988 156.017 350.249 156.401 350.438C156.792 350.626 157.235 350.721 157.729 350.721C158.368 350.721 158.908 350.59 159.351 350.33C159.793 350.07 160.181 349.721 160.513 349.285L161.606 350.154C161.379 350.499 161.089 350.828 160.737 351.141C160.386 351.453 159.953 351.707 159.438 351.902C158.931 352.098 158.328 352.195 157.632 352.195ZM165.493 349.852V351.307C165.493 351.899 165.343 352.524 165.044 353.182C164.744 353.846 164.325 354.399 163.784 354.842L162.759 354.129C162.967 353.842 163.143 353.549 163.286 353.25C163.429 352.957 163.537 352.651 163.608 352.332C163.687 352.02 163.726 351.688 163.726 351.336V349.852H165.493ZM175.972 350.369L178.862 341.434H180.708L176.909 352H175.698L175.972 350.369ZM173.56 341.434L176.538 350.418L176.743 352H175.532L171.704 341.434H173.56ZM184.409 341.434V352H182.593V341.434H184.409ZM182.456 338.631C182.456 338.338 182.544 338.09 182.72 337.889C182.902 337.687 183.169 337.586 183.521 337.586C183.866 337.586 184.129 337.687 184.312 337.889C184.5 338.09 184.595 338.338 184.595 338.631C184.595 338.911 184.5 339.152 184.312 339.354C184.129 339.549 183.866 339.646 183.521 339.646C183.169 339.646 182.902 339.549 182.72 339.354C182.544 339.152 182.456 338.911 182.456 338.631ZM189.272 337V352H187.456V337H189.272ZM194.136 337V352H192.319V337H194.136ZM201.421 352.195C200.685 352.195 200.018 352.072 199.419 351.824C198.826 351.57 198.315 351.215 197.886 350.76C197.463 350.304 197.137 349.764 196.909 349.139C196.681 348.514 196.567 347.83 196.567 347.088V346.678C196.567 345.818 196.694 345.053 196.948 344.383C197.202 343.706 197.547 343.133 197.983 342.664C198.42 342.195 198.914 341.84 199.468 341.6C200.021 341.359 200.594 341.238 201.187 341.238C201.942 341.238 202.593 341.368 203.14 341.629C203.693 341.889 204.146 342.254 204.497 342.723C204.849 343.185 205.109 343.732 205.278 344.363C205.448 344.988 205.532 345.672 205.532 346.414V347.225H197.642V345.75H203.726V345.613C203.7 345.145 203.602 344.689 203.433 344.246C203.27 343.803 203.009 343.439 202.651 343.152C202.293 342.866 201.805 342.723 201.187 342.723C200.776 342.723 200.399 342.811 200.054 342.986C199.709 343.156 199.412 343.41 199.165 343.748C198.918 344.087 198.726 344.5 198.589 344.988C198.452 345.477 198.384 346.04 198.384 346.678V347.088C198.384 347.589 198.452 348.061 198.589 348.504C198.732 348.94 198.937 349.324 199.204 349.656C199.478 349.988 199.806 350.249 200.19 350.438C200.581 350.626 201.024 350.721 201.519 350.721C202.157 350.721 202.697 350.59 203.14 350.33C203.582 350.07 203.97 349.721 204.302 349.285L205.396 350.154C205.168 350.499 204.878 350.828 204.526 351.141C204.175 351.453 203.742 351.707 203.228 351.902C202.72 352.098 202.118 352.195 201.421 352.195ZM212.632 351.043C212.632 350.737 212.726 350.48 212.915 350.271C213.11 350.057 213.39 349.949 213.755 349.949C214.119 349.949 214.396 350.057 214.585 350.271C214.78 350.48 214.878 350.737 214.878 351.043C214.878 351.342 214.78 351.596 214.585 351.805C214.396 352.013 214.119 352.117 213.755 352.117C213.39 352.117 213.11 352.013 212.915 351.805C212.726 351.596 212.632 351.342 212.632 351.043ZM217.905 351.043C217.905 350.737 218 350.48 218.188 350.271C218.384 350.057 218.664 349.949 219.028 349.949C219.393 349.949 219.67 350.057 219.858 350.271C220.054 350.48 220.151 350.737 220.151 351.043C220.151 351.342 220.054 351.596 219.858 351.805C219.67 352.013 219.393 352.117 219.028 352.117C218.664 352.117 218.384 352.013 218.188 351.805C218 351.596 217.905 351.342 217.905 351.043ZM223.179 351.043C223.179 350.737 223.273 350.48 223.462 350.271C223.657 350.057 223.937 349.949 224.302 349.949C224.666 349.949 224.943 350.057 225.132 350.271C225.327 350.48 225.425 350.737 225.425 351.043C225.425 351.342 225.327 351.596 225.132 351.805C224.943 352.013 224.666 352.117 224.302 352.117C223.937 352.117 223.657 352.013 223.462 351.805C223.273 351.596 223.179 351.342 223.179 351.043Z" fill="#A59894"/>
<path d="M29.498 418H26.5293L26.5488 416.467H29.498C30.5137 416.467 31.36 416.255 32.0371 415.832C32.7142 415.402 33.222 414.803 33.5605 414.035C33.9056 413.26 34.0781 412.355 34.0781 411.32V410.451C34.0781 409.637 33.9805 408.915 33.7852 408.283C33.5898 407.645 33.3034 407.108 32.9258 406.672C32.5482 406.229 32.0859 405.894 31.5391 405.666C30.9987 405.438 30.377 405.324 29.6738 405.324H26.4707V403.781H29.6738C30.6048 403.781 31.4544 403.938 32.2227 404.25C32.9909 404.556 33.6517 405.002 34.2051 405.588C34.765 406.167 35.1947 406.87 35.4941 407.697C35.7936 408.518 35.9434 409.442 35.9434 410.471V411.32C35.9434 412.349 35.7936 413.277 35.4941 414.104C35.1947 414.924 34.7617 415.624 34.1953 416.203C33.6354 416.783 32.9583 417.229 32.1641 417.541C31.3763 417.847 30.4876 418 29.498 418ZM27.5352 403.781V418H25.6504V403.781H27.5352ZM40.7969 403.781V418H38.9121V403.781H40.7969ZM51.8027 414.406C51.8027 414.074 51.7507 413.781 51.6465 413.527C51.5488 413.267 51.373 413.033 51.1191 412.824C50.8717 412.616 50.5267 412.417 50.084 412.229C49.6478 412.04 49.0944 411.848 48.4238 411.652C47.7207 411.444 47.0859 411.213 46.5195 410.959C45.9531 410.699 45.4681 410.402 45.0645 410.07C44.6608 409.738 44.3516 409.357 44.1367 408.928C43.9219 408.498 43.8145 408.007 43.8145 407.453C43.8145 406.9 43.9284 406.389 44.1562 405.92C44.3841 405.451 44.7096 405.044 45.1328 404.699C45.5625 404.348 46.0736 404.074 46.666 403.879C47.2585 403.684 47.9193 403.586 48.6484 403.586C49.7161 403.586 50.6211 403.791 51.3633 404.201C52.112 404.605 52.6816 405.135 53.0723 405.793C53.4629 406.444 53.6582 407.141 53.6582 407.883H51.7832C51.7832 407.349 51.6693 406.877 51.4414 406.467C51.2135 406.05 50.8685 405.725 50.4062 405.49C49.944 405.249 49.3581 405.129 48.6484 405.129C47.9779 405.129 47.4245 405.23 46.9883 405.432C46.5521 405.633 46.2266 405.907 46.0117 406.252C45.8034 406.597 45.6992 406.991 45.6992 407.434C45.6992 407.733 45.7611 408.007 45.8848 408.254C46.015 408.495 46.2135 408.719 46.4805 408.928C46.7539 409.136 47.099 409.328 47.5156 409.504C47.9388 409.68 48.4434 409.849 49.0293 410.012C49.8366 410.24 50.5332 410.493 51.1191 410.773C51.7051 411.053 52.1868 411.369 52.5645 411.721C52.9486 412.066 53.2318 412.46 53.4141 412.902C53.6029 413.339 53.6973 413.833 53.6973 414.387C53.6973 414.966 53.5801 415.49 53.3457 415.959C53.1113 416.428 52.776 416.828 52.3398 417.16C51.9036 417.492 51.3796 417.749 50.7676 417.932C50.1621 418.107 49.485 418.195 48.7363 418.195C48.0788 418.195 47.431 418.104 46.793 417.922C46.1615 417.74 45.5853 417.466 45.0645 417.102C44.5501 416.737 44.1367 416.288 43.8242 415.754C43.5182 415.214 43.3652 414.589 43.3652 413.879H45.2402C45.2402 414.367 45.3346 414.787 45.5234 415.139C45.7122 415.484 45.9694 415.77 46.2949 415.998C46.627 416.226 47.0013 416.395 47.418 416.506C47.8411 416.61 48.2806 416.662 48.7363 416.662C49.3939 416.662 49.9505 416.571 50.4062 416.389C50.862 416.206 51.207 415.946 51.4414 415.607C51.6823 415.269 51.8027 414.868 51.8027 414.406ZM61.3535 403.781V418H59.498V403.781H61.3535ZM65.9238 403.781V405.324H54.9375V403.781H65.9238ZM72.5156 405.041L67.8086 418H65.8848L71.3047 403.781H72.5449L72.5156 405.041ZM76.4609 418L71.7441 405.041L71.7148 403.781H72.9551L78.3945 418H76.4609ZM76.2168 412.736V414.279H68.2285V412.736H76.2168ZM91.2363 403.781V418H89.3418L82.1836 407.033V418H80.2988V403.781H82.1836L89.3711 414.777V403.781H91.2363ZM103.16 413.479H105.035C104.938 414.377 104.68 415.181 104.264 415.891C103.847 416.6 103.258 417.163 102.496 417.58C101.734 417.99 100.784 418.195 99.6445 418.195C98.8112 418.195 98.0527 418.039 97.3691 417.727C96.6921 417.414 96.1094 416.971 95.6211 416.398C95.1328 415.819 94.7552 415.126 94.4883 414.318C94.2279 413.505 94.0977 412.6 94.0977 411.604V410.188C94.0977 409.191 94.2279 408.29 94.4883 407.482C94.7552 406.669 95.1361 405.972 95.6309 405.393C96.1322 404.813 96.7344 404.367 97.4375 404.055C98.1406 403.742 98.9316 403.586 99.8105 403.586C100.885 403.586 101.793 403.788 102.535 404.191C103.277 404.595 103.854 405.155 104.264 405.871C104.68 406.581 104.938 407.404 105.035 408.342H103.16C103.069 407.678 102.9 407.108 102.652 406.633C102.405 406.151 102.053 405.78 101.598 405.52C101.142 405.259 100.546 405.129 99.8105 405.129C99.179 405.129 98.6224 405.249 98.1406 405.49C97.6654 405.731 97.265 406.073 96.9395 406.516C96.6204 406.958 96.3796 407.489 96.2168 408.107C96.054 408.726 95.9727 409.413 95.9727 410.168V411.604C95.9727 412.3 96.0443 412.954 96.1875 413.566C96.3372 414.178 96.5618 414.715 96.8613 415.178C97.1608 415.64 97.5417 416.005 98.0039 416.271C98.4661 416.532 99.013 416.662 99.6445 416.662C100.445 416.662 101.083 416.535 101.559 416.281C102.034 416.027 102.392 415.663 102.633 415.188C102.88 414.712 103.056 414.143 103.16 413.479ZM116.637 416.467V418H109.107V416.467H116.637ZM109.488 403.781V418H107.604V403.781H109.488ZM115.641 409.895V411.428H109.107V409.895H115.641ZM116.539 403.781V405.324H109.107V403.781H116.539Z" fill="white"/>
<rect x="124.754" y="388.5" width="74.9882" height="42.0833" rx="2.5" fill="white" stroke="#86665C"/>
<path d="M142.396 400V415H140.58V400H142.396ZM148.851 404.434L144.242 409.365L141.664 412.041L141.517 410.117L143.363 407.91L146.644 404.434H148.851ZM147.201 415L143.431 409.961L144.369 408.35L149.33 415H147.201ZM152.513 406.533V415H150.697V404.434H152.416L152.513 406.533ZM152.142 409.316L151.302 409.287C151.309 408.564 151.403 407.897 151.585 407.285C151.768 406.667 152.038 406.13 152.396 405.674C152.754 405.218 153.2 404.867 153.734 404.619C154.268 404.365 154.886 404.238 155.589 404.238C156.084 404.238 156.54 404.31 156.957 404.453C157.373 404.59 157.735 404.808 158.041 405.107C158.347 405.407 158.584 405.791 158.753 406.26C158.923 406.729 159.007 407.295 159.007 407.959V415H157.201V408.047C157.201 407.493 157.106 407.051 156.917 406.719C156.735 406.387 156.475 406.146 156.136 405.996C155.798 405.84 155.401 405.762 154.945 405.762C154.411 405.762 153.965 405.856 153.607 406.045C153.249 406.234 152.962 406.494 152.748 406.826C152.533 407.158 152.376 407.539 152.279 407.969C152.188 408.392 152.142 408.841 152.142 409.316ZM158.988 408.32L157.777 408.691C157.783 408.112 157.878 407.555 158.06 407.021C158.249 406.488 158.519 406.012 158.871 405.596C159.229 405.179 159.668 404.85 160.189 404.609C160.71 404.362 161.306 404.238 161.976 404.238C162.542 404.238 163.044 404.313 163.48 404.463C163.923 404.613 164.294 404.844 164.593 405.156C164.899 405.462 165.13 405.856 165.287 406.338C165.443 406.82 165.521 407.393 165.521 408.057V415H163.705V408.037C163.705 407.445 163.61 406.986 163.421 406.66C163.239 406.328 162.979 406.097 162.64 405.967C162.308 405.83 161.911 405.762 161.449 405.762C161.052 405.762 160.7 405.83 160.394 405.967C160.088 406.104 159.831 406.292 159.623 406.533C159.414 406.768 159.255 407.038 159.144 407.344C159.04 407.65 158.988 407.975 158.988 408.32Z" fill="#A59894"/>
<path d="M34.6836 107.467V109H27.1543V107.467H34.6836ZM27.5352 94.7812V109H25.6504V94.7812H27.5352ZM33.6875 100.895V102.428H27.1543V100.895H33.6875ZM34.5859 94.7812V96.3242H27.1543V94.7812H34.5859ZM47.9551 94.7812V109H46.0605L38.9023 98.0332V109H37.0176V94.7812H38.9023L46.0898 105.777V94.7812H47.9551ZM61.5 103.424H57.7012V101.891H61.5C62.2357 101.891 62.8314 101.773 63.2871 101.539C63.7428 101.305 64.0749 100.979 64.2832 100.562C64.498 100.146 64.6055 99.6706 64.6055 99.1367C64.6055 98.6484 64.498 98.1895 64.2832 97.7598C64.0749 97.3301 63.7428 96.985 63.2871 96.7246C62.8314 96.4577 62.2357 96.3242 61.5 96.3242H58.1406V109H56.2559V94.7812H61.5C62.5742 94.7812 63.4824 94.9668 64.2246 95.3379C64.9668 95.709 65.5299 96.2233 65.9141 96.8809C66.2982 97.5319 66.4902 98.2773 66.4902 99.1172C66.4902 100.029 66.2982 100.807 65.9141 101.451C65.5299 102.096 64.9668 102.587 64.2246 102.926C63.4824 103.258 62.5742 103.424 61.5 103.424ZM68.873 94.7812H73.5801C74.6478 94.7812 75.5495 94.944 76.2852 95.2695C77.0273 95.5951 77.5905 96.0768 77.9746 96.7148C78.3652 97.3464 78.5605 98.1243 78.5605 99.0488C78.5605 99.6999 78.4271 100.296 78.1602 100.836C77.8997 101.37 77.5221 101.826 77.0273 102.203C76.5391 102.574 75.9531 102.851 75.2695 103.033L74.7422 103.238H70.3184L70.2988 101.705H73.6387C74.3158 101.705 74.8789 101.588 75.3281 101.354C75.7773 101.113 76.1159 100.79 76.3438 100.387C76.5716 99.9831 76.6855 99.5371 76.6855 99.0488C76.6855 98.502 76.5781 98.0234 76.3633 97.6133C76.1484 97.2031 75.8099 96.8874 75.3477 96.666C74.8919 96.4382 74.3027 96.3242 73.5801 96.3242H70.7578V109H68.873V94.7812ZM77.1836 109L73.7266 102.555L75.6895 102.545L79.1953 108.883V109H77.1836ZM90.2305 107.467V109H82.7012V107.467H90.2305ZM83.082 94.7812V109H81.1973V94.7812H83.082ZM89.2344 100.895V102.428H82.7012V100.895H89.2344ZM90.1328 94.7812V96.3242H82.7012V94.7812H90.1328ZM84.5957 93.7266L86.4902 90.8555H88.668L86.0508 93.7266H84.5957ZM100.143 105.406C100.143 105.074 100.09 104.781 99.9863 104.527C99.8887 104.267 99.7129 104.033 99.459 103.824C99.2116 103.616 98.8665 103.417 98.4238 103.229C97.9876 103.04 97.4342 102.848 96.7637 102.652C96.0605 102.444 95.4258 102.213 94.8594 101.959C94.293 101.699 93.8079 101.402 93.4043 101.07C93.0007 100.738 92.6914 100.357 92.4766 99.9277C92.2617 99.498 92.1543 99.0065 92.1543 98.4531C92.1543 97.8997 92.2682 97.3887 92.4961 96.9199C92.724 96.4512 93.0495 96.0443 93.4727 95.6992C93.9023 95.3477 94.4134 95.0742 95.0059 94.8789C95.5983 94.6836 96.2591 94.5859 96.9883 94.5859C98.056 94.5859 98.9609 94.791 99.7031 95.2012C100.452 95.6048 101.021 96.1354 101.412 96.793C101.803 97.444 101.998 98.1406 101.998 98.8828H100.123C100.123 98.349 100.009 97.877 99.7812 97.4668C99.5534 97.0501 99.2083 96.7246 98.7461 96.4902C98.2839 96.2493 97.6979 96.1289 96.9883 96.1289C96.3177 96.1289 95.7643 96.2298 95.3281 96.4316C94.8919 96.6335 94.5664 96.9069 94.3516 97.252C94.1432 97.597 94.0391 97.9909 94.0391 98.4336C94.0391 98.7331 94.1009 99.0065 94.2246 99.2539C94.3548 99.4948 94.5534 99.7194 94.8203 99.9277C95.0938 100.136 95.4388 100.328 95.8555 100.504C96.2786 100.68 96.7832 100.849 97.3691 101.012C98.1764 101.24 98.873 101.493 99.459 101.773C100.045 102.053 100.527 102.369 100.904 102.721C101.288 103.066 101.572 103.46 101.754 103.902C101.943 104.339 102.037 104.833 102.037 105.387C102.037 105.966 101.92 106.49 101.686 106.959C101.451 107.428 101.116 107.828 100.68 108.16C100.243 108.492 99.7194 108.749 99.1074 108.932C98.502 109.107 97.8249 109.195 97.0762 109.195C96.4186 109.195 95.7708 109.104 95.1328 108.922C94.5013 108.74 93.9251 108.466 93.4043 108.102C92.89 107.737 92.4766 107.288 92.1641 106.754C91.8581 106.214 91.7051 105.589 91.7051 104.879H93.5801C93.5801 105.367 93.6745 105.787 93.8633 106.139C94.0521 106.484 94.3092 106.77 94.6348 106.998C94.9668 107.226 95.3411 107.395 95.7578 107.506C96.181 107.61 96.6204 107.662 97.0762 107.662C97.7337 107.662 98.2904 107.571 98.7461 107.389C99.2018 107.206 99.5469 106.946 99.7812 106.607C100.022 106.269 100.143 105.868 100.143 105.406ZM113.473 107.467V109H105.943V107.467H113.473ZM106.324 94.7812V109H104.439V94.7812H106.324ZM112.477 100.895V102.428H105.943V100.895H112.477ZM113.375 94.7812V96.3242H105.943V94.7812H113.375ZM126.744 94.7812V109H124.85L117.691 98.0332V109H115.807V94.7812H117.691L124.879 105.777V94.7812H126.744ZM135.045 94.7812V109H133.189V94.7812H135.045ZM139.615 94.7812V96.3242H128.629V94.7812H139.615ZM143.746 94.7812V109H141.861V94.7812H143.746ZM156.207 107.467V109H148.678V107.467H156.207ZM149.059 94.7812V109H147.174V94.7812H149.059ZM155.211 100.895V102.428H148.678V100.895H155.211ZM156.109 94.7812V96.3242H148.678V94.7812H156.109ZM167.164 107.467V109H160.055V107.467H167.164ZM160.426 94.7812V109H158.541V94.7812H160.426Z" fill="white"/>
<rect x="173.5" y="90.5" width="19" height="19" rx="2.5" fill="white" stroke="#86665C"/>
<path d="M188 96L181.333 104L178 100" stroke="#BF462E" stroke-width="2" stroke-linecap="round" stroke-linejoin="round"/>
<path d="M34.6836 159.467V161H27.1543V159.467H34.6836ZM27.5352 146.781V161H25.6504V146.781H27.5352ZM33.6875 152.895V154.428H27.1543V152.895H33.6875ZM34.5859 146.781V148.324H27.1543V146.781H34.5859ZM47.9551 146.781V161H46.0605L38.9023 150.033V161H37.0176V146.781H38.9023L46.0898 157.777V146.781H47.9551ZM64.8789 159.467V161H57.7695V159.467H64.8789ZM58.1406 146.781V161H56.2559V146.781H58.1406ZM69.0586 146.781V161H67.1738V146.781H69.0586ZM82.9941 153.92V159.125C82.8184 159.385 82.5384 159.678 82.1543 160.004C81.7702 160.323 81.2396 160.603 80.5625 160.844C79.8919 161.078 79.026 161.195 77.9648 161.195C77.099 161.195 76.3014 161.046 75.5723 160.746C74.8496 160.44 74.2214 159.997 73.6875 159.418C73.1602 158.832 72.75 158.122 72.457 157.289C72.1706 156.449 72.0273 155.499 72.0273 154.438V153.334C72.0273 152.273 72.151 151.326 72.3984 150.492C72.6523 149.659 73.0234 148.952 73.5117 148.373C74 147.787 74.599 147.344 75.3086 147.045C76.0182 146.739 76.832 146.586 77.75 146.586C78.8372 146.586 79.7454 146.775 80.4746 147.152C81.2103 147.523 81.7832 148.038 82.1934 148.695C82.61 149.353 82.877 150.102 82.9941 150.941H81.1094C81.0247 150.427 80.8555 149.958 80.6016 149.535C80.3542 149.112 79.9993 148.773 79.5371 148.52C79.0749 148.259 78.4792 148.129 77.75 148.129C77.0924 148.129 76.5228 148.249 76.041 148.49C75.5592 148.731 75.1621 149.076 74.8496 149.525C74.5371 149.975 74.3027 150.518 74.1465 151.156C73.9967 151.794 73.9219 152.514 73.9219 153.314V154.438C73.9219 155.258 74.0163 155.99 74.2051 156.635C74.4004 157.279 74.6771 157.829 75.0352 158.285C75.3932 158.734 75.8197 159.076 76.3145 159.311C76.8158 159.545 77.3691 159.662 77.9746 159.662C78.6452 159.662 79.1888 159.607 79.6055 159.496C80.0221 159.379 80.3477 159.242 80.582 159.086C80.8164 158.923 80.9954 158.77 81.1191 158.627V155.443H77.8281V153.92H82.9941ZM97.0566 146.781V161H95.1621L88.0039 150.033V161H86.1191V146.781H88.0039L95.1914 157.777V146.781H97.0566ZM109.43 159.467V161H101.9V159.467H109.43ZM102.281 146.781V161H100.396V146.781H102.281ZM108.434 152.895V154.428H101.9V152.895H108.434ZM109.332 146.781V148.324H101.9V146.781H109.332Z" fill="white"/>
<rect x="125.5" y="143.5" width="19" height="19" rx="2.5" fill="white" stroke="#86665C"/>
<path d="M140 149L133.333 157L130 153" stroke="#BF462E" stroke-width="2" stroke-linecap="round" stroke-linejoin="round"/>
<path d="M261.158 146.92V152.125C260.982 152.385 260.702 152.678 260.318 153.004C259.934 153.323 259.404 153.603 258.727 153.844C258.056 154.078 257.19 154.195 256.129 154.195C255.263 154.195 254.465 154.046 253.736 153.746C253.014 153.44 252.385 152.997 251.852 152.418C251.324 151.832 250.914 151.122 250.621 150.289C250.335 149.449 250.191 148.499 250.191 147.438V146.334C250.191 145.273 250.315 144.326 250.562 143.492C250.816 142.659 251.188 141.952 251.676 141.373C252.164 140.787 252.763 140.344 253.473 140.045C254.182 139.739 254.996 139.586 255.914 139.586C257.001 139.586 257.91 139.775 258.639 140.152C259.374 140.523 259.947 141.038 260.357 141.695C260.774 142.353 261.041 143.102 261.158 143.941H259.273C259.189 143.427 259.02 142.958 258.766 142.535C258.518 142.112 258.163 141.773 257.701 141.52C257.239 141.259 256.643 141.129 255.914 141.129C255.257 141.129 254.687 141.249 254.205 141.49C253.723 141.731 253.326 142.076 253.014 142.525C252.701 142.975 252.467 143.518 252.311 144.156C252.161 144.794 252.086 145.514 252.086 146.314V147.438C252.086 148.258 252.18 148.99 252.369 149.635C252.564 150.279 252.841 150.829 253.199 151.285C253.557 151.734 253.984 152.076 254.479 152.311C254.98 152.545 255.533 152.662 256.139 152.662C256.809 152.662 257.353 152.607 257.77 152.496C258.186 152.379 258.512 152.242 258.746 152.086C258.98 151.923 259.16 151.77 259.283 151.627V148.443H255.992V146.92H261.158ZM264.283 139.781H268.99C270.058 139.781 270.96 139.944 271.695 140.27C272.438 140.595 273.001 141.077 273.385 141.715C273.775 142.346 273.971 143.124 273.971 144.049C273.971 144.7 273.837 145.296 273.57 145.836C273.31 146.37 272.932 146.826 272.438 147.203C271.949 147.574 271.363 147.851 270.68 148.033L270.152 148.238H265.729L265.709 146.705H269.049C269.726 146.705 270.289 146.588 270.738 146.354C271.188 146.113 271.526 145.79 271.754 145.387C271.982 144.983 272.096 144.537 272.096 144.049C272.096 143.502 271.988 143.023 271.773 142.613C271.559 142.203 271.22 141.887 270.758 141.666C270.302 141.438 269.713 141.324 268.99 141.324H266.168V154H264.283V139.781ZM272.594 154L269.137 147.555L271.1 147.545L274.605 153.883V154H272.594ZM281.871 141.041L277.164 154H275.24L280.66 139.781H281.9L281.871 141.041ZM285.816 154L281.1 141.041L281.07 139.781H282.311L287.75 154H285.816ZM285.572 148.736V150.279H277.584V148.736H285.572ZM293.639 139.781V154H291.783V139.781H293.639ZM298.209 139.781V141.324H287.223V139.781H298.209ZM308.453 139.781H310.328V149.4C310.328 150.468 310.09 151.357 309.615 152.066C309.14 152.776 308.508 153.31 307.721 153.668C306.939 154.02 306.09 154.195 305.172 154.195C304.208 154.195 303.336 154.02 302.555 153.668C301.78 153.31 301.165 152.776 300.709 152.066C300.26 151.357 300.035 150.468 300.035 149.4V139.781H301.9V149.4C301.9 150.143 302.037 150.755 302.311 151.236C302.584 151.718 302.965 152.076 303.453 152.311C303.948 152.545 304.521 152.662 305.172 152.662C305.829 152.662 306.402 152.545 306.891 152.311C307.385 152.076 307.77 151.718 308.043 151.236C308.316 150.755 308.453 150.143 308.453 149.4V139.781ZM315.309 139.781V154H313.424V139.781H315.309ZM323.697 139.781V154H321.842V139.781H323.697ZM328.268 139.781V141.324H317.281V139.781H328.268Z" fill="white"/>
<rect x="343.5" y="136.5" width="19" height="19" rx="2.5" fill="white" stroke="#86665C"/>
<path d="M358 142L351.333 150L348 146" stroke="#BF462E" stroke-width="2" stroke-linecap="round" stroke-linejoin="round"/>
<path d="M30.9141 200.041L26.207 213H24.2832L29.7031 198.781H30.9434L30.9141 200.041ZM34.8594 213L30.1426 200.041L30.1133 198.781H31.3535L36.793 213H34.8594ZM34.6152 207.736V209.279H26.627V207.736H34.6152ZM42.6816 198.781V213H40.8262V198.781H42.6816ZM47.252 198.781V200.324H36.2656V198.781H47.252ZM58.3945 211.467V213H50.8652V211.467H58.3945ZM51.2461 198.781V213H49.3613V198.781H51.2461ZM57.3984 204.895V206.428H50.8652V204.895H57.3984ZM58.2969 198.781V200.324H50.8652V198.781H58.2969ZM69.3516 211.467V213H62.2422V211.467H69.3516ZM62.6133 198.781V213H60.7285V198.781H62.6133ZM73.5312 198.781V213H71.6465V198.781H73.5312ZM85.9922 211.467V213H78.4629V211.467H85.9922ZM78.8438 198.781V213H76.959V198.781H78.8438ZM84.9961 204.895V206.428H78.4629V204.895H84.9961ZM85.8945 198.781V200.324H78.4629V198.781H85.8945ZM88.3262 198.781H93.0332C94.1009 198.781 95.0026 198.944 95.7383 199.27C96.4805 199.595 97.0436 200.077 97.4277 200.715C97.8184 201.346 98.0137 202.124 98.0137 203.049C98.0137 203.7 97.8802 204.296 97.6133 204.836C97.3529 205.37 96.9753 205.826 96.4805 206.203C95.9922 206.574 95.4062 206.851 94.7227 207.033L94.1953 207.238H89.7715L89.752 205.705H93.0918C93.7689 205.705 94.332 205.588 94.7812 205.354C95.2305 205.113 95.569 204.79 95.7969 204.387C96.0247 203.983 96.1387 203.537 96.1387 203.049C96.1387 202.502 96.0312 202.023 95.8164 201.613C95.6016 201.203 95.263 200.887 94.8008 200.666C94.3451 200.438 93.7559 200.324 93.0332 200.324H90.2109V213H88.3262V198.781ZM96.6367 213L93.1797 206.555L95.1426 206.545L98.6484 212.883V213H96.6367Z" fill="white"/>
<rect x="118.5" y="195.5" width="19" height="19" rx="2.5" fill="white" stroke="#86665C"/>
<path d="M133 201L126.333 209L123 205" stroke="#BF462E" stroke-width="2" stroke-linecap="round" stroke-linejoin="round"/>
<path d="M258.25 106.406C258.25 106.074 258.198 105.781 258.094 105.527C257.996 105.267 257.82 105.033 257.566 104.824C257.319 104.616 256.974 104.417 256.531 104.229C256.095 104.04 255.542 103.848 254.871 103.652C254.168 103.444 253.533 103.213 252.967 102.959C252.4 102.699 251.915 102.402 251.512 102.07C251.108 101.738 250.799 101.357 250.584 100.928C250.369 100.498 250.262 100.007 250.262 99.4531C250.262 98.8997 250.376 98.3887 250.604 97.9199C250.831 97.4512 251.157 97.0443 251.58 96.6992C252.01 96.3477 252.521 96.0742 253.113 95.8789C253.706 95.6836 254.367 95.5859 255.096 95.5859C256.163 95.5859 257.068 95.791 257.811 96.2012C258.559 96.6048 259.129 97.1354 259.52 97.793C259.91 98.444 260.105 99.1406 260.105 99.8828H258.23C258.23 99.349 258.117 98.877 257.889 98.4668C257.661 98.0501 257.316 97.7246 256.854 97.4902C256.391 97.2493 255.805 97.1289 255.096 97.1289C254.425 97.1289 253.872 97.2298 253.436 97.4316C252.999 97.6335 252.674 97.9069 252.459 98.252C252.251 98.597 252.146 98.9909 252.146 99.4336C252.146 99.7331 252.208 100.007 252.332 100.254C252.462 100.495 252.661 100.719 252.928 100.928C253.201 101.136 253.546 101.328 253.963 101.504C254.386 101.68 254.891 101.849 255.477 102.012C256.284 102.24 256.98 102.493 257.566 102.773C258.152 103.053 258.634 103.369 259.012 103.721C259.396 104.066 259.679 104.46 259.861 104.902C260.05 105.339 260.145 105.833 260.145 106.387C260.145 106.966 260.027 107.49 259.793 107.959C259.559 108.428 259.223 108.828 258.787 109.16C258.351 109.492 257.827 109.749 257.215 109.932C256.609 110.107 255.932 110.195 255.184 110.195C254.526 110.195 253.878 110.104 253.24 109.922C252.609 109.74 252.033 109.466 251.512 109.102C250.997 108.737 250.584 108.288 250.271 107.754C249.965 107.214 249.812 106.589 249.812 105.879H251.688C251.688 106.367 251.782 106.787 251.971 107.139C252.16 107.484 252.417 107.77 252.742 107.998C253.074 108.226 253.449 108.395 253.865 108.506C254.288 108.61 254.728 108.662 255.184 108.662C255.841 108.662 256.398 108.571 256.854 108.389C257.309 108.206 257.654 107.946 257.889 107.607C258.13 107.269 258.25 106.868 258.25 106.406ZM267.801 95.7812V110H265.945V95.7812H267.801ZM272.371 95.7812V97.3242H261.385V95.7812H272.371ZM278.963 97.041L274.256 110H272.332L277.752 95.7812H278.992L278.963 97.041ZM282.908 110L278.191 97.041L278.162 95.7812H279.402L284.842 110H282.908ZM282.664 104.736V106.279H274.676V104.736H282.664ZM297.137 102.92V108.125C296.961 108.385 296.681 108.678 296.297 109.004C295.913 109.323 295.382 109.603 294.705 109.844C294.035 110.078 293.169 110.195 292.107 110.195C291.242 110.195 290.444 110.046 289.715 109.746C288.992 109.44 288.364 108.997 287.83 108.418C287.303 107.832 286.893 107.122 286.6 106.289C286.313 105.449 286.17 104.499 286.17 103.438V102.334C286.17 101.273 286.294 100.326 286.541 99.4922C286.795 98.6589 287.166 97.9525 287.654 97.373C288.143 96.7871 288.742 96.3444 289.451 96.0449C290.161 95.7389 290.975 95.5859 291.893 95.5859C292.98 95.5859 293.888 95.7747 294.617 96.1523C295.353 96.5234 295.926 97.0378 296.336 97.6953C296.753 98.3529 297.02 99.1016 297.137 99.9414H295.252C295.167 99.4271 294.998 98.9583 294.744 98.5352C294.497 98.112 294.142 97.7734 293.68 97.5195C293.217 97.2591 292.622 97.1289 291.893 97.1289C291.235 97.1289 290.665 97.2493 290.184 97.4902C289.702 97.7311 289.305 98.0762 288.992 98.5254C288.68 98.9746 288.445 99.5182 288.289 100.156C288.139 100.794 288.064 101.514 288.064 102.314V103.438C288.064 104.258 288.159 104.99 288.348 105.635C288.543 106.279 288.82 106.829 289.178 107.285C289.536 107.734 289.962 108.076 290.457 108.311C290.958 108.545 291.512 108.662 292.117 108.662C292.788 108.662 293.331 108.607 293.748 108.496C294.165 108.379 294.49 108.242 294.725 108.086C294.959 107.923 295.138 107.77 295.262 107.627V104.443H291.971V102.92H297.137ZM309.295 108.467V110H301.766V108.467H309.295ZM302.146 95.7812V110H300.262V95.7812H302.146ZM308.299 101.895V103.428H301.766V101.895H308.299ZM309.197 95.7812V97.3242H301.766V95.7812H309.197Z" fill="white"/>
<rect x="318.5" y="92.5" width="19" height="19" rx="2.5" fill="white" stroke="#86665C"/>
<path d="M333 98L326.333 106L323 102" stroke="#BF462E" stroke-width="2" stroke-linecap="round" stroke-linejoin="round"/>
<path d="M26.94 42.92L27.09 42.32H33.09L32.94 42.92H26.94ZM37.77 38.06C38.01 36.66 38.12 35.56 38.1 34.76C38.08 33.94 37.81 33.35 37.29 32.99C36.79 32.63 35.91 32.45 34.65 32.45H33.06C32.38 32.45 31.85 32.51 31.47 32.63C31.11 32.73 30.82 32.96 30.6 33.32C30.38 33.66 30.17 34.2 29.97 34.94L25.98 49.82C25.78 50.54 25.71 51.08 25.77 51.44C25.83 51.8 26.06 52.04 26.46 52.16C26.88 52.28 27.5 52.36 28.32 52.4L28.17 53C27.65 52.96 26.99 52.94 26.19 52.94C25.39 52.92 24.58 52.91 23.76 52.91C22.98 52.91 22.25 52.92 21.57 52.94C20.91 52.94 20.37 52.96 19.95 53L20.1 52.4C20.78 52.36 21.31 52.28 21.69 52.16C22.07 52.04 22.36 51.8 22.56 51.44C22.78 51.08 22.99 50.54 23.19 49.82L27.18 34.94C27.38 34.2 27.46 33.66 27.42 33.32C27.4 32.96 27.23 32.72 26.91 32.6C26.61 32.46 26.12 32.38 25.44 32.36L25.59 31.76C26.33 31.78 27.11 31.8 27.93 31.82C28.75 31.82 29.56 31.83 30.36 31.85C31.16 31.85 31.9 31.85 32.58 31.85C33.28 31.85 33.85 31.85 34.29 31.85C35.17 31.85 36.16 31.85 37.26 31.85C38.38 31.83 39.38 31.8 40.26 31.76C40 32.52 39.75 33.26 39.51 33.98C39.29 34.68 39.13 35.22 39.03 35.6C38.89 36.08 38.77 36.53 38.67 36.95C38.59 37.37 38.52 37.74 38.46 38.06H37.77ZM30.18 42.32C30.84 42.32 31.38 42.19 31.8 41.93C32.22 41.65 32.57 41.3 32.85 40.88C33.13 40.46 33.36 40.03 33.54 39.59C33.72 39.13 33.88 38.72 34.02 38.36H34.71C34.33 39.5 34.06 40.37 33.9 40.97C33.76 41.57 33.62 42.12 33.48 42.62C33.36 43.12 33.23 43.67 33.09 44.27C32.95 44.87 32.76 45.74 32.52 46.88H31.83C31.89 46.4 31.95 45.93 32.01 45.47C32.07 44.99 32.07 44.56 32.01 44.18C31.95 43.8 31.77 43.5 31.47 43.28C31.17 43.04 30.69 42.92 30.03 42.92L30.18 42.32ZM43.6622 32.12C43.7622 31.6 44.0222 31.15 44.4422 30.77C44.8822 30.39 45.3522 30.2 45.8522 30.2C46.3722 30.2 46.7722 30.39 47.0522 30.77C47.3522 31.15 47.4522 31.6 47.3522 32.12C47.2522 32.64 46.9822 33.09 46.5422 33.47C46.1222 33.85 45.6522 34.04 45.1322 34.04C44.6322 34.04 44.2322 33.85 43.9322 33.47C43.6522 33.09 43.5622 32.64 43.6622 32.12ZM42.7322 40.13C43.1522 38.89 43.0122 38.27 42.3122 38.27C41.8522 38.27 41.4422 38.52 41.0822 39.02C40.7222 39.52 40.3422 40.29 39.9422 41.33L39.5222 42.44H38.9522L39.7322 40.25C40.0322 39.41 40.3922 38.77 40.8122 38.33C41.2322 37.89 41.6722 37.59 42.1322 37.43C42.6122 37.25 43.0522 37.16 43.4522 37.16C44.0922 37.16 44.5622 37.29 44.8622 37.55C45.1622 37.81 45.3422 38.15 45.4022 38.57C45.4622 38.99 45.4422 39.45 45.3422 39.95C45.2422 40.43 45.1122 40.9 44.9522 41.36L41.7422 50.45C41.5422 51.03 41.4722 51.49 41.5322 51.83C41.6122 52.15 41.8422 52.31 42.2222 52.31C42.6222 52.31 43.0022 52.09 43.3622 51.65C43.7222 51.21 44.1222 50.41 44.5622 49.25L44.9822 48.14H45.5522L44.7722 50.33C44.4922 51.11 44.1522 51.73 43.7522 52.19C43.3522 52.63 42.9222 52.94 42.4622 53.12C42.0022 53.32 41.5422 53.42 41.0822 53.42C40.2222 53.42 39.6422 53.22 39.3422 52.82C39.0422 52.42 38.9322 51.9 39.0122 51.26C39.0922 50.62 39.2622 49.94 39.5222 49.22L42.7322 40.13ZM50.6323 50.45C50.4723 51.03 50.4223 51.49 50.4823 51.83C50.5423 52.15 50.7623 52.31 51.1423 52.31C51.5423 52.31 51.9123 52.09 52.2523 51.65C52.6123 51.19 52.9923 50.39 53.3923 49.25L53.7823 48.14H54.3523L53.6023 50.33C53.3423 51.09 53.0223 51.7 52.6423 52.16C52.2823 52.6 51.8823 52.92 51.4423 53.12C51.0023 53.32 50.5223 53.42 50.0023 53.42C49.3423 53.42 48.8523 53.29 48.5323 53.03C48.2323 52.79 48.0423 52.46 47.9623 52.04C47.9023 51.62 47.9123 51.17 47.9923 50.69C48.0923 50.19 48.2123 49.7 48.3523 49.22L53.2423 32.99C53.4423 32.31 53.4223 31.81 53.1823 31.49C52.9423 31.17 52.3323 31.01 51.3523 31.01L51.5623 30.38C52.6623 30.36 53.6323 30.25 54.4723 30.05C55.3123 29.83 56.1223 29.53 56.9023 29.15L50.6323 50.45ZM67.1426 37.58L67.0526 38.18H57.7226L57.8726 37.58H67.1426ZM59.5226 50.45C59.3426 51.11 59.3826 51.59 59.6426 51.89C59.9226 52.17 60.2826 52.31 60.7226 52.31C61.1626 52.31 61.6026 52.12 62.0426 51.74C62.5026 51.36 62.9526 50.55 63.3926 49.31L63.8126 48.14H64.3826L63.7526 50.03C63.3126 51.33 62.7426 52.22 62.0426 52.7C61.3626 53.18 60.5626 53.42 59.6426 53.42C58.8226 53.42 58.1926 53.25 57.7526 52.91C57.3326 52.55 57.0826 52.05 57.0026 51.41C56.9226 50.77 57.0026 50.04 57.2426 49.22L61.8926 33.02C62.3726 33 62.8426 32.96 63.3026 32.9C63.7826 32.84 64.2126 32.74 64.5926 32.6L59.5226 50.45ZM69.6007 53H66.9907L70.5907 40.13C70.7907 39.45 70.8507 38.97 70.7707 38.69C70.7107 38.41 70.5107 38.27 70.1707 38.27C69.7307 38.27 69.3307 38.5 68.9707 38.96C68.6107 39.42 68.2307 40.21 67.8307 41.33L67.4407 42.44H66.8707L67.6207 40.25C67.9207 39.41 68.2707 38.77 68.6707 38.33C69.0907 37.89 69.5207 37.59 69.9607 37.43C70.4207 37.25 70.8507 37.16 71.2507 37.16C71.8507 37.16 72.2707 37.29 72.5107 37.55C72.7707 37.81 72.9107 38.15 72.9307 38.57C72.9707 38.99 72.9407 39.45 72.8407 39.95C72.7607 40.43 72.6607 40.9 72.5407 41.36L69.6007 53ZM77.3107 37.91C76.8507 37.91 76.3707 38.13 75.8707 38.57C75.3907 38.99 74.8907 39.61 74.3707 40.43C73.8707 41.23 73.3607 42.2 72.8407 43.34C72.3407 44.46 71.8407 45.71 71.3407 47.09C70.8607 48.47 70.3907 49.96 69.9307 51.56L70.6807 47.72C71.3407 45.76 71.9507 44.11 72.5107 42.77C73.0907 41.43 73.6607 40.35 74.2207 39.53C74.7807 38.69 75.3507 38.09 75.9307 37.73C76.5307 37.35 77.1607 37.16 77.8207 37.16C78.3807 37.16 78.8107 37.32 79.1107 37.64C79.4307 37.96 79.5907 38.37 79.5907 38.87C79.5907 39.27 79.4907 39.64 79.2907 39.98C79.0907 40.3 78.8307 40.56 78.5107 40.76C78.2107 40.94 77.8707 41.03 77.4907 41.03C77.1507 41.03 76.8607 40.94 76.6207 40.76C76.4007 40.56 76.2907 40.29 76.2907 39.95C76.2907 39.63 76.3507 39.35 76.4707 39.11C76.5907 38.85 76.7507 38.63 76.9507 38.45C77.1507 38.27 77.3807 38.13 77.6407 38.03C77.6007 37.99 77.5507 37.96 77.4907 37.94C77.4507 37.92 77.3907 37.91 77.3107 37.91ZM80.6782 46.19C81.7982 45.81 82.8082 45.44 83.7082 45.08C84.6282 44.7 85.3582 44.3 85.8982 43.88C86.6182 43.3 87.1882 42.6 87.6082 41.78C88.0282 40.96 88.2382 40.06 88.2382 39.08C88.2382 38.5 88.1982 38.13 88.1182 37.97C88.0382 37.81 87.9182 37.73 87.7582 37.73C87.2582 37.73 86.7182 37.95 86.1382 38.39C85.5582 38.83 84.9882 39.44 84.4282 40.22C83.8682 40.98 83.3482 41.85 82.8682 42.83C82.4082 43.81 82.0382 44.86 81.7582 45.98C81.4782 47.08 81.3382 48.18 81.3382 49.28C81.3382 50.3 81.5282 51.04 81.9082 51.5C82.2882 51.94 82.7882 52.16 83.4082 52.16C84.1282 52.16 84.8882 51.94 85.6882 51.5C86.4882 51.06 87.2682 50.28 88.0282 49.16L88.5082 49.4C88.1282 50.06 87.6282 50.7 87.0082 51.32C86.3882 51.94 85.6882 52.45 84.9082 52.85C84.1482 53.23 83.3382 53.42 82.4782 53.42C81.6782 53.42 80.9782 53.26 80.3782 52.94C79.7782 52.62 79.3182 52.15 78.9982 51.53C78.6782 50.89 78.5182 50.11 78.5182 49.19C78.5182 48.33 78.6782 47.37 78.9982 46.31C79.3182 45.23 79.7682 44.16 80.3482 43.1C80.9482 42.02 81.6582 41.03 82.4782 40.13C83.2982 39.23 84.2082 38.51 85.2082 37.97C86.2082 37.43 87.2782 37.16 88.4182 37.16C89.0382 37.16 89.5582 37.33 89.9782 37.67C90.4182 37.99 90.6382 38.48 90.6382 39.14C90.6382 39.94 90.3982 40.69 89.9182 41.39C89.4582 42.07 88.8382 42.7 88.0582 43.28C87.2982 43.84 86.4682 44.34 85.5682 44.78C84.6682 45.22 83.7882 45.6 82.9282 45.92C82.0682 46.24 81.3082 46.5 80.6482 46.7L80.6782 46.19ZM91.7695 51.83C92.1895 51.55 92.5695 51.32 92.9095 51.14C93.2695 50.94 93.5995 50.78 93.8995 50.66C94.1995 50.52 94.4795 50.42 94.7395 50.36C95.0195 50.3 95.2995 50.27 95.5795 50.27C96.0595 50.27 96.5095 50.35 96.9295 50.51C97.3495 50.67 97.7795 50.83 98.2195 50.99C98.6595 51.15 99.1295 51.23 99.6295 51.23C100.15 51.23 100.55 51.11 100.83 50.87C101.13 50.61 101.28 50.23 101.28 49.73C101.28 49.19 101.06 48.73 100.62 48.35C100.18 47.97 99.6095 47.71 98.9095 47.57L99.0895 47.12C100.01 47.32 100.72 47.67 101.22 48.17C101.74 48.65 102 49.27 102 50.03C102 50.55 101.88 51.06 101.64 51.56C101.42 52.04 101.06 52.43 100.56 52.73C100.06 53.03 99.3795 53.18 98.5195 53.18C97.9995 53.18 97.5395 53.12 97.1395 53C96.7595 52.86 96.3895 52.71 96.0295 52.55C95.6695 52.37 95.2795 52.22 94.8595 52.1C94.4395 51.96 93.9395 51.89 93.3595 51.89C92.8395 51.89 92.3595 51.97 91.9195 52.13C91.4995 52.27 91.0795 52.56 90.6595 53H89.8495L103.38 38.75C102.96 39.01 102.57 39.24 102.21 39.44C101.87 39.64 101.55 39.81 101.25 39.95C100.95 40.07 100.66 40.16 100.38 40.22C100.12 40.28 99.8495 40.31 99.5695 40.31C99.0895 40.31 98.6395 40.23 98.2195 40.07C97.7995 39.91 97.3695 39.75 96.9295 39.59C96.5095 39.43 96.0395 39.35 95.5195 39.35C95.0195 39.35 94.6195 39.47 94.3195 39.71C94.0195 39.95 93.8695 40.33 93.8695 40.85C93.8695 41.39 94.0895 41.85 94.5295 42.23C94.9895 42.61 95.5595 42.87 96.2395 43.01L96.0595 43.46C95.1395 43.24 94.4195 42.89 93.8995 42.41C93.3995 41.93 93.1495 41.31 93.1495 40.55C93.1495 40.01 93.2595 39.5 93.4795 39.02C93.7195 38.54 94.0895 38.15 94.5895 37.85C95.1095 37.55 95.7895 37.4 96.6295 37.4C97.1495 37.4 97.5995 37.47 97.9795 37.61C98.3795 37.73 98.7595 37.88 99.1195 38.06C99.4795 38.22 99.8695 38.37 100.29 38.51C100.71 38.63 101.21 38.69 101.79 38.69C102.31 38.69 102.78 38.62 103.2 38.48C103.64 38.32 104.07 38.02 104.49 37.58H105.3L91.7695 51.83ZM115.027 50.45C114.867 51.03 114.817 51.49 114.877 51.83C114.937 52.15 115.157 52.31 115.537 52.31C115.937 52.31 116.307 52.09 116.647 51.65C117.007 51.19 117.387 50.39 117.787 49.25L118.177 48.14H118.747L117.997 50.33C117.737 51.09 117.417 51.7 117.037 52.16C116.677 52.6 116.277 52.92 115.837 53.12C115.397 53.32 114.917 53.42 114.397 53.42C113.737 53.42 113.247 53.29 112.927 53.03C112.627 52.79 112.437 52.46 112.357 52.04C112.297 51.62 112.307 51.17 112.387 50.69C112.487 50.19 112.607 49.7 112.747 49.22L117.637 32.99C117.837 32.31 117.817 31.81 117.577 31.49C117.337 31.17 116.727 31.01 115.747 31.01L115.957 30.38C117.057 30.36 118.027 30.25 118.867 30.05C119.707 29.83 120.517 29.53 121.297 29.15L115.027 50.45ZM128.597 33.47C128.597 34.51 128.207 35.55 127.427 36.59C126.647 37.61 125.567 38.46 124.187 39.14L124.037 38.72C124.977 38.14 125.727 37.51 126.287 36.83C126.847 36.15 127.157 35.47 127.217 34.79C126.977 34.99 126.727 35.17 126.467 35.33C126.207 35.47 125.937 35.54 125.657 35.54C125.297 35.54 125.017 35.45 124.817 35.27C124.617 35.07 124.517 34.81 124.517 34.49C124.517 34.05 124.647 33.62 124.907 33.2C125.187 32.78 125.537 32.43 125.957 32.15C126.377 31.85 126.817 31.7 127.277 31.7C127.737 31.7 128.067 31.88 128.267 32.24C128.487 32.6 128.597 33.01 128.597 33.47ZM130.868 52.46C131.348 52.46 131.898 52.16 132.518 51.56C133.138 50.94 133.768 50.11 134.408 49.07C135.048 48.03 135.638 46.85 136.178 45.53C136.718 44.21 137.148 42.84 137.468 41.42L136.958 44.66C136.198 46.78 135.438 48.49 134.678 49.79C133.918 51.07 133.148 52 132.368 52.58C131.588 53.14 130.798 53.42 129.998 53.42C129.058 53.42 128.348 53.08 127.868 52.4C127.408 51.72 127.178 50.85 127.178 49.79C127.178 48.83 127.338 47.79 127.658 46.67C127.978 45.53 128.418 44.4 128.978 43.28C129.558 42.16 130.218 41.14 130.958 40.22C131.698 39.3 132.498 38.56 133.358 38C134.238 37.44 135.128 37.16 136.028 37.16C136.728 37.16 137.258 37.51 137.618 38.21C137.998 38.89 138.078 39.85 137.858 41.09L137.528 41.27C137.668 40.21 137.598 39.36 137.318 38.72C137.038 38.06 136.578 37.73 135.938 37.73C135.418 37.73 134.868 37.99 134.288 38.51C133.728 39.01 133.178 39.7 132.638 40.58C132.118 41.44 131.638 42.41 131.198 43.49C130.778 44.57 130.438 45.69 130.178 46.85C129.938 47.99 129.818 49.09 129.818 50.15C129.818 51.01 129.908 51.61 130.088 51.95C130.288 52.29 130.548 52.46 130.868 52.46ZM138.428 37.58C138.908 37.56 139.388 37.52 139.868 37.46C140.348 37.4 140.788 37.3 141.188 37.16L137.438 50.42C137.398 50.6 137.338 50.84 137.258 51.14C137.198 51.42 137.198 51.68 137.258 51.92C137.338 52.16 137.548 52.28 137.888 52.28C138.288 52.28 138.678 52.06 139.058 51.62C139.438 51.18 139.818 50.38 140.198 49.22L140.558 48.11H141.128L140.378 50.3C140.098 51.1 139.758 51.73 139.358 52.19C138.978 52.63 138.578 52.94 138.158 53.12C137.738 53.32 137.328 53.42 136.928 53.42C136.148 53.42 135.598 53.16 135.278 52.64C135.018 52.18 134.948 51.65 135.068 51.05C135.188 50.43 135.328 49.81 135.488 49.19L138.428 37.58ZM149.091 46.25L149.841 46.28C149.121 46.68 148.451 47.05 147.831 47.39C147.231 47.71 146.741 48.01 146.361 48.29C145.981 48.57 145.791 48.84 145.791 49.1C145.791 49.3 145.931 49.49 146.211 49.67C146.491 49.83 146.951 49.99 147.591 50.15L149.781 50.72C150.421 50.88 150.991 51.07 151.491 51.29C152.011 51.49 152.421 51.75 152.721 52.07C153.021 52.39 153.171 52.81 153.171 53.33C153.171 53.83 153.001 54.39 152.661 55.01C152.341 55.65 151.831 56.26 151.131 56.84C150.451 57.42 149.561 57.9 148.461 58.28C147.361 58.66 146.031 58.85 144.471 58.85C143.431 58.85 142.561 58.75 141.861 58.55C141.141 58.37 140.611 58.11 140.271 57.77C139.911 57.43 139.731 57.04 139.731 56.6C139.731 56.28 139.821 55.94 140.001 55.58C140.181 55.24 140.451 54.9 140.811 54.56C141.151 54.24 141.591 53.93 142.131 53.63C142.651 53.35 143.271 53.11 143.991 52.91L144.201 53.36C143.461 53.74 142.951 54.17 142.671 54.65C142.391 55.13 142.251 55.61 142.251 56.09C142.251 56.89 142.531 57.46 143.091 57.8C143.651 58.16 144.341 58.34 145.161 58.34C145.821 58.34 146.501 58.23 147.201 58.01C147.901 57.81 148.551 57.53 149.151 57.17C149.751 56.83 150.231 56.43 150.591 55.97C150.951 55.51 151.131 55.03 151.131 54.53C151.131 54.23 151.031 54.03 150.831 53.93C150.651 53.83 150.341 53.73 149.901 53.63L145.311 52.46C144.831 52.34 144.441 52.14 144.141 51.86C143.841 51.56 143.691 51.16 143.691 50.66C143.691 50.26 143.831 49.85 144.111 49.43C144.391 49.01 144.921 48.55 145.701 48.05C146.481 47.53 147.611 46.93 149.091 46.25ZM150.621 37.7C149.981 37.7 149.441 37.89 149.001 38.27C148.561 38.63 148.191 39.1 147.891 39.68C147.611 40.24 147.391 40.83 147.231 41.45C147.091 42.07 146.991 42.64 146.931 43.16C146.871 43.66 146.841 44.03 146.841 44.27C146.841 44.91 146.981 45.37 147.261 45.65C147.561 45.93 147.951 46.07 148.431 46.07C149.191 46.07 149.801 45.84 150.261 45.38C150.741 44.92 151.111 44.35 151.371 43.67C151.631 42.99 151.801 42.31 151.881 41.63C151.981 40.95 152.031 40.38 152.031 39.92C152.031 39.24 151.941 38.7 151.761 38.3C151.581 37.9 151.201 37.7 150.621 37.7ZM150.741 37.16C151.921 37.16 152.871 37.43 153.591 37.97C154.331 38.49 154.701 39.34 154.701 40.52C154.701 41.48 154.431 42.43 153.891 43.37C153.351 44.31 152.591 45.09 151.611 45.71C150.631 46.31 149.471 46.61 148.131 46.61C147.031 46.61 146.101 46.35 145.341 45.83C144.601 45.29 144.231 44.46 144.231 43.34C144.231 42.8 144.341 42.18 144.561 41.48C144.801 40.76 145.171 40.08 145.671 39.44C146.171 38.78 146.831 38.24 147.651 37.82C148.491 37.38 149.521 37.16 150.741 37.16ZM152.871 38.72L152.331 38.51C152.611 37.83 153.091 37.23 153.771 36.71C154.451 36.19 155.161 35.93 155.901 35.93C156.421 35.93 156.841 36.08 157.161 36.38C157.481 36.66 157.641 37.11 157.641 37.73C157.641 38.29 157.501 38.7 157.221 38.96C156.941 39.22 156.641 39.35 156.321 39.35C156.001 39.35 155.691 39.25 155.391 39.05C155.111 38.83 154.941 38.49 154.881 38.03C154.821 37.57 154.951 36.98 155.271 36.26L155.661 36.35C154.821 36.67 154.221 37.01 153.861 37.37C153.501 37.71 153.171 38.16 152.871 38.72ZM158.608 46.19C159.728 45.81 160.738 45.44 161.638 45.08C162.558 44.7 163.288 44.3 163.828 43.88C164.548 43.3 165.118 42.6 165.538 41.78C165.958 40.96 166.168 40.06 166.168 39.08C166.168 38.5 166.128 38.13 166.048 37.97C165.968 37.81 165.848 37.73 165.688 37.73C165.188 37.73 164.648 37.95 164.068 38.39C163.488 38.83 162.918 39.44 162.358 40.22C161.798 40.98 161.278 41.85 160.798 42.83C160.338 43.81 159.968 44.86 159.688 45.98C159.408 47.08 159.268 48.18 159.268 49.28C159.268 50.3 159.458 51.04 159.838 51.5C160.218 51.94 160.718 52.16 161.338 52.16C162.058 52.16 162.818 51.94 163.618 51.5C164.418 51.06 165.198 50.28 165.958 49.16L166.438 49.4C166.058 50.06 165.558 50.7 164.938 51.32C164.318 51.94 163.618 52.45 162.838 52.85C162.078 53.23 161.268 53.42 160.408 53.42C159.608 53.42 158.908 53.26 158.308 52.94C157.708 52.62 157.248 52.15 156.928 51.53C156.608 50.89 156.448 50.11 156.448 49.19C156.448 48.33 156.608 47.37 156.928 46.31C157.248 45.23 157.698 44.16 158.278 43.1C158.878 42.02 159.588 41.03 160.408 40.13C161.228 39.23 162.138 38.51 163.138 37.97C164.138 37.43 165.208 37.16 166.348 37.16C166.968 37.16 167.488 37.33 167.908 37.67C168.348 37.99 168.568 38.48 168.568 39.14C168.568 39.94 168.328 40.69 167.848 41.39C167.388 42.07 166.768 42.7 165.988 43.28C165.228 43.84 164.398 44.34 163.498 44.78C162.598 45.22 161.718 45.6 160.858 45.92C159.998 46.24 159.238 46.5 158.578 46.7L158.608 46.19ZM172.609 53H169.999L173.599 40.13C173.679 39.89 173.739 39.63 173.779 39.35C173.839 39.05 173.829 38.8 173.749 38.6C173.669 38.38 173.469 38.27 173.149 38.27C172.709 38.27 172.319 38.49 171.979 38.93C171.639 39.35 171.259 40.15 170.839 41.33L170.449 42.44H169.879L170.629 40.25C171.069 38.99 171.609 38.16 172.249 37.76C172.909 37.36 173.559 37.16 174.199 37.16C174.799 37.16 175.229 37.29 175.489 37.55C175.769 37.81 175.919 38.15 175.939 38.57C175.979 38.97 175.949 39.42 175.849 39.92C175.769 40.4 175.669 40.88 175.549 41.36L172.609 53ZM173.989 46.76C174.689 44.96 175.369 43.45 176.029 42.23C176.689 41.01 177.339 40.03 177.979 39.29C178.619 38.53 179.269 37.99 179.929 37.67C180.609 37.33 181.309 37.16 182.029 37.16C182.969 37.16 183.609 37.39 183.949 37.85C184.309 38.29 184.469 38.86 184.429 39.56C184.389 40.24 184.249 40.95 184.009 41.69L181.099 50.45C180.919 50.99 180.839 51.44 180.859 51.8C180.899 52.14 181.139 52.31 181.579 52.31C181.959 52.31 182.329 52.1 182.689 51.68C183.069 51.26 183.469 50.45 183.889 49.25L184.279 48.14H184.849L184.099 50.33C183.819 51.17 183.469 51.81 183.049 52.25C182.649 52.69 182.219 52.99 181.759 53.15C181.319 53.33 180.889 53.42 180.469 53.42C179.989 53.42 179.589 53.34 179.269 53.18C178.969 53.02 178.739 52.81 178.579 52.55C178.359 52.19 178.289 51.72 178.369 51.14C178.449 50.56 178.609 49.92 178.849 49.22L181.699 40.64C181.799 40.36 181.879 40.03 181.939 39.65C182.019 39.25 182.009 38.9 181.909 38.6C181.809 38.28 181.519 38.12 181.039 38.12C180.559 38.12 180.049 38.33 179.509 38.75C178.969 39.17 178.409 39.77 177.829 40.55C177.249 41.31 176.679 42.23 176.119 43.31C175.559 44.37 175.019 45.55 174.499 46.85C173.999 48.13 173.539 49.5 173.119 50.96L173.989 46.76ZM197.422 50.45C197.282 50.91 197.222 51.34 197.242 51.74C197.282 52.12 197.522 52.31 197.962 52.31C198.362 52.31 198.732 52.09 199.072 51.65C199.412 51.19 199.772 50.39 200.152 49.25L200.512 48.14H201.082L200.392 50.33C200.152 51.13 199.832 51.76 199.432 52.22C199.032 52.66 198.612 52.97 198.172 53.15C197.732 53.33 197.312 53.42 196.912 53.42C195.712 53.42 195.082 52.85 195.022 51.71C195.002 51.39 195.022 51.02 195.082 50.6C195.162 50.18 195.272 49.72 195.412 49.22L199.732 32.99C199.912 32.31 199.882 31.81 199.642 31.49C199.402 31.17 198.792 31.01 197.812 31.01L197.992 30.38C199.092 30.36 200.062 30.25 200.902 30.05C201.742 29.83 202.542 29.53 203.302 29.15L197.422 50.45ZM190.702 52.46C191.202 52.46 191.762 52.17 192.382 51.59C193.022 50.99 193.662 50.19 194.302 49.19C194.962 48.17 195.562 47.02 196.102 45.74C196.662 44.44 197.102 43.1 197.422 41.72L196.972 44.96C196.192 47.02 195.412 48.67 194.632 49.91C193.872 51.15 193.092 52.05 192.292 52.61C191.512 53.15 190.692 53.42 189.832 53.42C189.212 53.42 188.662 53.28 188.182 53C187.722 52.7 187.362 52.26 187.102 51.68C186.842 51.1 186.712 50.36 186.712 49.46C186.712 48.5 186.862 47.47 187.162 46.37C187.482 45.25 187.932 44.15 188.512 43.07C189.092 41.99 189.782 41.01 190.582 40.13C191.402 39.23 192.302 38.51 193.282 37.97C194.262 37.43 195.302 37.16 196.402 37.16C196.862 37.16 197.292 37.34 197.692 37.7C198.092 38.04 198.312 38.56 198.352 39.26L198.112 39.86C198.032 39.14 197.832 38.63 197.512 38.33C197.192 38.01 196.832 37.85 196.432 37.85C195.672 37.85 194.932 38.11 194.212 38.63C193.512 39.15 192.872 39.84 192.292 40.7C191.712 41.56 191.202 42.52 190.762 43.58C190.322 44.62 189.982 45.69 189.742 46.79C189.502 47.87 189.382 48.89 189.382 49.85C189.382 50.73 189.492 51.39 189.712 51.83C189.932 52.25 190.262 52.46 190.702 52.46ZM206.571 52.46C207.051 52.46 207.601 52.16 208.221 51.56C208.841 50.94 209.471 50.11 210.111 49.07C210.751 48.03 211.341 46.85 211.881 45.53C212.421 44.21 212.851 42.84 213.171 41.42L212.661 44.66C211.901 46.78 211.141 48.49 210.381 49.79C209.621 51.07 208.851 52 208.071 52.58C207.291 53.14 206.501 53.42 205.701 53.42C204.761 53.42 204.051 53.08 203.571 52.4C203.111 51.72 202.881 50.85 202.881 49.79C202.881 48.83 203.041 47.79 203.361 46.67C203.681 45.53 204.121 44.4 204.681 43.28C205.261 42.16 205.921 41.14 206.661 40.22C207.401 39.3 208.201 38.56 209.061 38C209.941 37.44 210.831 37.16 211.731 37.16C212.431 37.16 212.961 37.51 213.321 38.21C213.701 38.89 213.781 39.85 213.561 41.09L213.231 41.27C213.371 40.21 213.301 39.36 213.021 38.72C212.741 38.06 212.281 37.73 211.641 37.73C211.121 37.73 210.571 37.99 209.991 38.51C209.431 39.01 208.881 39.7 208.341 40.58C207.821 41.44 207.341 42.41 206.901 43.49C206.481 44.57 206.141 45.69 205.881 46.85C205.641 47.99 205.521 49.09 205.521 50.15C205.521 51.01 205.611 51.61 205.791 51.95C205.991 52.29 206.251 52.46 206.571 52.46ZM214.131 37.58C214.611 37.56 215.091 37.52 215.571 37.46C216.051 37.4 216.491 37.3 216.891 37.16L213.141 50.42C213.101 50.6 213.041 50.84 212.961 51.14C212.901 51.42 212.901 51.68 212.961 51.92C213.041 52.16 213.251 52.28 213.591 52.28C213.991 52.28 214.381 52.06 214.761 51.62C215.141 51.18 215.521 50.38 215.901 49.22L216.261 48.11H216.831L216.081 50.3C215.801 51.1 215.461 51.73 215.061 52.19C214.681 52.63 214.281 52.94 213.861 53.12C213.441 53.32 213.031 53.42 212.631 53.42C211.851 53.42 211.301 53.16 210.981 52.64C210.721 52.18 210.651 51.65 210.771 51.05C210.891 50.43 211.031 49.81 211.191 49.19L214.131 37.58Z" fill="white"/>
</svg>
