<svg width="537" height="213" viewBox="0 0 537 213" fill="none" xmlns="http://www.w3.org/2000/svg">
<rect width="448" height="213" rx="20" fill="#E4734C"/>
<rect x="24" y="144" width="150" height="45" rx="22.5" fill="#BF462E"/>
<path d="M60.3463 170.356C60.3463 170.057 60.2994 169.793 60.2056 169.565C60.1177 169.33 59.9595 169.119 59.731 168.932C59.5084 168.744 59.1978 168.566 58.7994 168.396C58.4068 168.226 57.9088 168.053 57.3052 167.877C56.6724 167.69 56.1011 167.482 55.5914 167.253C55.0816 167.019 54.6451 166.752 54.2818 166.453C53.9185 166.155 53.6402 165.812 53.4468 165.425C53.2535 165.038 53.1568 164.596 53.1568 164.098C53.1568 163.6 53.2593 163.14 53.4644 162.718C53.6695 162.296 53.9625 161.93 54.3433 161.619C54.7301 161.303 55.19 161.057 55.7232 160.881C56.2564 160.705 56.8511 160.617 57.5074 160.617C58.4683 160.617 59.2828 160.802 59.9508 161.171C60.6246 161.534 61.1373 162.012 61.4888 162.604C61.8404 163.19 62.0162 163.817 62.0162 164.485H60.3287C60.3287 164.004 60.2261 163.579 60.0211 163.21C59.816 162.835 59.5054 162.542 59.0894 162.331C58.6734 162.115 58.1461 162.006 57.5074 162.006C56.9039 162.006 56.4058 162.097 56.0133 162.279C55.6207 162.46 55.3277 162.706 55.1343 163.017C54.9468 163.327 54.8531 163.682 54.8531 164.08C54.8531 164.35 54.9088 164.596 55.0201 164.819C55.1373 165.035 55.316 165.238 55.5562 165.425C55.8023 165.613 56.1129 165.785 56.4879 165.944C56.8687 166.102 57.3228 166.254 57.8502 166.401C58.5767 166.606 59.2037 166.834 59.731 167.086C60.2584 167.338 60.692 167.622 61.0318 167.939C61.3775 168.249 61.6324 168.604 61.7965 169.002C61.9664 169.395 62.0513 169.84 62.0513 170.338C62.0513 170.86 61.9459 171.331 61.7349 171.753C61.524 172.175 61.2222 172.535 60.8297 172.834C60.4371 173.133 59.9654 173.365 59.4146 173.529C58.8697 173.687 58.2603 173.766 57.5865 173.766C56.9947 173.766 56.4117 173.684 55.8375 173.52C55.2691 173.356 54.7506 173.11 54.2818 172.782C53.8189 172.453 53.4468 172.049 53.1656 171.569C52.8902 171.082 52.7525 170.52 52.7525 169.881H54.44C54.44 170.321 54.525 170.699 54.6949 171.015C54.8648 171.326 55.0963 171.583 55.3892 171.788C55.6881 171.993 56.025 172.146 56.4 172.245C56.7808 172.339 57.1763 172.386 57.5865 172.386C58.1783 172.386 58.6793 172.304 59.0894 172.14C59.4996 171.976 59.8101 171.742 60.0211 171.437C60.2379 171.132 60.3463 170.772 60.3463 170.356ZM74.066 166.787V167.596C74.066 168.557 73.9459 169.418 73.7056 170.18C73.4654 170.942 73.1197 171.589 72.6685 172.122C72.2174 172.656 71.6754 173.063 71.0426 173.344C70.4156 173.625 69.7125 173.766 68.9332 173.766C68.1773 173.766 67.483 173.625 66.8502 173.344C66.2232 173.063 65.6783 172.656 65.2154 172.122C64.7584 171.589 64.4039 170.942 64.1519 170.18C63.9 169.418 63.774 168.557 63.774 167.596V166.787C63.774 165.826 63.897 164.968 64.1431 164.212C64.3951 163.451 64.7496 162.803 65.2066 162.27C65.6636 161.731 66.2056 161.321 66.8326 161.039C67.4654 160.758 68.1597 160.617 68.9156 160.617C69.6949 160.617 70.398 160.758 71.025 161.039C71.6578 161.321 72.1998 161.731 72.651 162.27C73.108 162.803 73.4566 163.451 73.6968 164.212C73.9429 164.968 74.066 165.826 74.066 166.787ZM72.3873 167.596V166.77C72.3873 166.008 72.3082 165.334 72.15 164.748C71.9976 164.162 71.772 163.67 71.4732 163.272C71.1744 162.873 70.8082 162.572 70.3746 162.367C69.9468 162.161 69.4605 162.059 68.9156 162.059C68.3883 162.059 67.9107 162.161 67.483 162.367C67.0611 162.572 66.6978 162.873 66.3931 163.272C66.0943 163.67 65.8629 164.162 65.6988 164.748C65.5347 165.334 65.4527 166.008 65.4527 166.77V167.596C65.4527 168.364 65.5347 169.043 65.6988 169.635C65.8629 170.221 66.0972 170.716 66.4019 171.12C66.7125 171.519 67.0787 171.821 67.5006 172.026C67.9283 172.231 68.4058 172.333 68.9332 172.333C69.484 172.333 69.9732 172.231 70.401 172.026C70.8287 171.821 71.189 171.519 71.482 171.12C71.7808 170.716 72.0064 170.221 72.1588 169.635C72.3111 169.043 72.3873 168.364 72.3873 167.596ZM83.9273 160.793H85.6148V169.451C85.6148 170.411 85.401 171.211 84.9732 171.85C84.5455 172.489 83.9771 172.969 83.2681 173.291C82.565 173.608 81.8004 173.766 80.9742 173.766C80.107 173.766 79.3218 173.608 78.6187 173.291C77.9215 172.969 77.3677 172.489 76.9576 171.85C76.5533 171.211 76.3511 170.411 76.3511 169.451V160.793H78.0299V169.451C78.0299 170.118 78.1529 170.669 78.399 171.103C78.6451 171.536 78.9879 171.859 79.4273 172.07C79.8726 172.281 80.3883 172.386 80.9742 172.386C81.566 172.386 82.0816 172.281 82.5211 172.07C82.9664 171.859 83.3121 171.536 83.5582 171.103C83.8043 170.669 83.9273 170.118 83.9273 169.451V160.793ZM95.0982 170.356C95.0982 170.057 95.0513 169.793 94.9576 169.565C94.8697 169.33 94.7115 169.119 94.483 168.932C94.2603 168.744 93.9498 168.566 93.5513 168.396C93.1588 168.226 92.6607 168.053 92.0572 167.877C91.4244 167.69 90.8531 167.482 90.3433 167.253C89.8336 167.019 89.397 166.752 89.0338 166.453C88.6705 166.155 88.3922 165.812 88.1988 165.425C88.0054 165.038 87.9088 164.596 87.9088 164.098C87.9088 163.6 88.0113 163.14 88.2164 162.718C88.4215 162.296 88.7144 161.93 89.0953 161.619C89.482 161.303 89.942 161.057 90.4752 160.881C91.0084 160.705 91.6031 160.617 92.2593 160.617C93.2203 160.617 94.0347 160.802 94.7027 161.171C95.3765 161.534 95.8892 162.012 96.2408 162.604C96.5924 163.19 96.7681 163.817 96.7681 164.485H95.0806C95.0806 164.004 94.9781 163.579 94.773 163.21C94.5679 162.835 94.2574 162.542 93.8414 162.331C93.4254 162.115 92.898 162.006 92.2593 162.006C91.6558 162.006 91.1578 162.097 90.7652 162.279C90.3726 162.46 90.0797 162.706 89.8863 163.017C89.6988 163.327 89.6051 163.682 89.6051 164.08C89.6051 164.35 89.6607 164.596 89.772 164.819C89.8892 165.035 90.0679 165.238 90.3082 165.425C90.5543 165.613 90.8648 165.785 91.2398 165.944C91.6207 166.102 92.0748 166.254 92.6021 166.401C93.3287 166.606 93.9556 166.834 94.483 167.086C95.0103 167.338 95.4439 167.622 95.7838 167.939C96.1295 168.249 96.3843 168.604 96.5484 169.002C96.7183 169.395 96.8033 169.84 96.8033 170.338C96.8033 170.86 96.6978 171.331 96.4869 171.753C96.276 172.175 95.9742 172.535 95.5816 172.834C95.189 173.133 94.7174 173.365 94.1666 173.529C93.6217 173.687 93.0123 173.766 92.3385 173.766C91.7467 173.766 91.1636 173.684 90.5894 173.52C90.0211 173.356 89.5025 173.11 89.0338 172.782C88.5709 172.453 88.1988 172.049 87.9176 171.569C87.6422 171.082 87.5045 170.52 87.5045 169.881H89.192C89.192 170.321 89.2769 170.699 89.4468 171.015C89.6168 171.326 89.8482 171.583 90.1412 171.788C90.44 171.993 90.7769 172.146 91.1519 172.245C91.5328 172.339 91.9283 172.386 92.3385 172.386C92.9302 172.386 93.4312 172.304 93.8414 172.14C94.2515 171.976 94.5621 171.742 94.773 171.437C94.9898 171.132 95.0982 170.772 95.0982 170.356ZM106.691 169.521H108.378C108.291 170.329 108.059 171.053 107.684 171.692C107.309 172.33 106.779 172.837 106.093 173.212C105.408 173.581 104.552 173.766 103.527 173.766C102.777 173.766 102.094 173.625 101.479 173.344C100.87 173.063 100.345 172.664 99.9058 172.149C99.4664 171.627 99.1265 171.003 98.8863 170.277C98.6519 169.544 98.5347 168.73 98.5347 167.833V166.559C98.5347 165.662 98.6519 164.851 98.8863 164.124C99.1265 163.392 99.4693 162.765 99.9146 162.243C100.366 161.722 100.908 161.321 101.541 161.039C102.173 160.758 102.885 160.617 103.676 160.617C104.643 160.617 105.461 160.799 106.128 161.162C106.796 161.526 107.315 162.03 107.684 162.674C108.059 163.313 108.291 164.054 108.378 164.898H106.691C106.609 164.3 106.457 163.787 106.234 163.36C106.011 162.926 105.695 162.592 105.285 162.358C104.875 162.123 104.338 162.006 103.676 162.006C103.108 162.006 102.607 162.115 102.173 162.331C101.746 162.548 101.385 162.856 101.092 163.254C100.805 163.653 100.588 164.13 100.442 164.687C100.295 165.243 100.222 165.862 100.222 166.541V167.833C100.222 168.46 100.287 169.049 100.416 169.6C100.55 170.151 100.753 170.634 101.022 171.05C101.292 171.466 101.634 171.794 102.05 172.034C102.466 172.269 102.959 172.386 103.527 172.386C104.248 172.386 104.822 172.272 105.25 172.043C105.677 171.815 106 171.487 106.216 171.059C106.439 170.631 106.597 170.118 106.691 169.521ZM110.69 160.793H114.926C115.887 160.793 116.699 160.94 117.361 161.233C118.029 161.526 118.536 161.959 118.881 162.534C119.233 163.102 119.409 163.802 119.409 164.634C119.409 165.22 119.289 165.756 119.048 166.242C118.814 166.723 118.474 167.133 118.029 167.473C117.589 167.807 117.062 168.056 116.447 168.22L115.972 168.405H111.991L111.973 167.025H114.979C115.588 167.025 116.095 166.919 116.5 166.708C116.904 166.492 117.209 166.201 117.414 165.838C117.619 165.475 117.721 165.074 117.721 164.634C117.721 164.142 117.625 163.711 117.431 163.342C117.238 162.973 116.933 162.689 116.517 162.49C116.107 162.284 115.577 162.182 114.926 162.182H112.386V173.59H110.69V160.793ZM118.17 173.59L115.058 167.789L116.825 167.781L119.98 173.485V173.59H118.17ZM123.601 160.793V173.59H121.905V160.793H123.601ZM126.686 160.793H130.922C131.883 160.793 132.695 160.94 133.357 161.233C134.025 161.526 134.532 161.959 134.878 162.534C135.229 163.102 135.405 163.802 135.405 164.634C135.405 165.22 135.285 165.756 135.045 166.242C134.81 166.723 134.47 167.133 134.025 167.473C133.586 167.807 133.058 168.056 132.443 168.22L131.968 168.405H127.987L127.969 167.025H130.975C131.585 167.025 132.091 166.919 132.496 166.708C132.9 166.492 133.205 166.201 133.41 165.838C133.615 165.475 133.717 165.074 133.717 164.634C133.717 164.142 133.621 163.711 133.427 163.342C133.234 162.973 132.929 162.689 132.513 162.49C132.103 162.284 131.573 162.182 130.922 162.182H128.382V173.59H126.686V160.793ZM134.166 173.59L131.054 167.789L132.821 167.781L135.976 173.485V173.59H134.166ZM145.908 172.21V173.59H139.131V172.21H145.908ZM139.474 160.793V173.59H137.778V160.793H139.474ZM145.011 166.295V167.675H139.131V166.295H145.011ZM145.82 160.793V162.182H139.131V160.793H145.82Z" fill="white"/>
<rect x="16.5384" y="68.5007" width="410.989" height="58.0198" rx="29.0099" transform="rotate(0.0757606 16.5384 68.5007)" fill="white" stroke="#86665C"/>
<path d="M40.6611 102.179C40.6615 101.847 40.6098 101.554 40.506 101.3C40.4087 101.039 40.2332 100.804 39.9796 100.596C39.7325 100.387 39.3877 100.188 38.9452 99.9986C38.5093 99.8092 37.9562 99.6164 37.2858 99.4202C36.583 99.211 35.9485 98.979 35.3825 98.7244C34.8164 98.4632 34.3318 98.1663 33.9286 97.8338C33.5254 97.5012 33.2166 97.1199 33.0023 96.69C32.7881 96.26 32.6813 95.7683 32.682 95.2149C32.6828 94.6616 32.7974 94.1506 33.0258 93.6822C33.2543 93.2137 33.5804 92.8073 34.004 92.4628C34.4342 92.1118 34.9456 91.839 35.5383 91.6445C36.131 91.45 36.7919 91.3532 37.5211 91.3541C38.5888 91.3556 39.4935 91.5618 40.2351 91.973C40.9833 92.3776 41.5523 92.909 41.942 93.567C42.3318 94.2186 42.5262 94.9155 42.5252 95.6576L40.6502 95.6552C40.6509 95.1213 40.5376 94.6492 40.3103 94.2387C40.083 93.8217 39.7383 93.4957 39.2764 93.2608C38.8145 93.0193 38.2287 92.898 37.5191 92.8971C36.8485 92.8962 36.295 92.9964 35.8585 93.1977C35.4221 93.3989 35.0962 93.6719 34.8809 94.0167C34.6721 94.3614 34.5674 94.7552 34.5668 95.1979C34.5664 95.4974 34.6279 95.7709 34.7513 96.0185C34.8812 96.2595 35.0794 96.4844 35.3461 96.6931C35.6192 96.9018 35.964 97.0943 36.3805 97.2706C36.8034 97.4469 37.3078 97.6169 37.8935 97.7804C38.7005 98.0094 39.3967 98.2642 39.9823 98.5449C40.5679 98.8256 41.0492 99.142 41.4264 99.4941C41.81 99.8396 42.0927 100.234 42.2744 100.677C42.4626 101.113 42.5564 101.608 42.5557 102.162C42.5549 102.741 42.437 103.265 42.202 103.733C41.967 104.202 41.6312 104.602 41.1946 104.933C40.7579 105.265 40.2335 105.521 39.6213 105.703C39.0156 105.878 38.3384 105.965 37.5897 105.964C36.9321 105.963 36.2845 105.871 35.6467 105.688C35.0154 105.504 34.4396 105.23 33.9193 104.865C33.4054 104.5 32.9926 104.05 32.6808 103.516C32.3755 102.975 32.2234 102.35 32.2243 101.64L34.0993 101.643C34.0987 102.131 34.1925 102.551 34.3808 102.903C34.5692 103.248 34.826 103.535 35.1512 103.763C35.4829 103.991 35.857 104.161 36.2736 104.272C36.6966 104.377 37.136 104.43 37.5917 104.43C38.2493 104.431 38.806 104.341 39.262 104.159C39.718 103.978 40.0634 103.718 40.2982 103.379C40.5395 103.041 40.6605 102.641 40.6611 102.179ZM50.9126 103.979L50.9198 98.5398C50.9204 98.1232 50.8362 97.7617 50.6674 97.4555C50.505 97.1428 50.2579 96.9016 49.9261 96.7319C49.5943 96.5622 49.1843 96.477 48.696 96.4763C48.2403 96.4757 47.8398 96.5533 47.4945 96.7091C47.1558 96.8649 46.8886 97.0697 46.6929 97.3233C46.5038 97.577 46.409 97.8503 46.4086 98.1432L44.602 98.1409C44.6025 97.7633 44.7006 97.389 44.8964 97.0182C45.0922 96.6474 45.3726 96.3124 45.7376 96.0134C46.1091 95.708 46.5521 95.4677 47.0667 95.2926C47.5878 95.1109 48.1673 95.0206 48.8053 95.0214C49.5736 95.0224 50.2505 95.1535 50.8361 95.4147C51.4282 95.6759 51.8899 96.0704 52.2212 96.5982C52.5591 97.1195 52.7275 97.774 52.7264 98.5618L52.7199 103.484C52.7195 103.835 52.7483 104.21 52.8063 104.607C52.8709 105.004 52.9649 105.346 53.0882 105.633L53.088 105.789L51.2032 105.786C51.1123 105.578 51.0411 105.301 50.9895 104.956C50.9379 104.604 50.9122 104.279 50.9126 103.979ZM51.2312 99.3801L51.2491 100.65L49.4229 100.647C48.9086 100.647 48.4495 100.688 48.0458 100.772C47.642 100.85 47.3033 100.97 47.0297 101.132C46.756 101.295 46.5474 101.5 46.4039 101.747C46.2603 101.987 46.1883 102.271 46.1879 102.596C46.1875 102.928 46.2619 103.231 46.4113 103.505C46.5607 103.778 46.785 103.997 47.0843 104.16C47.3901 104.316 47.7643 104.395 48.207 104.396C48.7604 104.396 49.2488 104.28 49.6723 104.046C50.0958 103.812 50.4315 103.526 50.6793 103.188C50.9337 102.85 51.0708 102.521 51.0908 102.202L51.8611 103.072C51.8152 103.346 51.6911 103.648 51.4888 103.98C51.2865 104.312 51.0159 104.63 50.677 104.936C50.3446 105.235 49.9471 105.485 49.4846 105.686C49.0286 105.881 48.5142 105.978 47.9412 105.977C47.2251 105.976 46.597 105.836 46.057 105.555C45.5235 105.274 45.1074 104.899 44.8085 104.43C44.5162 103.955 44.3704 103.424 44.3712 102.838C44.3719 102.271 44.4833 101.774 44.7052 101.344C44.9271 100.908 45.2466 100.547 45.6636 100.261C46.0807 99.969 46.5823 99.7483 47.1684 99.5993C47.7546 99.4504 48.409 99.3764 49.1316 99.3773L51.2312 99.3801ZM57.5355 95.2283L57.5216 105.795L55.7052 105.792L55.7191 95.2259L57.5355 95.2283ZM55.5861 92.423C55.5865 92.13 55.6747 91.8827 55.8508 91.6811C56.0333 91.4795 56.3004 91.379 56.652 91.3794C56.997 91.3799 57.2605 91.4812 57.4426 91.6832C57.6311 91.8853 57.7252 92.1328 57.7248 92.4258C57.7244 92.7057 57.6297 92.9465 57.4406 93.1481C57.2581 93.3431 56.9943 93.4404 56.6492 93.44C56.2977 93.4395 56.0309 93.3415 55.8488 93.146C55.6733 92.9439 55.5858 92.7029 55.5861 92.423ZM66.578 103.004C66.5783 102.743 66.5201 102.503 66.4032 102.281C66.2928 102.053 66.062 101.848 65.7106 101.665C65.3658 101.476 64.8452 101.312 64.1488 101.175C63.563 101.05 63.0326 100.903 62.5576 100.733C62.089 100.563 61.6889 100.357 61.3572 100.116C61.032 99.8748 60.7817 99.5913 60.6064 99.2655C60.431 98.9398 60.3436 98.5588 60.3442 98.1226C60.3448 97.7059 60.4364 97.3122 60.6192 96.9413C60.8085 96.5705 61.0726 96.2421 61.4115 95.956C61.757 95.67 62.1707 95.446 62.6527 95.2839C63.1346 95.1217 63.6719 95.0411 64.2643 95.0419C65.1107 95.043 65.8331 95.1937 66.4317 95.4939C67.0302 95.7942 67.4887 96.1952 67.807 96.6969C68.1254 97.1921 68.2842 97.7425 68.2834 98.348L66.4767 98.3456C66.4771 98.0526 66.3896 97.7693 66.2142 97.4956C66.0453 97.2154 65.7949 96.984 65.4632 96.8013C65.1379 96.6185 64.7376 96.5269 64.2623 96.5262C63.761 96.5256 63.354 96.6032 63.0413 96.759C62.7351 96.9083 62.5103 97.1001 62.3667 97.3343C62.2297 97.5685 62.161 97.8158 62.1607 98.0762C62.1604 98.2715 62.1927 98.4473 62.2576 98.6037C62.3291 98.7535 62.4526 98.8936 62.6282 99.0241C62.8038 99.148 63.051 99.2655 63.3699 99.3766C63.6888 99.4877 64.0955 99.5989 64.5902 99.7103C65.4558 99.9067 66.1684 100.142 66.7279 100.416C67.2874 100.69 67.7037 101.026 67.9766 101.424C68.2495 101.821 68.3856 102.303 68.3848 102.87C68.3842 103.332 68.286 103.755 68.0902 104.139C67.9009 104.523 67.6237 104.854 67.2588 105.134C66.9003 105.407 66.4704 105.621 65.9689 105.777C65.4739 105.926 64.9171 106 64.2986 105.999C63.3677 105.998 62.5801 105.831 61.936 105.498C61.2919 105.165 60.8042 104.735 60.4729 104.207C60.1416 103.679 59.9763 103.122 59.9771 102.536L61.7935 102.539C61.8188 103.033 61.9616 103.427 62.2216 103.721C62.4816 104.008 62.8004 104.213 63.1778 104.337C63.5552 104.455 63.9295 104.514 64.3006 104.515C64.7954 104.515 65.2089 104.451 65.5411 104.321C65.8798 104.191 66.1372 104.012 66.3133 103.785C66.4894 103.557 66.5776 103.297 66.578 103.004ZM72.7308 95.2484L72.7169 105.815L70.9005 105.812L70.9144 95.246L72.7308 95.2484ZM70.7814 92.443C70.7818 92.1501 70.87 91.9028 71.0461 91.7012C71.2286 91.4996 71.4957 91.3991 71.8473 91.3995C72.1923 91.4 72.4558 91.5012 72.6379 91.7033C72.8264 91.9054 72.9205 92.1529 72.9201 92.4459C72.9197 92.7258 72.825 92.9666 72.6359 93.1682C72.4534 93.3632 72.1896 93.4605 71.8445 93.4601C71.493 93.4596 71.2262 93.3616 71.0441 93.166C70.8686 92.964 70.7811 92.723 70.7814 92.443ZM77.4357 96.9147L77.4239 105.821L75.6173 105.819L75.6312 95.2522L77.389 95.2545L77.4357 96.9147ZM80.7387 95.2004L80.7267 96.88C80.577 96.8473 80.4338 96.8276 80.2971 96.8209C80.1669 96.8077 80.0172 96.801 79.8479 96.8007C79.4313 96.8002 79.0633 96.8648 78.7442 96.9946C78.425 97.1244 78.1546 97.3063 77.9329 97.5404C77.7112 97.7745 77.5351 98.0542 77.4044 98.3795C77.2803 98.6984 77.1985 99.0498 77.1589 99.4339L76.6507 99.7262C76.6515 99.0882 76.7142 98.4893 76.8386 97.9296C76.9696 97.3699 77.1688 96.8753 77.4363 96.446C77.7038 96.0101 78.0428 95.6721 78.4533 95.4317C78.8703 95.1849 79.3652 95.0618 79.9381 95.0626C80.0683 95.0627 80.218 95.0792 80.3873 95.112C80.5565 95.1383 80.6737 95.1677 80.7387 95.2004ZM90.5706 104.208L93.473 95.2758L95.3187 95.2782L91.5059 105.84L90.295 105.838L90.5706 104.208ZM88.1703 95.2688L91.1369 104.257L91.3399 105.839L90.129 105.838L86.3148 95.2663L88.1703 95.2688ZM96.4151 100.68L96.4154 100.455C96.4164 99.6937 96.528 98.9875 96.7502 98.3368C96.9724 97.6795 97.2922 97.1103 97.7095 96.629C98.1268 96.1413 98.6319 95.7644 99.2247 95.4982C99.8175 95.2256 100.482 95.0897 101.217 95.0907C101.96 95.0917 102.627 95.2293 103.219 95.5035C103.817 95.7712 104.325 96.1495 104.741 96.6383C105.163 97.1207 105.485 97.6908 105.705 98.3486C105.926 98.9999 106.036 99.7065 106.035 100.468L106.034 100.693C106.033 101.455 105.922 102.161 105.699 102.811C105.477 103.462 105.154 104.031 104.73 104.519C104.313 105 103.808 105.377 103.215 105.65C102.629 105.916 101.965 106.049 101.222 106.048C100.48 106.047 99.8131 105.912 99.221 105.645C98.6289 105.371 98.1216 104.992 97.6991 104.51C97.2831 104.021 96.9648 103.451 96.7443 102.8C96.5238 102.148 96.4141 101.442 96.4151 100.68ZM98.222 100.458L98.2217 100.682C98.221 101.21 98.2822 101.708 98.4053 102.177C98.5284 102.639 98.7134 103.05 98.9603 103.408C99.2137 103.766 99.5291 104.05 99.9064 104.259C100.284 104.461 100.723 104.563 101.224 104.563C101.719 104.564 102.152 104.464 102.524 104.262C102.902 104.055 103.214 103.772 103.462 103.414C103.71 103.056 103.896 102.646 104.021 102.184C104.151 101.716 104.217 101.218 104.218 100.69L104.218 100.466C104.219 99.9449 104.154 99.4533 104.025 98.9909C103.902 98.522 103.713 98.1083 103.46 97.7499C103.213 97.385 102.901 97.0982 102.524 96.8893C102.153 96.6805 101.717 96.5758 101.215 96.5751C100.721 96.5744 100.284 96.678 99.9064 96.8859C99.5351 97.0937 99.2222 97.3797 98.9678 97.744C98.7199 98.1017 98.5338 98.5149 98.4095 98.9835C98.2852 99.4456 98.2227 99.937 98.222 100.458ZM112.731 95.3013L112.729 96.688L107.016 96.6804L107.018 95.2937L112.731 95.3013ZM108.955 92.7279L110.762 92.7303L110.748 103.248C110.747 103.606 110.802 103.876 110.913 104.059C111.023 104.241 111.166 104.362 111.342 104.421C111.517 104.479 111.706 104.509 111.908 104.509C112.058 104.509 112.214 104.497 112.377 104.471C112.546 104.438 112.673 104.413 112.758 104.393L112.766 105.868C112.622 105.913 112.434 105.955 112.199 105.994C111.971 106.039 111.694 106.062 111.369 106.061C110.926 106.061 110.519 105.972 110.149 105.796C109.778 105.62 109.482 105.326 109.261 104.916C109.047 104.499 108.94 103.939 108.941 103.236L108.955 92.7279ZM116.654 96.9666L116.643 105.873L114.836 105.87L114.85 95.3041L116.608 95.3064L116.654 96.9666ZM119.957 95.2522L119.945 96.9319C119.796 96.8991 119.653 96.8794 119.516 96.8727C119.386 96.8595 119.236 96.8528 119.067 96.8526C118.65 96.852 118.282 96.9167 117.963 97.0465C117.644 97.1762 117.373 97.3582 117.152 97.5923C116.93 97.8263 116.754 98.1061 116.623 98.4314C116.499 98.7502 116.417 99.1017 116.378 99.4858L115.869 99.7781C115.87 99.14 115.933 98.5412 116.057 97.9814C116.188 97.4217 116.388 96.9272 116.655 96.4978C116.923 96.062 117.261 95.7239 117.672 95.4836C118.089 95.2367 118.584 95.1137 119.157 95.1144C119.287 95.1146 119.437 95.1311 119.606 95.1639C119.775 95.1901 119.892 95.2196 119.957 95.2522ZM125.802 106.08C125.067 106.079 124.4 105.955 123.801 105.707C123.209 105.452 122.698 105.096 122.269 104.64C121.847 104.184 121.522 103.643 121.295 103.018C121.068 102.392 120.955 101.709 120.956 100.966L120.956 100.556C120.957 99.6969 121.085 98.9321 121.34 98.2619C121.595 97.5851 121.941 97.0126 122.378 96.5445C122.814 96.0763 123.31 95.7221 123.863 95.482C124.417 95.2418 124.99 95.1221 125.583 95.1229C126.338 95.1239 126.989 95.255 127.535 95.5161C128.088 95.7773 128.54 96.1425 128.891 96.6117C129.242 97.0744 129.502 97.6216 129.67 98.2533C129.839 98.8786 129.922 99.5623 129.921 100.304L129.92 101.115L122.03 101.105L122.032 99.63L128.116 99.638L128.116 99.5013C128.09 99.0325 127.993 98.5766 127.825 98.1337C127.663 97.6908 127.403 97.3259 127.045 97.0389C126.687 96.752 126.199 96.6081 125.581 96.6073C125.17 96.6068 124.793 96.6942 124.447 96.8695C124.102 97.0383 123.806 97.2918 123.558 97.63C123.31 97.9682 123.117 98.3814 122.98 98.8695C122.843 99.3576 122.774 99.9207 122.773 100.559L122.772 100.969C122.771 101.47 122.839 101.942 122.975 102.385C123.118 102.822 123.323 103.206 123.589 103.538C123.862 103.871 124.19 104.132 124.574 104.321C124.965 104.51 125.407 104.605 125.902 104.606C126.54 104.607 127.081 104.477 127.524 104.217C127.967 103.957 128.355 103.61 128.687 103.174L129.78 104.045C129.551 104.389 129.261 104.718 128.909 105.03C128.557 105.342 128.124 105.595 127.61 105.79C127.101 105.984 126.499 106.081 125.802 106.08ZM138.792 97.4353L138.781 105.902L136.965 105.9L136.979 95.3333L138.698 95.3356L138.792 97.4353ZM138.418 100.218L137.578 100.188C137.585 99.465 137.681 98.7978 137.864 98.186C138.047 97.5678 138.318 97.031 138.676 96.5758C139.035 96.1205 139.482 95.7696 140.016 95.5229C140.55 95.2697 141.169 95.1435 141.872 95.1445C142.366 95.1451 142.822 95.2173 143.239 95.3611C143.655 95.4984 144.016 95.717 144.322 96.0169C144.627 96.3167 144.864 96.7012 145.033 97.1701C145.202 97.6391 145.286 98.2056 145.285 98.8697L145.275 105.911L143.469 105.908L143.478 98.9552C143.479 98.4018 143.385 97.959 143.197 97.6267C143.015 97.2944 142.755 97.0532 142.416 96.903C142.078 96.7463 141.681 96.6677 141.225 96.6671C140.691 96.6663 140.245 96.7602 139.887 96.9485C139.529 97.1368 139.242 97.3969 139.026 97.7286C138.811 98.0603 138.654 98.441 138.556 98.8706C138.464 99.2936 138.418 99.7428 138.418 100.218ZM145.265 99.231L144.053 99.6005C144.061 99.0211 144.156 98.4646 144.339 97.9309C144.528 97.3973 144.799 96.9224 145.151 96.5062C145.51 96.09 145.95 95.7618 146.471 95.5216C146.992 95.2749 147.588 95.152 148.258 95.1529C148.825 95.1537 149.326 95.2292 149.762 95.3795C150.204 95.5298 150.575 95.7614 150.874 96.0743C151.18 96.3807 151.411 96.7749 151.566 97.2569C151.722 97.7389 151.799 98.3119 151.798 98.976L151.789 105.919L149.973 105.917L149.982 98.954C149.983 98.3616 149.889 97.9025 149.7 97.5767C149.519 97.2444 149.259 97.013 148.92 96.8823C148.588 96.7451 148.191 96.6763 147.729 96.6757C147.332 96.6751 146.98 96.743 146.674 96.8793C146.368 97.0157 146.11 97.2041 145.902 97.4447C145.693 97.6788 145.533 97.9488 145.422 98.2546C145.318 98.5605 145.265 98.8859 145.265 99.231ZM160.756 104.125L160.763 98.6851C160.764 98.2684 160.68 97.907 160.511 97.6008C160.349 97.288 160.102 97.0468 159.77 96.8771C159.438 96.7074 159.028 96.6222 158.54 96.6216C158.084 96.621 157.683 96.6986 157.338 96.8544C156.999 97.0102 156.732 97.2149 156.537 97.4686C156.347 97.7222 156.253 97.9955 156.252 98.2885L154.446 98.2861C154.446 97.9085 154.544 97.5343 154.74 97.1634C154.936 96.7926 155.216 96.4577 155.581 96.1587C155.953 95.8532 156.396 95.6129 156.91 95.4378C157.431 95.2562 158.011 95.1658 158.649 95.1667C159.417 95.1677 160.094 95.2988 160.68 95.56C161.272 95.8212 161.734 96.2157 162.065 96.7434C162.403 97.2647 162.571 97.9192 162.57 98.707L162.564 103.629C162.563 103.98 162.592 104.355 162.65 104.752C162.715 105.149 162.809 105.491 162.932 105.778L162.932 105.934L161.047 105.932C160.956 105.723 160.885 105.446 160.833 105.101C160.782 104.75 160.756 104.424 160.756 104.125ZM161.075 99.5253L161.093 100.795L159.267 100.792C158.752 100.792 158.293 100.834 157.889 100.918C157.486 100.995 157.147 101.115 156.873 101.278C156.6 101.44 156.391 101.645 156.248 101.892C156.104 102.133 156.032 102.416 156.032 102.741C156.031 103.073 156.106 103.376 156.255 103.65C156.404 103.923 156.629 104.142 156.928 104.305C157.234 104.462 157.608 104.54 158.051 104.541C158.604 104.542 159.092 104.425 159.516 104.191C159.939 103.957 160.275 103.671 160.523 103.333C160.777 102.995 160.914 102.666 160.934 102.347L161.705 103.218C161.659 103.491 161.535 103.794 161.332 104.125C161.13 104.457 160.86 104.776 160.521 105.081C160.188 105.38 159.791 105.63 159.328 105.832C158.872 106.026 158.358 106.123 157.785 106.123C157.069 106.122 156.441 105.981 155.901 105.7C155.367 105.419 154.951 105.045 154.652 104.575C154.36 104.1 154.214 103.569 154.215 102.983C154.216 102.417 154.327 101.919 154.549 101.489C154.771 101.053 155.09 100.693 155.507 100.407C155.924 100.114 156.426 99.8935 157.012 99.7446C157.598 99.5956 158.253 99.5216 158.975 99.5226L161.075 99.5253ZM167.379 95.3735L167.365 105.94L165.549 105.938L165.563 95.3711L167.379 95.3735ZM165.43 92.5682C165.43 92.2752 165.518 92.0279 165.694 91.8264C165.877 91.6248 166.144 91.5242 166.496 91.5247C166.841 91.5251 167.104 91.6264 167.286 91.8285C167.475 92.0305 167.569 92.2781 167.568 92.571C167.568 92.851 167.473 93.0917 167.284 93.2933C167.102 93.4884 166.838 93.5857 166.493 93.5852C166.141 93.5848 165.875 93.4868 165.692 93.2912C165.517 93.0891 165.429 92.8481 165.43 92.5682ZM172.248 90.9464L172.228 105.946L170.412 105.944L170.432 90.9439L172.248 90.9464Z" fill="#A59894"/>
<path d="M38.28 26.55C38.08 27.07 37.81 27.83 37.47 28.83C37.15 29.81 36.83 31.09 36.51 32.67H35.91C35.97 32.39 36.01 32.1 36.03 31.8C36.07 31.5 36.09 31.22 36.09 30.96C36.09 30.22 35.94 29.55 35.64 28.95C35.36 28.33 34.91 27.84 34.29 27.48C33.67 27.1 32.85 26.91 31.83 26.91C30.63 26.91 29.63 27.22 28.83 27.84C28.03 28.46 27.63 29.42 27.63 30.72C27.63 31.48 27.81 32.19 28.17 32.85C28.55 33.49 29.02 34.11 29.58 34.71C30.16 35.29 30.77 35.88 31.41 36.48C32.07 37.06 32.68 37.66 33.24 38.28C33.82 38.9 34.29 39.56 34.65 40.26C35.03 40.94 35.22 41.7 35.22 42.54C35.22 43.58 34.99 44.47 34.53 45.21C34.07 45.95 33.47 46.56 32.73 47.04C31.99 47.5 31.17 47.84 30.27 48.06C29.39 48.3 28.51 48.42 27.63 48.42C26.83 48.42 26.16 48.34 25.62 48.18C25.08 48.04 24.63 47.86 24.27 47.64C23.91 47.42 23.61 47.22 23.37 47.04C23.15 46.86 22.94 46.74 22.74 46.68C22.56 46.62 22.41 46.59 22.29 46.59C22.03 46.59 21.81 46.73 21.63 47.01C21.47 47.27 21.28 47.67 21.06 48.21H20.46C20.64 47.77 20.83 47.26 21.03 46.68C21.23 46.1 21.45 45.36 21.69 44.46C21.93 43.54 22.2 42.39 22.5 41.01H23.1C23.02 41.43 22.95 41.84 22.89 42.24C22.83 42.62 22.81 43.02 22.83 43.44C22.89 44.8 23.31 45.87 24.09 46.65C24.87 47.43 26.08 47.82 27.72 47.82C29.02 47.82 30.08 47.52 30.9 46.92C31.72 46.32 32.13 45.37 32.13 44.07C32.13 43.23 31.96 42.48 31.62 41.82C31.3 41.16 30.87 40.55 30.33 39.99C29.81 39.41 29.25 38.85 28.65 38.31C28.07 37.77 27.51 37.21 26.97 36.63C26.45 36.03 26.02 35.37 25.68 34.65C25.36 33.93 25.2 33.11 25.2 32.19C25.2 31.23 25.39 30.39 25.77 29.67C26.15 28.93 26.65 28.32 27.27 27.84C27.91 27.34 28.62 26.97 29.4 26.73C30.18 26.47 30.98 26.34 31.8 26.34C32.64 26.34 33.36 26.44 33.96 26.64C34.56 26.84 35.14 27.16 35.7 27.6C35.94 27.78 36.14 27.92 36.3 28.02C36.46 28.1 36.59 28.14 36.69 28.14C36.97 28.14 37.3 27.61 37.68 26.55H38.28ZM45.9213 28.47C45.9213 29.51 45.5313 30.55 44.7513 31.59C43.9713 32.61 42.8913 33.46 41.5113 34.14L41.3613 33.72C42.3013 33.14 43.0513 32.51 43.6113 31.83C44.1713 31.15 44.4813 30.47 44.5413 29.79C44.3013 29.99 44.0513 30.17 43.7913 30.33C43.5313 30.47 43.2613 30.54 42.9813 30.54C42.6213 30.54 42.3413 30.45 42.1413 30.27C41.9413 30.07 41.8413 29.81 41.8413 29.49C41.8413 29.05 41.9713 28.62 42.2313 28.2C42.5113 27.78 42.8613 27.43 43.2813 27.15C43.7013 26.85 44.1413 26.7 44.6013 26.7C45.0613 26.7 45.3913 26.88 45.5913 27.24C45.8113 27.6 45.9213 28.01 45.9213 28.47ZM50.4884 27.12C50.5884 26.6 50.8484 26.15 51.2684 25.77C51.7084 25.39 52.1784 25.2 52.6784 25.2C53.1984 25.2 53.5984 25.39 53.8784 25.77C54.1784 26.15 54.2784 26.6 54.1784 27.12C54.0784 27.64 53.8084 28.09 53.3684 28.47C52.9484 28.85 52.4784 29.04 51.9584 29.04C51.4584 29.04 51.0584 28.85 50.7584 28.47C50.4784 28.09 50.3884 27.64 50.4884 27.12ZM49.5584 35.13C49.9784 33.89 49.8384 33.27 49.1384 33.27C48.6784 33.27 48.2684 33.52 47.9084 34.02C47.5484 34.52 47.1684 35.29 46.7684 36.33L46.3484 37.44H45.7784L46.5584 35.25C46.8584 34.41 47.2184 33.77 47.6384 33.33C48.0584 32.89 48.4984 32.59 48.9584 32.43C49.4384 32.25 49.8784 32.16 50.2784 32.16C50.9184 32.16 51.3884 32.29 51.6884 32.55C51.9884 32.81 52.1684 33.15 52.2284 33.57C52.2884 33.99 52.2684 34.45 52.1684 34.95C52.0684 35.43 51.9384 35.9 51.7784 36.36L48.5684 45.45C48.3684 46.03 48.2984 46.49 48.3584 46.83C48.4384 47.15 48.6684 47.31 49.0484 47.31C49.4484 47.31 49.8284 47.09 50.1884 46.65C50.5484 46.21 50.9484 45.41 51.3884 44.25L51.8084 43.14H52.3784L51.5984 45.33C51.3184 46.11 50.9784 46.73 50.5784 47.19C50.1784 47.63 49.7484 47.94 49.2884 48.12C48.8284 48.32 48.3684 48.42 47.9084 48.42C47.0484 48.42 46.4684 48.22 46.1684 47.82C45.8684 47.42 45.7584 46.9 45.8384 46.26C45.9184 45.62 46.0884 44.94 46.3484 44.22L49.5584 35.13ZM57.5311 48H54.9211L58.5211 35.13C58.6011 34.89 58.6611 34.63 58.7011 34.35C58.7611 34.05 58.7511 33.8 58.6711 33.6C58.5911 33.38 58.3911 33.27 58.0711 33.27C57.6311 33.27 57.2411 33.49 56.9011 33.93C56.5611 34.35 56.1811 35.15 55.7611 36.33L55.3711 37.44H54.8011L55.5511 35.25C55.9911 33.99 56.5311 33.16 57.1711 32.76C57.8311 32.36 58.4811 32.16 59.1211 32.16C59.7211 32.16 60.1511 32.29 60.4111 32.55C60.6911 32.81 60.8411 33.15 60.8611 33.57C60.9011 33.97 60.8711 34.42 60.7711 34.92C60.6911 35.4 60.5911 35.88 60.4711 36.36L57.5311 48ZM58.9111 41.76C59.6111 39.96 60.2911 38.45 60.9511 37.23C61.6111 36.01 62.2611 35.03 62.9011 34.29C63.5411 33.53 64.1911 32.99 64.8511 32.67C65.5311 32.33 66.2311 32.16 66.9511 32.16C67.8911 32.16 68.5311 32.39 68.8711 32.85C69.2311 33.29 69.3911 33.86 69.3511 34.56C69.3111 35.24 69.1711 35.95 68.9311 36.69L66.0211 45.45C65.8411 45.99 65.7611 46.44 65.7811 46.8C65.8211 47.14 66.0611 47.31 66.5011 47.31C66.8811 47.31 67.2511 47.1 67.6111 46.68C67.9911 46.26 68.3911 45.45 68.8111 44.25L69.2011 43.14H69.7711L69.0211 45.33C68.7411 46.17 68.3911 46.81 67.9711 47.25C67.5711 47.69 67.1411 47.99 66.6811 48.15C66.2411 48.33 65.8111 48.42 65.3911 48.42C64.9111 48.42 64.5111 48.34 64.1911 48.18C63.8911 48.02 63.6611 47.81 63.5011 47.55C63.2811 47.19 63.2111 46.72 63.2911 46.14C63.3711 45.56 63.5311 44.92 63.7711 44.22L66.6211 35.64C66.7211 35.36 66.8011 35.03 66.8611 34.65C66.9411 34.25 66.9311 33.9 66.8311 33.6C66.7311 33.28 66.4411 33.12 65.9611 33.12C65.4811 33.12 64.9711 33.33 64.4311 33.75C63.8911 34.17 63.3311 34.77 62.7511 35.55C62.1711 36.31 61.6011 37.23 61.0411 38.31C60.4811 39.37 59.9411 40.55 59.4211 41.85C58.9211 43.13 58.4611 44.5 58.0411 45.96L58.9111 41.76ZM73.0434 47.55C73.2034 47.63 73.3734 47.7 73.5534 47.76C73.7534 47.8 74.0434 47.82 74.4234 47.82C75.3034 47.82 76.0234 47.56 76.5834 47.04C77.1634 46.5 77.4534 45.73 77.4534 44.73C77.4534 44.11 77.3334 43.5 77.0934 42.9C76.8734 42.28 76.4734 41.57 75.8934 40.77C75.4334 40.13 74.9934 39.48 74.5734 38.82C74.1534 38.14 73.9434 37.34 73.9434 36.42C73.9434 35.56 74.1534 34.82 74.5734 34.2C74.9934 33.56 75.5534 33.06 76.2534 32.7C76.9734 32.34 77.7534 32.16 78.5934 32.16C79.1734 32.16 79.7434 32.23 80.3034 32.37C80.8634 32.51 81.3234 32.77 81.6834 33.15C82.0634 33.51 82.2534 34.05 82.2534 34.77C82.2534 34.95 82.2034 35.17 82.1034 35.43C82.0234 35.67 81.8834 35.88 81.6834 36.06C81.4834 36.24 81.2134 36.33 80.8734 36.33C80.5534 36.33 80.2734 36.22 80.0334 36C79.7934 35.76 79.6734 35.45 79.6734 35.07C79.6734 34.71 79.7434 34.37 79.8834 34.05C80.0434 33.71 80.2534 33.38 80.5134 33.06C80.1334 32.82 79.6334 32.7 79.0134 32.7C78.2734 32.7 77.6534 32.95 77.1534 33.45C76.6534 33.95 76.4034 34.65 76.4034 35.55C76.4034 36.01 76.4734 36.42 76.6134 36.78C76.7534 37.12 76.9534 37.48 77.2134 37.86C77.4934 38.24 77.8234 38.72 78.2034 39.3C78.7034 40.06 79.1234 40.79 79.4634 41.49C79.8034 42.19 79.9734 42.93 79.9734 43.71C79.9734 44.63 79.7334 45.45 79.2534 46.17C78.7934 46.87 78.1734 47.42 77.3934 47.82C76.6134 48.22 75.7534 48.42 74.8134 48.42C74.1334 48.42 73.4834 48.32 72.8634 48.12C72.2434 47.92 71.7334 47.61 71.3334 47.19C70.9534 46.75 70.7634 46.17 70.7634 45.45C70.7634 45.17 70.8534 44.88 71.0334 44.58C71.1934 44.26 71.4934 44.1 71.9334 44.1C72.4134 44.1 72.7534 44.3 72.9534 44.7C73.1534 45.08 73.2534 45.51 73.2534 45.99C73.2534 46.31 73.2234 46.6 73.1634 46.86C73.1234 47.1 73.0834 47.33 73.0434 47.55ZM92.3892 32.76C91.6292 32.76 90.8692 33.07 90.1092 33.69C89.3692 34.31 88.6892 35.16 88.0692 36.24C87.4492 37.32 86.9492 38.55 86.5692 39.93C86.2092 41.31 86.0292 42.76 86.0292 44.28C86.0292 45.3 86.2192 46.04 86.5992 46.5C86.9992 46.94 87.5092 47.16 88.1292 47.16C88.8492 47.16 89.5892 46.94 90.3492 46.5C91.1092 46.06 91.8692 45.28 92.6292 44.16L93.2292 44.4C92.8492 45.06 92.3492 45.7 91.7292 46.32C91.1092 46.94 90.4092 47.45 89.6292 47.85C88.8692 48.23 88.0592 48.42 87.1992 48.42C85.9992 48.42 85.0392 48.05 84.3192 47.31C83.5992 46.57 83.2392 45.47 83.2392 44.01C83.2392 43.09 83.3692 42.1 83.6292 41.04C83.9092 39.96 84.2992 38.9 84.7992 37.86C85.3192 36.8 85.9492 35.85 86.6892 35.01C87.4292 34.15 88.2692 33.46 89.2092 32.94C90.1492 32.42 91.1792 32.16 92.2992 32.16C93.1792 32.16 93.9392 32.39 94.5792 32.85C95.2192 33.29 95.5392 33.91 95.5392 34.71C95.5392 35.09 95.4492 35.47 95.2692 35.85C95.1092 36.21 94.8692 36.51 94.5492 36.75C94.2292 36.99 93.8492 37.11 93.4092 37.11C92.9892 37.11 92.6792 37 92.4792 36.78C92.2792 36.54 92.1792 36.26 92.1792 35.94C92.1792 35.36 92.4092 34.87 92.8692 34.47C93.3292 34.05 93.8492 33.79 94.4292 33.69C94.2292 33.41 93.9692 33.19 93.6492 33.03C93.3292 32.85 92.9092 32.76 92.3892 32.76ZM99.2784 48H96.6684L100.268 35.13C100.468 34.45 100.528 33.97 100.448 33.69C100.388 33.41 100.188 33.27 99.8484 33.27C99.4084 33.27 99.0084 33.5 98.6484 33.96C98.2884 34.42 97.9084 35.21 97.5084 36.33L97.1184 37.44H96.5484L97.2984 35.25C97.5984 34.41 97.9484 33.77 98.3484 33.33C98.7684 32.89 99.1984 32.59 99.6384 32.43C100.098 32.25 100.528 32.16 100.928 32.16C101.528 32.16 101.948 32.29 102.188 32.55C102.448 32.81 102.588 33.15 102.608 33.57C102.648 33.99 102.618 34.45 102.518 34.95C102.438 35.43 102.338 35.9 102.218 36.36L99.2784 48ZM106.988 32.91C106.528 32.91 106.048 33.13 105.548 33.57C105.068 33.99 104.568 34.61 104.048 35.43C103.548 36.23 103.038 37.2 102.518 38.34C102.018 39.46 101.518 40.71 101.018 42.09C100.538 43.47 100.068 44.96 99.6084 46.56L100.358 42.72C101.018 40.76 101.628 39.11 102.188 37.77C102.768 36.43 103.338 35.35 103.898 34.53C104.458 33.69 105.028 33.09 105.608 32.73C106.208 32.35 106.838 32.16 107.498 32.16C108.058 32.16 108.488 32.32 108.788 32.64C109.108 32.96 109.268 33.37 109.268 33.87C109.268 34.27 109.168 34.64 108.968 34.98C108.768 35.3 108.508 35.56 108.188 35.76C107.888 35.94 107.548 36.03 107.168 36.03C106.828 36.03 106.538 35.94 106.298 35.76C106.078 35.56 105.968 35.29 105.968 34.95C105.968 34.63 106.028 34.35 106.148 34.11C106.268 33.85 106.428 33.63 106.628 33.45C106.828 33.27 107.058 33.13 107.318 33.03C107.278 32.99 107.228 32.96 107.168 32.94C107.128 32.92 107.068 32.91 106.988 32.91ZM114.092 27.12C114.192 26.6 114.452 26.15 114.872 25.77C115.312 25.39 115.782 25.2 116.282 25.2C116.802 25.2 117.202 25.39 117.482 25.77C117.782 26.15 117.882 26.6 117.782 27.12C117.682 27.64 117.412 28.09 116.972 28.47C116.552 28.85 116.082 29.04 115.562 29.04C115.062 29.04 114.662 28.85 114.362 28.47C114.082 28.09 113.992 27.64 114.092 27.12ZM113.162 35.13C113.582 33.89 113.442 33.27 112.742 33.27C112.282 33.27 111.872 33.52 111.512 34.02C111.152 34.52 110.772 35.29 110.372 36.33L109.952 37.44H109.382L110.162 35.25C110.462 34.41 110.822 33.77 111.242 33.33C111.662 32.89 112.102 32.59 112.562 32.43C113.042 32.25 113.482 32.16 113.882 32.16C114.522 32.16 114.992 32.29 115.292 32.55C115.592 32.81 115.772 33.15 115.832 33.57C115.892 33.99 115.872 34.45 115.772 34.95C115.672 35.43 115.542 35.9 115.382 36.36L112.172 45.45C111.972 46.03 111.902 46.49 111.962 46.83C112.042 47.15 112.272 47.31 112.652 47.31C113.052 47.31 113.432 47.09 113.792 46.65C114.152 46.21 114.552 45.41 114.992 44.25L115.412 43.14H115.982L115.202 45.33C114.922 46.11 114.582 46.73 114.182 47.19C113.782 47.63 113.352 47.94 112.892 48.12C112.432 48.32 111.972 48.42 111.512 48.42C110.652 48.42 110.072 48.22 109.772 47.82C109.472 47.42 109.362 46.9 109.442 46.26C109.522 45.62 109.692 44.94 109.952 44.22L113.162 35.13ZM121.105 48H118.495L122.095 35.13C122.295 34.45 122.355 33.97 122.275 33.69C122.215 33.41 122.015 33.27 121.675 33.27C121.235 33.27 120.835 33.5 120.475 33.96C120.115 34.42 119.735 35.21 119.335 36.33L118.945 37.44H118.375L119.125 35.25C119.425 34.41 119.775 33.77 120.175 33.33C120.595 32.89 121.025 32.59 121.465 32.43C121.925 32.25 122.355 32.16 122.755 32.16C123.355 32.16 123.775 32.29 124.015 32.55C124.275 32.81 124.415 33.15 124.435 33.57C124.475 33.99 124.445 34.45 124.345 34.95C124.265 35.43 124.165 35.9 124.045 36.36L121.105 48ZM128.815 32.91C128.355 32.91 127.875 33.13 127.375 33.57C126.895 33.99 126.395 34.61 125.875 35.43C125.375 36.23 124.865 37.2 124.345 38.34C123.845 39.46 123.345 40.71 122.845 42.09C122.365 43.47 121.895 44.96 121.435 46.56L122.185 42.72C122.845 40.76 123.455 39.11 124.015 37.77C124.595 36.43 125.165 35.35 125.725 34.53C126.285 33.69 126.855 33.09 127.435 32.73C128.035 32.35 128.665 32.16 129.325 32.16C129.885 32.16 130.315 32.32 130.615 32.64C130.935 32.96 131.095 33.37 131.095 33.87C131.095 34.27 130.995 34.64 130.795 34.98C130.595 35.3 130.335 35.56 130.015 35.76C129.715 35.94 129.375 36.03 128.995 36.03C128.655 36.03 128.365 35.94 128.125 35.76C127.905 35.56 127.795 35.29 127.795 34.95C127.795 34.63 127.855 34.35 127.975 34.11C128.095 33.85 128.255 33.63 128.455 33.45C128.655 33.27 128.885 33.13 129.145 33.03C129.105 32.99 129.055 32.96 128.995 32.94C128.955 32.92 128.895 32.91 128.815 32.91ZM132.182 41.19C133.302 40.81 134.312 40.44 135.212 40.08C136.132 39.7 136.862 39.3 137.402 38.88C138.122 38.3 138.692 37.6 139.112 36.78C139.532 35.96 139.742 35.06 139.742 34.08C139.742 33.5 139.702 33.13 139.622 32.97C139.542 32.81 139.422 32.73 139.262 32.73C138.762 32.73 138.222 32.95 137.642 33.39C137.062 33.83 136.492 34.44 135.932 35.22C135.372 35.98 134.852 36.85 134.372 37.83C133.912 38.81 133.542 39.86 133.262 40.98C132.982 42.08 132.842 43.18 132.842 44.28C132.842 45.3 133.032 46.04 133.412 46.5C133.792 46.94 134.292 47.16 134.912 47.16C135.632 47.16 136.392 46.94 137.192 46.5C137.992 46.06 138.772 45.28 139.532 44.16L140.012 44.4C139.632 45.06 139.132 45.7 138.512 46.32C137.892 46.94 137.192 47.45 136.412 47.85C135.652 48.23 134.842 48.42 133.982 48.42C133.182 48.42 132.482 48.26 131.882 47.94C131.282 47.62 130.822 47.15 130.502 46.53C130.182 45.89 130.022 45.11 130.022 44.19C130.022 43.33 130.182 42.37 130.502 41.31C130.822 40.23 131.272 39.16 131.852 38.1C132.452 37.02 133.162 36.03 133.982 35.13C134.802 34.23 135.712 33.51 136.712 32.97C137.712 32.43 138.782 32.16 139.922 32.16C140.542 32.16 141.062 32.33 141.482 32.67C141.922 32.99 142.142 33.48 142.142 34.14C142.142 34.94 141.902 35.69 141.422 36.39C140.962 37.07 140.342 37.7 139.562 38.28C138.802 38.84 137.972 39.34 137.072 39.78C136.172 40.22 135.292 40.6 134.432 40.92C133.572 41.24 132.812 41.5 132.152 41.7L132.182 41.19ZM154.071 47.46C154.551 47.46 155.101 47.16 155.721 46.56C156.341 45.94 156.971 45.11 157.611 44.07C158.251 43.03 158.841 41.85 159.381 40.53C159.921 39.21 160.351 37.84 160.671 36.42L160.161 39.66C159.401 41.78 158.641 43.49 157.881 44.79C157.121 46.07 156.351 47 155.571 47.58C154.791 48.14 154.001 48.42 153.201 48.42C152.261 48.42 151.551 48.08 151.071 47.4C150.611 46.72 150.381 45.85 150.381 44.79C150.381 43.83 150.541 42.79 150.861 41.67C151.181 40.53 151.621 39.4 152.181 38.28C152.761 37.16 153.421 36.14 154.161 35.22C154.901 34.3 155.701 33.56 156.561 33C157.441 32.44 158.331 32.16 159.231 32.16C159.931 32.16 160.461 32.51 160.821 33.21C161.201 33.89 161.281 34.85 161.061 36.09L160.731 36.27C160.871 35.21 160.801 34.36 160.521 33.72C160.241 33.06 159.781 32.73 159.141 32.73C158.621 32.73 158.071 32.99 157.491 33.51C156.931 34.01 156.381 34.7 155.841 35.58C155.321 36.44 154.841 37.41 154.401 38.49C153.981 39.57 153.641 40.69 153.381 41.85C153.141 42.99 153.021 44.09 153.021 45.15C153.021 46.01 153.111 46.61 153.291 46.95C153.491 47.29 153.751 47.46 154.071 47.46ZM161.631 32.58C162.111 32.56 162.591 32.52 163.071 32.46C163.551 32.4 163.991 32.3 164.391 32.16L160.641 45.42C160.601 45.6 160.541 45.84 160.461 46.14C160.401 46.42 160.401 46.68 160.461 46.92C160.541 47.16 160.751 47.28 161.091 47.28C161.491 47.28 161.881 47.06 162.261 46.62C162.641 46.18 163.021 45.38 163.401 44.22L163.761 43.11H164.331L163.581 45.3C163.301 46.1 162.961 46.73 162.561 47.19C162.181 47.63 161.781 47.94 161.361 48.12C160.941 48.32 160.531 48.42 160.131 48.42C159.351 48.42 158.801 48.16 158.481 47.64C158.221 47.18 158.151 46.65 158.271 46.05C158.391 45.43 158.531 44.81 158.691 44.19L161.631 32.58ZM160.701 30.03C160.001 29.03 159.381 28.21 158.841 27.57C158.301 26.91 157.831 26.34 157.431 25.86C157.031 25.38 156.691 24.92 156.411 24.48C156.151 24.02 156.051 23.64 156.111 23.34C156.191 23.02 156.351 22.8 156.591 22.68C156.871 22.56 157.171 22.56 157.491 22.68C157.811 22.78 158.101 23.06 158.361 23.52C158.621 23.96 158.851 24.47 159.051 25.05C159.271 25.61 159.531 26.28 159.831 27.06C160.151 27.82 160.571 28.75 161.091 29.85L160.701 30.03ZM176.462 45.45C176.302 46.03 176.252 46.49 176.312 46.83C176.372 47.15 176.592 47.31 176.972 47.31C177.372 47.31 177.742 47.09 178.082 46.65C178.442 46.19 178.822 45.39 179.222 44.25L179.612 43.14H180.182L179.432 45.33C179.172 46.09 178.852 46.7 178.472 47.16C178.112 47.6 177.712 47.92 177.272 48.12C176.832 48.32 176.352 48.42 175.832 48.42C175.172 48.42 174.682 48.29 174.362 48.03C174.062 47.79 173.872 47.46 173.792 47.04C173.732 46.62 173.742 46.17 173.822 45.69C173.922 45.19 174.042 44.7 174.182 44.22L179.072 27.99C179.272 27.31 179.252 26.81 179.012 26.49C178.772 26.17 178.162 26.01 177.182 26.01L177.392 25.38C178.492 25.36 179.462 25.25 180.302 25.05C181.142 24.83 181.952 24.53 182.732 24.15L176.462 45.45ZM185.683 47.46C186.163 47.46 186.713 47.16 187.333 46.56C187.953 45.94 188.583 45.11 189.223 44.07C189.863 43.03 190.453 41.85 190.993 40.53C191.533 39.21 191.963 37.84 192.283 36.42L191.773 39.66C191.013 41.78 190.253 43.49 189.493 44.79C188.733 46.07 187.963 47 187.183 47.58C186.403 48.14 185.613 48.42 184.813 48.42C183.873 48.42 183.163 48.08 182.683 47.4C182.223 46.72 181.993 45.85 181.993 44.79C181.993 43.83 182.153 42.79 182.473 41.67C182.793 40.53 183.233 39.4 183.793 38.28C184.373 37.16 185.033 36.14 185.773 35.22C186.513 34.3 187.313 33.56 188.173 33C189.053 32.44 189.943 32.16 190.843 32.16C191.543 32.16 192.073 32.51 192.433 33.21C192.813 33.89 192.893 34.85 192.673 36.09L192.343 36.27C192.483 35.21 192.413 34.36 192.133 33.72C191.853 33.06 191.393 32.73 190.753 32.73C190.233 32.73 189.683 32.99 189.103 33.51C188.543 34.01 187.993 34.7 187.453 35.58C186.933 36.44 186.453 37.41 186.013 38.49C185.593 39.57 185.253 40.69 184.993 41.85C184.753 42.99 184.633 44.09 184.633 45.15C184.633 46.01 184.723 46.61 184.903 46.95C185.103 47.29 185.363 47.46 185.683 47.46ZM193.243 32.58C193.723 32.56 194.203 32.52 194.683 32.46C195.163 32.4 195.603 32.3 196.003 32.16L192.253 45.42C192.213 45.6 192.153 45.84 192.073 46.14C192.013 46.42 192.013 46.68 192.073 46.92C192.153 47.16 192.363 47.28 192.703 47.28C193.103 47.28 193.493 47.06 193.873 46.62C194.253 46.18 194.633 45.38 195.013 44.22L195.373 43.11H195.943L195.193 45.3C194.913 46.1 194.573 46.73 194.173 47.19C193.793 47.63 193.393 47.94 192.973 48.12C192.553 48.32 192.143 48.42 191.743 48.42C190.963 48.42 190.413 48.16 190.093 47.64C189.833 47.18 189.763 46.65 189.883 46.05C190.003 45.43 190.143 44.81 190.303 44.19L193.243 32.58ZM208.674 48H206.064L209.664 35.13C209.744 34.89 209.804 34.63 209.844 34.35C209.904 34.05 209.894 33.8 209.814 33.6C209.734 33.38 209.534 33.27 209.214 33.27C208.774 33.27 208.384 33.49 208.044 33.93C207.704 34.35 207.324 35.15 206.904 36.33L206.514 37.44H205.944L206.694 35.25C207.134 33.99 207.674 33.16 208.314 32.76C208.974 32.36 209.624 32.16 210.264 32.16C210.864 32.16 211.294 32.29 211.554 32.55C211.834 32.81 211.984 33.15 212.004 33.57C212.044 33.97 212.014 34.42 211.914 34.92C211.834 35.4 211.734 35.88 211.614 36.36L208.674 48ZM210.054 41.76C210.754 39.96 211.434 38.45 212.094 37.23C212.754 36.01 213.404 35.03 214.044 34.29C214.684 33.53 215.334 32.99 215.994 32.67C216.674 32.33 217.374 32.16 218.094 32.16C219.034 32.16 219.674 32.39 220.014 32.85C220.374 33.29 220.534 33.86 220.494 34.56C220.454 35.24 220.314 35.95 220.074 36.69L217.164 45.45C216.984 45.99 216.904 46.44 216.924 46.8C216.964 47.14 217.204 47.31 217.644 47.31C218.024 47.31 218.394 47.1 218.754 46.68C219.134 46.26 219.534 45.45 219.954 44.25L220.344 43.14H220.914L220.164 45.33C219.884 46.17 219.534 46.81 219.114 47.25C218.714 47.69 218.284 47.99 217.824 48.15C217.384 48.33 216.954 48.42 216.534 48.42C216.054 48.42 215.654 48.34 215.334 48.18C215.034 48.02 214.804 47.81 214.644 47.55C214.424 47.19 214.354 46.72 214.434 46.14C214.514 45.56 214.674 44.92 214.914 44.22L217.764 35.64C217.864 35.36 217.944 35.03 218.004 34.65C218.084 34.25 218.074 33.9 217.974 33.6C217.874 33.28 217.584 33.12 217.104 33.12C216.624 33.12 216.114 33.33 215.574 33.75C215.034 34.17 214.474 34.77 213.894 35.55C213.314 36.31 212.744 37.23 212.184 38.31C211.624 39.37 211.084 40.55 210.564 41.85C210.064 43.13 209.604 44.5 209.184 45.96L210.054 41.76ZM224.936 41.19C226.056 40.81 227.066 40.44 227.966 40.08C228.886 39.7 229.616 39.3 230.156 38.88C230.876 38.3 231.446 37.6 231.866 36.78C232.286 35.96 232.496 35.06 232.496 34.08C232.496 33.5 232.456 33.13 232.376 32.97C232.296 32.81 232.176 32.73 232.016 32.73C231.516 32.73 230.976 32.95 230.396 33.39C229.816 33.83 229.246 34.44 228.686 35.22C228.126 35.98 227.606 36.85 227.126 37.83C226.666 38.81 226.296 39.86 226.016 40.98C225.736 42.08 225.596 43.18 225.596 44.28C225.596 45.3 225.786 46.04 226.166 46.5C226.546 46.94 227.046 47.16 227.666 47.16C228.386 47.16 229.146 46.94 229.946 46.5C230.746 46.06 231.526 45.28 232.286 44.16L232.766 44.4C232.386 45.06 231.886 45.7 231.266 46.32C230.646 46.94 229.946 47.45 229.166 47.85C228.406 48.23 227.596 48.42 226.736 48.42C225.936 48.42 225.236 48.26 224.636 47.94C224.036 47.62 223.576 47.15 223.256 46.53C222.936 45.89 222.776 45.11 222.776 44.19C222.776 43.33 222.936 42.37 223.256 41.31C223.576 40.23 224.026 39.16 224.606 38.1C225.206 37.02 225.916 36.03 226.736 35.13C227.556 34.23 228.466 33.51 229.466 32.97C230.466 32.43 231.536 32.16 232.676 32.16C233.296 32.16 233.816 32.33 234.236 32.67C234.676 32.99 234.896 33.48 234.896 34.14C234.896 34.94 234.656 35.69 234.176 36.39C233.716 37.07 233.096 37.7 232.316 38.28C231.556 38.84 230.726 39.34 229.826 39.78C228.926 40.22 228.046 40.6 227.186 40.92C226.326 41.24 225.566 41.5 224.906 41.7L224.936 41.19ZM244.187 45.93C243.527 46.65 242.787 47.25 241.967 47.73C241.167 48.19 240.307 48.42 239.387 48.42C238.467 48.42 237.737 48.26 237.197 47.94C236.657 47.62 236.267 47.2 236.027 46.68C235.787 46.14 235.667 45.58 235.667 45C235.667 44.02 235.947 43.01 236.507 41.97C237.067 40.93 237.797 39.9 238.697 38.88C239.617 37.84 240.617 36.85 241.697 35.91C242.777 34.97 243.827 34.13 244.847 33.39L245.327 33.3C245.007 33.42 244.667 33.59 244.307 33.81C243.947 34.01 243.597 34.22 243.257 34.44C242.917 34.64 242.587 34.82 242.267 34.98C241.947 35.12 241.647 35.19 241.367 35.19C240.987 35.19 240.657 35.07 240.377 34.83C240.117 34.57 239.817 34.44 239.477 34.44C239.157 34.44 238.887 34.58 238.667 34.86C238.447 35.12 238.227 35.6 238.007 36.3L237.647 37.41H237.077L237.767 35.22C238.167 34.04 238.597 33.24 239.057 32.82C239.537 32.38 240.037 32.16 240.557 32.16C240.937 32.16 241.257 32.26 241.517 32.46C241.797 32.66 242.067 32.86 242.327 33.06C242.607 33.24 242.937 33.33 243.317 33.33C243.797 33.33 244.227 33.26 244.607 33.12C244.987 32.96 245.357 32.72 245.717 32.4L246.137 31.83L246.767 32.13C245.727 32.99 244.717 33.91 243.737 34.89C242.777 35.87 241.907 36.9 241.127 37.98C240.367 39.04 239.757 40.15 239.297 41.31C238.837 42.45 238.607 43.62 238.607 44.82C238.607 45.82 238.757 46.52 239.057 46.92C239.357 47.32 239.757 47.52 240.257 47.52C240.857 47.52 241.487 47.34 242.147 46.98C242.807 46.6 243.447 46.06 244.067 45.36L244.187 45.93ZM247.517 47.55C248.497 47.55 249.347 47.27 250.067 46.71C250.807 46.15 251.417 45.43 251.897 44.55C252.377 43.65 252.737 42.69 252.977 41.67C253.237 40.63 253.387 39.64 253.427 38.7C253.467 37.74 253.397 36.93 253.217 36.27C252.837 36.19 252.427 36.05 251.987 35.85C251.547 35.63 251.167 35.34 250.847 34.98C250.527 34.6 250.367 34.14 250.367 33.6C250.367 33.08 250.507 32.71 250.787 32.49C251.067 32.27 251.347 32.16 251.627 32.16C251.927 32.16 252.187 32.25 252.407 32.43C252.647 32.61 252.857 32.86 253.037 33.18C253.217 33.5 253.377 33.88 253.517 34.32C253.657 34.74 253.767 35.2 253.847 35.7C254.047 36.6 254.127 37.61 254.087 38.73C254.047 39.85 253.877 40.98 253.577 42.12C253.277 43.24 252.827 44.28 252.227 45.24C251.627 46.2 250.867 46.97 249.947 47.55C249.047 48.13 247.967 48.42 246.707 48.42C246.067 48.42 245.477 48.3 244.937 48.06C244.397 47.82 243.957 47.4 243.617 46.8C243.297 46.2 243.137 45.37 243.137 44.31C243.137 43.43 243.277 42.57 243.557 41.73C243.857 40.89 244.237 40.13 244.697 39.45C245.157 38.77 245.637 38.23 246.137 37.83C246.637 37.43 247.097 37.23 247.517 37.23C247.817 37.23 248.037 37.34 248.177 37.56C248.337 37.78 248.437 38.06 248.477 38.4C248.537 38.72 248.567 39.03 248.567 39.33C248.567 40.41 248.267 41.51 247.667 42.63C247.087 43.75 246.177 44.78 244.937 45.72L244.787 45.18C245.727 44.44 246.477 43.54 247.037 42.48C247.597 41.42 247.877 40.36 247.877 39.3C247.877 38.9 247.837 38.57 247.757 38.31C247.677 38.03 247.527 37.89 247.307 37.89C246.987 37.89 246.627 38.15 246.227 38.67C245.827 39.17 245.477 39.82 245.177 40.62C244.897 41.4 244.757 42.23 244.757 43.11C244.757 43.83 244.837 44.53 244.997 45.21C245.177 45.89 245.467 46.45 245.867 46.89C246.287 47.33 246.837 47.55 247.517 47.55ZM257.584 47.55C257.744 47.63 257.914 47.7 258.094 47.76C258.294 47.8 258.584 47.82 258.964 47.82C259.844 47.82 260.564 47.56 261.124 47.04C261.704 46.5 261.994 45.73 261.994 44.73C261.994 44.11 261.874 43.5 261.634 42.9C261.414 42.28 261.014 41.57 260.434 40.77C259.974 40.13 259.534 39.48 259.114 38.82C258.694 38.14 258.484 37.34 258.484 36.42C258.484 35.56 258.694 34.82 259.114 34.2C259.534 33.56 260.094 33.06 260.794 32.7C261.514 32.34 262.294 32.16 263.134 32.16C263.714 32.16 264.284 32.23 264.844 32.37C265.404 32.51 265.864 32.77 266.224 33.15C266.604 33.51 266.794 34.05 266.794 34.77C266.794 34.95 266.744 35.17 266.644 35.43C266.564 35.67 266.424 35.88 266.224 36.06C266.024 36.24 265.754 36.33 265.414 36.33C265.094 36.33 264.814 36.22 264.574 36C264.334 35.76 264.214 35.45 264.214 35.07C264.214 34.71 264.284 34.37 264.424 34.05C264.584 33.71 264.794 33.38 265.054 33.06C264.674 32.82 264.174 32.7 263.554 32.7C262.814 32.7 262.194 32.95 261.694 33.45C261.194 33.95 260.944 34.65 260.944 35.55C260.944 36.01 261.014 36.42 261.154 36.78C261.294 37.12 261.494 37.48 261.754 37.86C262.034 38.24 262.364 38.72 262.744 39.3C263.244 40.06 263.664 40.79 264.004 41.49C264.344 42.19 264.514 42.93 264.514 43.71C264.514 44.63 264.274 45.45 263.794 46.17C263.334 46.87 262.714 47.42 261.934 47.82C261.154 48.22 260.294 48.42 259.354 48.42C258.674 48.42 258.024 48.32 257.404 48.12C256.784 47.92 256.274 47.61 255.874 47.19C255.494 46.75 255.304 46.17 255.304 45.45C255.304 45.17 255.394 44.88 255.574 44.58C255.734 44.26 256.034 44.1 256.474 44.1C256.954 44.1 257.294 44.3 257.494 44.7C257.694 45.08 257.794 45.51 257.794 45.99C257.794 46.31 257.764 46.6 257.704 46.86C257.664 47.1 257.624 47.33 257.584 47.55ZM270.3 45.45C270.14 46.03 270.09 46.49 270.15 46.83C270.21 47.15 270.43 47.31 270.81 47.31C271.21 47.31 271.58 47.09 271.92 46.65C272.28 46.19 272.66 45.39 273.06 44.25L273.45 43.14H274.02L273.27 45.33C273.01 46.09 272.69 46.7 272.31 47.16C271.95 47.6 271.55 47.92 271.11 48.12C270.67 48.32 270.19 48.42 269.67 48.42C269.01 48.42 268.52 48.29 268.2 48.03C267.9 47.79 267.71 47.46 267.63 47.04C267.57 46.62 267.58 46.17 267.66 45.69C267.76 45.19 267.88 44.7 268.02 44.22L272.91 27.99C273.11 27.31 273.09 26.81 272.85 26.49C272.61 26.17 272 26.01 271.02 26.01L271.23 25.38C272.33 25.36 273.3 25.25 274.14 25.05C274.98 24.83 275.79 24.53 276.57 24.15L270.3 45.45ZM278.081 41.19C279.201 40.81 280.211 40.44 281.111 40.08C282.031 39.7 282.761 39.3 283.301 38.88C284.021 38.3 284.591 37.6 285.011 36.78C285.431 35.96 285.641 35.06 285.641 34.08C285.641 33.5 285.601 33.13 285.521 32.97C285.441 32.81 285.321 32.73 285.161 32.73C284.661 32.73 284.121 32.95 283.541 33.39C282.961 33.83 282.391 34.44 281.831 35.22C281.271 35.98 280.751 36.85 280.271 37.83C279.811 38.81 279.441 39.86 279.161 40.98C278.881 42.08 278.741 43.18 278.741 44.28C278.741 45.3 278.931 46.04 279.311 46.5C279.691 46.94 280.191 47.16 280.811 47.16C281.531 47.16 282.291 46.94 283.091 46.5C283.891 46.06 284.671 45.28 285.431 44.16L285.911 44.4C285.531 45.06 285.031 45.7 284.411 46.32C283.791 46.94 283.091 47.45 282.311 47.85C281.551 48.23 280.741 48.42 279.881 48.42C279.081 48.42 278.381 48.26 277.781 47.94C277.181 47.62 276.721 47.15 276.401 46.53C276.081 45.89 275.921 45.11 275.921 44.19C275.921 43.33 276.081 42.37 276.401 41.31C276.721 40.23 277.171 39.16 277.751 38.1C278.351 37.02 279.061 36.03 279.881 35.13C280.701 34.23 281.611 33.51 282.611 32.97C283.611 32.43 284.681 32.16 285.821 32.16C286.441 32.16 286.961 32.33 287.381 32.67C287.821 32.99 288.041 33.48 288.041 34.14C288.041 34.94 287.801 35.69 287.321 36.39C286.861 37.07 286.241 37.7 285.461 38.28C284.701 38.84 283.871 39.34 282.971 39.78C282.071 40.22 281.191 40.6 280.331 40.92C279.471 41.24 278.711 41.5 278.051 41.7L278.081 41.19ZM299.672 32.58L299.582 33.18H290.252L290.402 32.58H299.672ZM292.052 45.45C291.872 46.11 291.912 46.59 292.172 46.89C292.452 47.17 292.812 47.31 293.252 47.31C293.692 47.31 294.132 47.12 294.572 46.74C295.032 46.36 295.482 45.55 295.922 44.31L296.342 43.14H296.912L296.282 45.03C295.842 46.33 295.272 47.22 294.572 47.7C293.892 48.18 293.092 48.42 292.172 48.42C291.352 48.42 290.722 48.25 290.282 47.91C289.862 47.55 289.612 47.05 289.532 46.41C289.452 45.77 289.532 45.04 289.772 44.22L294.422 28.02C294.902 28 295.372 27.96 295.832 27.9C296.312 27.84 296.742 27.74 297.122 27.6L292.052 45.45ZM309.75 32.58L309.66 33.18H300.33L300.48 32.58H309.75ZM302.13 45.45C301.95 46.11 301.99 46.59 302.25 46.89C302.53 47.17 302.89 47.31 303.33 47.31C303.77 47.31 304.21 47.12 304.65 46.74C305.11 46.36 305.56 45.55 306 44.31L306.42 43.14H306.99L306.36 45.03C305.92 46.33 305.35 47.22 304.65 47.7C303.97 48.18 303.17 48.42 302.25 48.42C301.43 48.42 300.8 48.25 300.36 47.91C299.94 47.55 299.69 47.05 299.61 46.41C299.53 45.77 299.61 45.04 299.85 44.22L304.5 28.02C304.98 28 305.45 27.96 305.91 27.9C306.39 27.84 306.82 27.74 307.2 27.6L302.13 45.45ZM311.098 41.19C312.218 40.81 313.228 40.44 314.128 40.08C315.048 39.7 315.778 39.3 316.318 38.88C317.038 38.3 317.608 37.6 318.028 36.78C318.448 35.96 318.658 35.06 318.658 34.08C318.658 33.5 318.618 33.13 318.538 32.97C318.458 32.81 318.338 32.73 318.178 32.73C317.678 32.73 317.138 32.95 316.558 33.39C315.978 33.83 315.408 34.44 314.848 35.22C314.288 35.98 313.768 36.85 313.288 37.83C312.828 38.81 312.458 39.86 312.178 40.98C311.898 42.08 311.758 43.18 311.758 44.28C311.758 45.3 311.948 46.04 312.328 46.5C312.708 46.94 313.208 47.16 313.828 47.16C314.548 47.16 315.308 46.94 316.108 46.5C316.908 46.06 317.688 45.28 318.448 44.16L318.928 44.4C318.548 45.06 318.048 45.7 317.428 46.32C316.808 46.94 316.108 47.45 315.328 47.85C314.568 48.23 313.758 48.42 312.898 48.42C312.098 48.42 311.398 48.26 310.798 47.94C310.198 47.62 309.738 47.15 309.418 46.53C309.098 45.89 308.938 45.11 308.938 44.19C308.938 43.33 309.098 42.37 309.418 41.31C309.738 40.23 310.188 39.16 310.768 38.1C311.368 37.02 312.078 36.03 312.898 35.13C313.718 34.23 314.628 33.51 315.628 32.97C316.628 32.43 317.698 32.16 318.838 32.16C319.458 32.16 319.978 32.33 320.398 32.67C320.838 32.99 321.058 33.48 321.058 34.14C321.058 34.94 320.818 35.69 320.338 36.39C319.878 37.07 319.258 37.7 318.478 38.28C317.718 38.84 316.888 39.34 315.988 39.78C315.088 40.22 314.208 40.6 313.348 40.92C312.488 41.24 311.728 41.5 311.068 41.7L311.098 41.19ZM325.069 48H322.459L326.059 35.13C326.259 34.45 326.319 33.97 326.239 33.69C326.179 33.41 325.979 33.27 325.639 33.27C325.199 33.27 324.799 33.5 324.439 33.96C324.079 34.42 323.699 35.21 323.299 36.33L322.909 37.44H322.339L323.089 35.25C323.389 34.41 323.739 33.77 324.139 33.33C324.559 32.89 324.989 32.59 325.429 32.43C325.889 32.25 326.319 32.16 326.719 32.16C327.319 32.16 327.739 32.29 327.979 32.55C328.239 32.81 328.379 33.15 328.399 33.57C328.439 33.99 328.409 34.45 328.309 34.95C328.229 35.43 328.129 35.9 328.009 36.36L325.069 48ZM332.779 32.91C332.319 32.91 331.839 33.13 331.339 33.57C330.859 33.99 330.359 34.61 329.839 35.43C329.339 36.23 328.829 37.2 328.309 38.34C327.809 39.46 327.309 40.71 326.809 42.09C326.329 43.47 325.859 44.96 325.399 46.56L326.149 42.72C326.809 40.76 327.419 39.11 327.979 37.77C328.559 36.43 329.129 35.35 329.689 34.53C330.249 33.69 330.819 33.09 331.399 32.73C331.999 32.35 332.629 32.16 333.289 32.16C333.849 32.16 334.279 32.32 334.579 32.64C334.899 32.96 335.059 33.37 335.059 33.87C335.059 34.27 334.959 34.64 334.759 34.98C334.559 35.3 334.299 35.56 333.979 35.76C333.679 35.94 333.339 36.03 332.959 36.03C332.619 36.03 332.329 35.94 332.089 35.76C331.869 35.56 331.759 35.29 331.759 34.95C331.759 34.63 331.819 34.35 331.939 34.11C332.059 33.85 332.219 33.63 332.419 33.45C332.619 33.27 332.849 33.13 333.109 33.03C333.069 32.99 333.019 32.96 332.959 32.94C332.919 32.92 332.859 32.91 332.779 32.91Z" fill="white"/>
</svg>
