<svg width="60" height="60" viewBox="0 0 60 60" fill="none" xmlns="http://www.w3.org/2000/svg">
<circle cx="30" cy="30" r="30" fill="#BA8777"/>
<path fill-rule="evenodd" clip-rule="evenodd" d="M24.2692 16C24.5446 16 24.8088 16.1135 25.0035 16.3154C25.1983 16.5174 25.3077 16.7913 25.3077 17.0769V18.1538H35.6923V17.0769C35.6923 16.7913 35.8017 16.5174 35.9965 16.3154C36.1912 16.1135 36.4554 16 36.7308 16C37.0062 16 37.2703 16.1135 37.4651 16.3154C37.6598 16.5174 37.7692 16.7913 37.7692 17.0769V18.1538H40.8846C41.7109 18.1538 42.5033 18.4942 43.0875 19.1001C43.6718 19.706 44 20.5278 44 21.3846V40.7692C44 41.6261 43.6718 42.4478 43.0875 43.0537C42.5033 43.6596 41.7109 44 40.8846 44H20.1154C19.2891 44 18.4967 43.6596 17.9125 43.0537C17.3282 42.4478 17 41.6261 17 40.7692V21.3846C17 20.5278 17.3282 19.706 17.9125 19.1001C18.4967 18.4942 19.2891 18.1538 20.1154 18.1538H23.2308V17.0769C23.2308 16.7913 23.3402 16.5174 23.5349 16.3154C23.7297 16.1135 23.9938 16 24.2692 16ZM35.6923 20.3077V21.3846C35.6923 21.6702 35.8017 21.9442 35.9965 22.1461C36.1912 22.3481 36.4554 22.4615 36.7308 22.4615C37.0062 22.4615 37.2703 22.3481 37.4651 22.1461C37.6598 21.9442 37.7692 21.6702 37.7692 21.3846V20.3077H40.8846C41.16 20.3077 41.4242 20.4212 41.6189 20.6231C41.8137 20.8251 41.9231 21.099 41.9231 21.3846V24.6154H19.0769V21.3846C19.0769 21.099 19.1863 20.8251 19.3811 20.6231C19.5758 20.4212 19.84 20.3077 20.1154 20.3077H23.2308V21.3846C23.2308 21.6702 23.3402 21.9442 23.5349 22.1461C23.7297 22.3481 23.9938 22.4615 24.2692 22.4615C24.5446 22.4615 24.8088 22.3481 25.0035 22.1461C25.1983 21.9442 25.3077 21.6702 25.3077 21.3846V20.3077H35.6923ZM19.0769 26.7692V40.7692C19.0769 41.0548 19.1863 41.3288 19.3811 41.5307C19.5758 41.7327 19.84 41.8462 20.1154 41.8462H40.8846C41.16 41.8462 41.4242 41.7327 41.6189 41.5307C41.8137 41.3288 41.9231 41.0548 41.9231 40.7692V26.7692H19.0769ZM29.4615 30C29.4615 29.7144 29.5709 29.4405 29.7657 29.2385C29.9604 29.0365 30.2246 28.9231 30.5 28.9231C30.7754 28.9231 31.0396 29.0365 31.2343 29.2385C31.4291 29.4405 31.5385 29.7144 31.5385 30C31.5385 30.2856 31.4291 30.5595 31.2343 30.7615C31.0396 30.9635 30.7754 31.0769 30.5 31.0769C30.2246 31.0769 29.9604 30.9635 29.7657 30.7615C29.5709 30.5595 29.4615 30.2856 29.4615 30ZM34.6538 28.9231C34.3784 28.9231 34.1143 29.0365 33.9195 29.2385C33.7248 29.4405 33.6154 29.7144 33.6154 30C33.6154 30.2856 33.7248 30.5595 33.9195 30.7615C34.1143 30.9635 34.3784 31.0769 34.6538 31.0769C34.9293 31.0769 35.1934 30.9635 35.3882 30.7615C35.5829 30.5595 35.6923 30.2856 35.6923 30C35.6923 29.7144 35.5829 29.4405 35.3882 29.2385C35.1934 29.0365 34.9293 28.9231 34.6538 28.9231ZM37.7692 30C37.7692 29.7144 37.8786 29.4405 38.0734 29.2385C38.2681 29.0365 38.5323 28.9231 38.8077 28.9231C39.0831 28.9231 39.3472 29.0365 39.542 29.2385C39.7367 29.4405 39.8462 29.7144 39.8462 30C39.8462 30.2856 39.7367 30.5595 39.542 30.7615C39.3472 30.9635 39.0831 31.0769 38.8077 31.0769C38.5323 31.0769 38.2681 30.9635 38.0734 30.7615C37.8786 30.5595 37.7692 30.2856 37.7692 30ZM38.8077 33.2308C38.5323 33.2308 38.2681 33.3442 38.0734 33.5462C37.8786 33.7482 37.7692 34.0221 37.7692 34.3077C37.7692 34.5933 37.8786 34.8672 38.0734 35.0692C38.2681 35.2712 38.5323 35.3846 38.8077 35.3846C39.0831 35.3846 39.3472 35.2712 39.542 35.0692C39.7367 34.8672 39.8462 34.5933 39.8462 34.3077C39.8462 34.0221 39.7367 33.7482 39.542 33.5462C39.3472 33.3442 39.0831 33.2308 38.8077 33.2308ZM33.6154 34.3077C33.6154 34.0221 33.7248 33.7482 33.9195 33.5462C34.1143 33.3442 34.3784 33.2308 34.6538 33.2308C34.9293 33.2308 35.1934 33.3442 35.3882 33.5462C35.5829 33.7482 35.6923 34.0221 35.6923 34.3077C35.6923 34.5933 35.5829 34.8672 35.3882 35.0692C35.1934 35.2712 34.9293 35.3846 34.6538 35.3846C34.3784 35.3846 34.1143 35.2712 33.9195 35.0692C33.7248 34.8672 33.6154 34.5933 33.6154 34.3077ZM30.5 33.2308C30.2246 33.2308 29.9604 33.3442 29.7657 33.5462C29.5709 33.7482 29.4615 34.0221 29.4615 34.3077C29.4615 34.5933 29.5709 34.8672 29.7657 35.0692C29.9604 35.2712 30.2246 35.3846 30.5 35.3846C30.7754 35.3846 31.0396 35.2712 31.2343 35.0692C31.4291 34.8672 31.5385 34.5933 31.5385 34.3077C31.5385 34.0221 31.4291 33.7482 31.2343 33.5462C31.0396 33.3442 30.7754 33.2308 30.5 33.2308ZM25.3077 34.3077C25.3077 34.0221 25.4171 33.7482 25.6119 33.5462C25.8066 33.3442 26.0707 33.2308 26.3462 33.2308C26.6216 33.2308 26.8857 33.3442 27.0805 33.5462C27.2752 33.7482 27.3846 34.0221 27.3846 34.3077C27.3846 34.5933 27.2752 34.8672 27.0805 35.0692C26.8857 35.2712 26.6216 35.3846 26.3462 35.3846C26.0707 35.3846 25.8066 35.2712 25.6119 35.0692C25.4171 34.8672 25.3077 34.5933 25.3077 34.3077ZM22.1923 33.2308C21.9169 33.2308 21.6528 33.3442 21.458 33.5462C21.2633 33.7482 21.1538 34.0221 21.1538 34.3077C21.1538 34.5933 21.2633 34.8672 21.458 35.0692C21.6528 35.2712 21.9169 35.3846 22.1923 35.3846C22.4677 35.3846 22.7319 35.2712 22.9266 35.0692C23.1214 34.8672 23.2308 34.5933 23.2308 34.3077C23.2308 34.0221 23.1214 33.7482 22.9266 33.5462C22.7319 33.3442 22.4677 33.2308 22.1923 33.2308ZM21.1538 38.6154C21.1538 38.3298 21.2633 38.0558 21.458 37.8539C21.6528 37.6519 21.9169 37.5385 22.1923 37.5385C22.4677 37.5385 22.7319 37.6519 22.9266 37.8539C23.1214 38.0558 23.2308 38.3298 23.2308 38.6154C23.2308 38.901 23.1214 39.1749 22.9266 39.3769C22.7319 39.5788 22.4677 39.6923 22.1923 39.6923C21.9169 39.6923 21.6528 39.5788 21.458 39.3769C21.2633 39.1749 21.1538 38.901 21.1538 38.6154ZM26.3462 37.5385C26.0707 37.5385 25.8066 37.6519 25.6119 37.8539C25.4171 38.0558 25.3077 38.3298 25.3077 38.6154C25.3077 38.901 25.4171 39.1749 25.6119 39.3769C25.8066 39.5788 26.0707 39.6923 26.3462 39.6923C26.6216 39.6923 26.8857 39.5788 27.0805 39.3769C27.2752 39.1749 27.3846 38.901 27.3846 38.6154C27.3846 38.3298 27.2752 38.0558 27.0805 37.8539C26.8857 37.6519 26.6216 37.5385 26.3462 37.5385ZM29.4615 38.6154C29.4615 38.3298 29.5709 38.0558 29.7657 37.8539C29.9604 37.6519 30.2246 37.5385 30.5 37.5385C30.7754 37.5385 31.0396 37.6519 31.2343 37.8539C31.4291 38.0558 31.5385 38.3298 31.5385 38.6154C31.5385 38.901 31.4291 39.1749 31.2343 39.3769C31.0396 39.5788 30.7754 39.6923 30.5 39.6923C30.2246 39.6923 29.9604 39.5788 29.7657 39.3769C29.5709 39.1749 29.4615 38.901 29.4615 38.6154ZM34.6538 37.5385C34.3784 37.5385 34.1143 37.6519 33.9195 37.8539C33.7248 38.0558 33.6154 38.3298 33.6154 38.6154C33.6154 38.901 33.7248 39.1749 33.9195 39.3769C34.1143 39.5788 34.3784 39.6923 34.6538 39.6923C34.9293 39.6923 35.1934 39.5788 35.3882 39.3769C35.5829 39.1749 35.6923 38.901 35.6923 38.6154C35.6923 38.3298 35.5829 38.0558 35.3882 37.8539C35.1934 37.6519 34.9293 37.5385 34.6538 37.5385Z" fill="white"/>
</svg>
