<svg width="28" height="23" viewBox="0 0 28 23" fill="none" xmlns="http://www.w3.org/2000/svg">
<path fill-rule="evenodd" clip-rule="evenodd" d="M1.47368 0C1.08284 0 0.708001 0.173074 0.431632 0.481148C0.155263 0.789221 0 1.20706 0 1.64274C0 2.07842 0.155263 2.49626 0.431632 2.80433C0.708001 3.11241 1.08284 3.28548 1.47368 3.28548H26.5263C26.9172 3.28548 27.292 3.11241 27.5684 2.80433C27.8447 2.49626 28 2.07842 28 1.64274C28 1.20706 27.8447 0.789221 27.5684 0.481148C27.292 0.173074 26.9172 0 26.5263 0H1.47368ZM0 11.4992C0 11.0635 0.155263 10.6457 0.431632 10.3376C0.708001 10.0295 1.08284 9.85644 1.47368 9.85644H26.5263C26.9172 9.85644 27.292 10.0295 27.5684 10.3376C27.8447 10.6457 28 11.0635 28 11.4992C28 11.9349 27.8447 12.3527 27.5684 12.6608C27.292 12.9688 26.9172 13.1419 26.5263 13.1419H1.47368C1.08284 13.1419 0.708001 12.9688 0.431632 12.6608C0.155263 12.3527 0 11.9349 0 11.4992ZM0 21.3573C0 20.9216 0.155263 20.5037 0.431632 20.1957C0.708001 19.8876 1.08284 19.7145 1.47368 19.7145H26.5263C26.9172 19.7145 27.292 19.8876 27.5684 20.1957C27.8447 20.5037 28 20.9216 28 21.3573C28 21.7929 27.8447 22.2108 27.5684 22.5189C27.292 22.8269 26.9172 23 26.5263 23H1.47368C1.08284 23 0.708001 22.8269 0.431632 22.5189C0.155263 22.2108 0 21.7929 0 21.3573Z" fill="white"/>
</svg>
